<svg height="472pt" viewBox="0 0 472 472" width="472pt" xmlns="http://www.w3.org/2000/svg"><path d="m448 216v248h-48v-248zm0 0" fill="#ffca55"/><path d="m400 272v192h-48v-192zm0 0" fill="#ffca55"/><path d="m464 80c0 44.183594-35.816406 80-80 80s-80-35.816406-80-80 35.816406-80 80-80 80 35.816406 80 80zm0 0" fill="#ffca55"/><path d="m448 80c0 35.347656-28.652344 64-64 64s-64-28.652344-64-64 28.652344-64 64-64 64 28.652344 64 64zm0 0" fill="#ffad55"/><path d="m352 336v128h-48v-128zm0 0" fill="#ffca55"/><path d="m256 392h48v72h-48zm0 0" fill="#ffca55"/><path d="m40 288h-40v-104c0-26.480469 21.519531-48 48-48h144l48-48 24 24-56 64h-72v104l32 184h-48l-32-160v160h-48zm0 0" fill="#5dbcd9"/><path d="m136 88c0 26.507812-21.492188 48-48 48s-48-21.492188-48-48 21.492188-48 48-48 48 21.492188 48 48zm0 0" fill="#5dbcd9"/><g fill="#45639c"><path d="m232 456h240v16h-240zm0 0"/><path d="m373.65625 210.34375-40-40c-3.128906-3.128906-8.183594-3.128906-11.3125 0l-40 40 11.3125 11.3125 24.632812-24.632812c-10.234374 69.449218-70.050781 122.976562-142.289062 122.976562v16c82.0625 0 149.816406-62.128906 158.886719-141.800781l27.457031 27.457031zm0 0"/><path d="m384 72c-4.414062 0-8-3.59375-8-8v-8c0-4.40625 3.585938-8 8-8s8 3.59375 8 8h16c0-10.414062-6.710938-19.214844-16-22.527344v-9.472656h-16v9.472656c-9.289062 3.3125-16 12.113282-16 22.527344v8c0 13.230469 10.769531 24 24 24 4.414062 0 8 3.59375 8 8v8c0 4.40625-3.585938 8-8 8s-8-3.59375-8-8h-16c0 10.414062 6.710938 19.214844 16 22.527344v9.472656h16v-9.472656c9.289062-3.3125 16-12.113282 16-22.527344v-8c0-13.230469-10.769531-24-24-24zm0 0"/><path d="m72 160h32v16h-32zm0 0"/><path d="m80 168h16v80h-16zm0 0"/><path d="m192 24h16v16h-16zm0 0"/><path d="m224 24h16v16h-16zm0 0"/><path d="m256 24h16v16h-16zm0 0"/></g><path d="m32 184h8v104h-8zm0 0" fill="#3ea0cf"/><path d="m392 272h8v184h-8zm0 0" fill="#ffad55"/><path d="m344 336h8v120h-8zm0 0" fill="#ffad55"/><path d="m296 392h8v64h-8zm0 0" fill="#ffad55"/></svg>