<svg height="512pt" viewBox="0 0 512 512" width="512pt" xmlns="http://www.w3.org/2000/svg"><path d="m238.933594 332.800781h85.332031v68.265625h-85.332031zm0 0" fill="#7facfa"/><path d="m238.933594 332.800781h59.734375v68.265625h-59.734375zm0 0" fill="#a4c2f7"/><path d="m503.464844 42.667969v273.066406c0 18.851563-15.28125 34.132813-34.132813 34.132813h-307.199219l-102.398437-119.46875v-187.730469c0-18.851563 15.28125-34.132813 34.132813-34.132813h375.464843c18.851563 0 34.132813 15.28125 34.132813 34.132813zm0 0" fill="#cad9fc"/><path d="m477.867188 42.667969v273.066406c0 18.851563-15.28125 34.132813-34.132813 34.132813h-281.601563l-102.398437-119.46875v-187.730469c0-18.851563 15.28125-34.132813 34.132813-34.132813h349.867187c18.851563 0 34.132813 15.28125 34.132813 34.132813zm0 0" fill="#e8edfc"/><path d="m469.332031 51.199219v221.867187c0 4.714844-3.820312 8.535156-8.53125 8.535156h-298.667969l-31.316406-23.46875-31.230468-23.464843-5.71875-4.269531v-179.199219c0-4.710938 3.820312-8.53125 8.53125-8.53125h358.402343c.660157-.003907 1.324219.082031 1.960938.253906h.085937c1.246094.324219 2.40625.90625 3.414063 1.707031 1.941406 1.632813 3.0625 4.035156 3.070312 6.570313zm0 0" fill="#cad9fc"/><path d="m98.875 42.667969-5.007812 5.007812v-5.007812zm0 0" fill="#d3dff2"/><path d="m214.628906 42.667969-120.761718 120.761719v-115.753907l5.007812-5.007812zm0 0" fill="#d3dff2"/><path d="m214.699219 42.667969-120.832031 120.832031v-.070312l120.761718-120.761719zm0 0" fill="#d3dff2"/><path d="m214.765625 42.667969-120.898437 120.898437v-.066406l120.832031-120.832031zm0 0" fill="#d8e1f2"/><path d="m214.828125 42.667969-120.960937 120.957031v-.058594l120.898437-120.898437zm0 0" fill="#dce3f2"/><path d="m214.894531 42.667969-121.027343 121.027343v-.070312l120.960937-120.957031zm0 0" fill="#e0e5f2"/><path d="m214.964844 42.667969-121.097656 121.09375v-.066407l121.027343-121.027343zm0 0" fill="#e4e7f2"/><path d="m215.023438 42.667969-121.15625 121.15625v-.0625l121.097656-121.09375zm0 0" fill="#e7e8f2"/><path d="m215.089844 42.667969-121.222656 121.222656v-.066406l121.15625-121.15625zm0 0" fill="#eaeaf2"/><path d="m215.160156 42.667969-121.292968 121.292969v-.070313l121.222656-121.222656zm0 0" fill="#edebf2"/><path d="m215.21875 42.667969-121.351562 121.351562v-.058593l121.292968-121.292969zm0 0" fill="#efecf2"/><path d="m215.289062 42.667969-121.421874 121.417969v-.066407l121.351562-121.351562zm0 0" fill="#f1edf2"/><path d="m215.347656 42.667969-121.480468 121.480469v-.0625l121.421874-121.417969zm0 0" fill="#f3eef2"/><path d="m215.414062 42.667969-121.546874 121.546875v-.066406l121.480468-121.480469zm0 0" fill="#f5eef2"/><path d="m215.484375 42.667969-121.617187 121.617187v-.070312l121.546874-121.546875zm0 0" fill="#f6eff2"/><path d="m215.542969 42.667969-121.675781 121.675781v-.058594l121.617187-121.617187zm0 0" fill="#f8f0f2"/><path d="m215.613281 42.667969-121.746093 121.742187v-.066406l121.675781-121.675781zm0 0" fill="#f9f0f2"/><path d="m215.679688 42.667969-121.8125 121.8125v-.070313l121.746093-121.742187zm0 0" fill="#faf1f2"/><path d="m215.738281 42.667969-121.871093 121.871093v-.058593l121.8125-121.8125zm0 0" fill="#fbf1f2"/><path d="m215.808594 42.667969-121.941406 121.941406v-.070313l121.871093-121.871093zm0 0" fill="#fbf1f2"/><path d="m215.867188 42.667969-122 122v-.058594l121.941406-121.941406zm0 0" fill="#fcf2f2"/><path d="m215.9375 42.667969-122.070312 122.066406v-.066406l122-122zm0 0" fill="#fdf2f2"/><path d="m216.003906 42.667969-122.136718 122.136719v-.070313l122.070312-122.066406zm0 0" fill="#fdf2f2"/><path d="m216.0625 42.667969-122.195312 122.195312v-.058593l122.136718-122.136719zm0 0" fill="#fdf2f2"/><path d="m216.132812 42.667969-122.265624 122.265625v-.070313l122.195312-122.195312zm0 0" fill="#fef2f2"/><path d="m216.199219 42.667969-122.332031 122.332031v-.066406l122.265624-122.265625zm0 0" fill="#fef3f2"/><path d="m216.261719 42.667969-122.394531 122.390625v-.058594l122.332031-122.332031zm0 0" fill="#fef3f2"/><path d="m216.328125 42.667969-122.460937 122.460937v-.070312l122.394531-122.390625zm0 0" fill="#fef3f2"/><path d="m216.398438 42.667969-122.53125 122.527343v-.066406l122.460937-122.460937zm0 0" fill="#fff3f2"/><path d="m216.457031 42.667969-122.589843 122.589843v-.0625l122.53125-122.527343zm0 0" fill="#fff3f2"/><path d="m216.523438 42.667969-122.65625 122.65625v-.066407l122.589843-122.589843zm0 0" fill="#fff3f2"/><path d="m216.585938 42.667969-122.71875 122.714843v-.058593l122.65625-122.65625zm0 0" fill="#fff3f2"/><path d="m216.652344 42.667969-122.785156 122.785156v-.070313l122.71875-122.714843zm0 0" fill="#fff3f2"/><path d="m216.722656 42.667969-122.855468 122.851562v-.066406l122.785156-122.785156zm0 0" fill="#fff3f2"/><path d="m216.78125 42.667969-122.914062 122.914062v-.0625l122.855468-122.851562zm0 0" fill="#fff3f2"/><path d="m216.847656 42.667969-122.980468 122.980469v-.066407l122.914062-122.914062zm0 0" fill="#fff3f2"/><path d="m216.917969 42.667969-123.050781 123.050781v-.070312l122.980468-122.980469zm0 0" fill="#fff3f2"/><path d="m216.976562 42.667969-123.109374 123.109375v-.058594l123.050781-123.050781zm0 0" fill="#fff3f2"/><path d="m217.046875 42.667969-123.179687 123.175781v-.066406l123.109374-123.109375zm0 0" fill="#fff3f2"/><path d="m217.105469 42.667969-123.238281 123.238281v-.0625l123.179687-123.175781zm0 0" fill="#fff3f2"/><path d="m217.171875 42.667969-123.304687 123.304687v-.066406l123.238281-123.238281zm0 0" fill="#fff3f2"/><path d="m217.242188 42.667969-123.375 123.375v-.070313l123.304687-123.304687zm0 0" fill="#fff3f2"/><path d="m217.300781 42.667969-123.433593 123.433593v-.058593l123.375-123.375zm0 0" fill="#fff3f2"/><path d="m217.371094 42.667969-123.503906 123.5v-.066407l123.433593-123.433593zm0 0" fill="#fff3f2"/><path d="m217.4375 42.667969-123.570312 123.570312v-.070312l123.503906-123.5zm0 0" fill="#fff3f2"/><path d="m217.496094 42.667969-123.628906 123.628906v-.058594l123.570312-123.570312zm0 0" fill="#fff3f2"/><path d="m249.359375 42.667969-155.492187 155.492187v-31.863281l123.628906-123.628906zm0 0" fill="#fff3f2"/><path d="m249.359375 42.667969-155.492187 155.492187zm0 0" fill="#fff3f2"/><path d="m249.359375 42.667969-155.492187 155.492187zm0 0" fill="#fef3f2"/><path d="m249.359375 42.667969-155.492187 155.492187zm0 0" fill="#fdf2f2"/><path d="m249.359375 42.667969-155.492187 155.492187zm0 0" fill="#fcf2f2"/><path d="m249.359375 42.667969-155.492187 155.492187zm0 0" fill="#fbf1f2"/><path d="m249.359375 42.667969-155.492187 155.492187zm0 0" fill="#faf1f2"/><path d="m249.359375 42.667969-155.492187 155.492187zm0 0" fill="#f9f0f2"/><path d="m249.359375 42.667969-155.492187 155.492187zm0 0" fill="#f8f0f2"/><path d="m249.359375 42.667969-155.492187 155.492187zm0 0" fill="#f7eff2"/><path d="m249.359375 42.667969-155.492187 155.492187zm0 0" fill="#f6eff2"/><path d="m249.359375 42.667969-155.492187 155.492187zm0 0" fill="#f5eef2"/><path d="m249.359375 42.667969-155.492187 155.492187zm0 0" fill="#f4eef2"/><path d="m249.359375 42.667969-155.492187 155.492187zm0 0" fill="#f3edf2"/><path d="m249.359375 42.667969-155.492187 155.492187zm0 0" fill="#f2edf2"/><path d="m249.359375 42.667969-155.492187 155.492187zm0 0" fill="#f1ecf2"/><path d="m249.359375 42.667969-155.492187 155.492187zm0 0" fill="#f0ecf2"/><path d="m249.359375 42.667969-155.492187 155.492187zm0 0" fill="#efecf2"/><path d="m249.359375 42.667969-155.492187 155.492187zm0 0" fill="#eeebf2"/><path d="m249.359375 42.667969-155.492187 155.492187zm0 0" fill="#edebf2"/><path d="m249.359375 42.667969-155.492187 155.492187zm0 0" fill="#eceaf2"/><path d="m249.359375 42.667969-155.492187 155.492187zm0 0" fill="#ebeaf2"/><path d="m249.359375 42.667969-155.492187 155.492187zm0 0" fill="#eae9f2"/><path d="m249.359375 42.667969-155.492187 155.492187zm0 0" fill="#e8e9f2"/><path d="m249.359375 42.667969-155.492187 155.492187zm0 0" fill="#e7e8f2"/><path d="m249.359375 42.667969-155.492187 155.492187zm0 0" fill="#e6e8f2"/><path d="m249.359375 42.667969-155.492187 155.492187zm0 0" fill="#e5e7f2"/><path d="m249.359375 42.667969-155.492187 155.492187zm0 0" fill="#e4e7f2"/><path d="m249.359375 42.667969-155.492187 155.492187zm0 0" fill="#e3e6f2"/><path d="m249.359375 42.667969-155.492187 155.492187zm0 0" fill="#e2e6f2"/><path d="m249.359375 42.667969-155.492187 155.492187zm0 0" fill="#e1e6f2"/><path d="m249.359375 42.667969-155.492187 155.492187zm0 0" fill="#e0e5f2"/><path d="m249.359375 42.667969-155.492187 155.492187zm0 0" fill="#dfe5f2"/><path d="m249.359375 42.667969-155.492187 155.492187zm0 0" fill="#dee4f2"/><path d="m249.359375 42.667969-155.492187 155.492187zm0 0" fill="#dde4f2"/><path d="m249.359375 42.667969-155.492187 155.492187zm0 0" fill="#dce3f2"/><path d="m249.359375 42.667969-155.492187 155.492187zm0 0" fill="#dbe3f2"/><path d="m249.359375 42.667969-155.492187 155.492187zm0 0" fill="#dae2f2"/><path d="m249.359375 42.667969-155.492187 155.492187zm0 0" fill="#d9e2f2"/><path d="m249.359375 42.667969-155.492187 155.492187zm0 0" fill="#d8e1f2"/><path d="m249.359375 42.667969-155.492187 155.492187zm0 0" fill="#d7e1f2"/><path d="m249.359375 42.667969-155.492187 155.492187zm0 0" fill="#d6e0f2"/><path d="m249.359375 42.667969-155.492187 155.492187zm0 0" fill="#d5e0f2"/><path d="m249.359375 42.667969-155.492187 155.492187zm0 0" fill="#d4dff2"/><path d="m249.359375 42.667969-155.492187 155.492187zm0 0" fill="#d3dff2"/><path d="m341.964844 42.667969-229.980469 229.980469-18.117187-18.117188v-56.371094l155.492187-155.492187zm0 0" fill="#d3dff2"/><path d="m111.976562 272.644531 229.996094-229.996093 6.035156 6.035156-230 229.996094zm0 0" fill="#d3dff2"/><path d="m112.015625 272.675781 230.03125-230.035156 6.035156 6.035156-230.035156 230.03125zm0 0" fill="#d8e1f2"/><path d="m112.042969 272.710938 230.066406-230.0625 6.03125 6.03125-230.0625 230.066406zm0 0" fill="#dce3f2"/><path d="m112.074219 272.738281 230.101562-230.097656 6.03125 6.03125-230.097656 230.101563zm0 0" fill="#e0e5f2"/><path d="m112.113281 272.773438 230.128907-230.128907 6.035156 6.035157-230.128906 230.128906zm0 0" fill="#e4e7f2"/><path d="m112.144531 272.8125 230.160157-230.160156 6.03125 6.035156-230.160157 230.160156zm0 0" fill="#e7e8f2"/><path d="m112.171875 272.839844 230.199219-230.195313 6.03125 6.03125-230.195313 230.199219zm0 0" fill="#eaeaf2"/><path d="m112.210938 272.875 230.226562-230.226562 6.035156 6.035156-230.226562 230.226562zm0 0" fill="#edebf2"/><path d="m112.242188 272.90625 230.261718-230.265625 6.035156 6.035156-230.261718 230.261719zm0 0" fill="#efecf2"/><path d="m112.265625 272.933594 230.292969-230.292969 6.035156 6.035156-230.292969 230.292969zm0 0" fill="#f1edf2"/><path d="m112.304688 272.972656 230.324218-230.324218 6.03125 6.035156-230.320312 230.324218zm0 0" fill="#f3eef2"/><path d="m112.335938 273 230.359374-230.359375 6.03125 6.035156-230.359374 230.359375zm0 0" fill="#f5eef2"/><path d="m112.367188 273.035156 230.386718-230.386718 6.035156 6.03125-230.390624 230.390624zm0 0" fill="#f6eff2"/><path d="m112.402344 273.066406 230.425781-230.425781 6.035156 6.03125-230.425781 230.425781zm0 0" fill="#f8f0f2"/><path d="m112.433594 273.101562 230.457031-230.457031 6.035156 6.035157-230.457031 230.457031zm0 0" fill="#f9f0f2"/><path d="m112.464844 273.136719 230.484375-230.484375 6.035156 6.035156-230.484375 230.484375zm0 0" fill="#faf1f2"/><path d="m112.503906 273.167969 230.519532-230.523438 6.035156 6.035157-230.523438 230.519531zm0 0" fill="#fbf1f2"/><path d="m112.535156 273.203125 230.550782-230.550781 6.035156 6.03125-230.554688 230.554687zm0 0" fill="#fbf1f2"/><path d="m112.5625 273.230469 230.589844-230.589844 6.035156 6.035156-230.589844 230.589844zm0 0" fill="#fcf2f2"/><path d="m112.601562 273.265625 230.621094-230.617187 6.03125 6.035156-230.617187 230.617187zm0 0" fill="#fdf2f2"/><path d="m112.625 273.296875 230.648438-230.648437 6.035156 6.035156-230.648438 230.648437zm0 0" fill="#fdf2f2"/><path d="m112.65625 273.328125 230.683594-230.6875 6.035156 6.035156-230.683594 230.683594zm0 0" fill="#fdf2f2"/><path d="m112.695312 273.363281 230.714844-230.714843 6.035156 6.03125-230.714843 230.71875zm0 0" fill="#fef2f2"/><path d="m112.726562 273.398438 230.75-230.75 6.035157 6.035156-230.753907 230.75zm0 0" fill="#fef3f2"/><path d="m112.753906 273.425781 230.78125-230.78125 6.035156 6.035157-230.78125 230.78125zm0 0" fill="#fef3f2"/><path d="m112.792969 273.464844 230.8125-230.8125 6.035156 6.035156-230.8125 230.8125zm0 0" fill="#fef3f2"/><path d="m112.824219 273.492188 230.847656-230.847657 6.035156 6.035157-230.847656 230.847656zm0 0" fill="#fff3f2"/><path d="m112.855469 273.527344 230.878906-230.875 6.03125 6.03125-230.878906 230.878906zm0 0" fill="#fff3f2"/><path d="m112.894531 273.566406 230.914063-230.914062 6.03125 6.03125-230.914063 230.914062zm0 0" fill="#fff3f2"/><path d="m112.921875 273.59375 230.945313-230.945312 6.035156 6.035156-230.945313 230.945312zm0 0" fill="#fff3f2"/><path d="m112.953125 273.628906 230.976563-230.972656 6.03125 6.035156-230.972657 230.972656zm0 0" fill="#fff3f2"/><path d="m112.984375 273.652344 231.011719-231.011719 6.035156 6.035156-231.011719 231.011719zm0 0" fill="#fff3f2"/><path d="m113.015625 273.6875 231.042969-231.039062 6.03125 6.035156-231.039063 231.039062zm0 0" fill="#fff3f2"/><path d="m113.046875 273.726562 231.078125-231.078124 6.03125 6.035156-231.074219 231.074218zm0 0" fill="#fff3f2"/><path d="m113.085938 273.753906 231.105468-231.109375 6.035156 6.035157-231.105468 231.109374zm0 0" fill="#fff3f2"/><path d="m113.117188 273.789062 231.136718-231.136718 6.03125 6.035156-231.136718 231.136719zm0 0" fill="#fff3f2"/><path d="m113.144531 273.820312 231.175781-231.175781 6.03125 6.035157-231.171874 231.171874zm0 0" fill="#fff3f2"/><path d="m113.183594 273.855469 231.203125-231.203125 6.035156 6.03125-231.203125 231.207031zm0 0" fill="#fff3f2"/><path d="m113.214844 273.890625 231.238281-231.238281 6.035156 6.035156-231.238281 231.238281zm0 0" fill="#fff3f2"/><path d="m113.25 273.914062 231.269531-231.269531 6.035157 6.03125-231.269532 231.273438zm0 0" fill="#fff3f2"/><path d="m113.289062 273.949219 231.300782-231.300781 6.035156 6.035156-231.300781 231.300781zm0 0" fill="#fff3f2"/><path d="m113.320312 273.980469 231.335938-231.339844 6.035156 6.035156-231.339844 231.335938zm0 0" fill="#fff3f2"/><path d="m113.34375 274.007812 231.367188-231.367187 6.035156 6.035156-231.367188 231.367188zm0 0" fill="#fff3f2"/><path d="m113.382812 274.046875 231.398438-231.398437 6.03125 6.035156-231.394531 231.394531zm0 0" fill="#fff3f2"/><path d="m388.265625 42.667969-238.933594 238.933593h-28.398437l-7.515625-7.519531 231.414062-231.414062zm0 0" fill="#fff3f2"/><path d="m388.285156 42.667969-238.933594 238.933593h-.019531l238.933594-238.933593zm0 0" fill="#fff3f2"/><path d="m388.292969 42.667969-238.933594 238.933593h-.007813l238.933594-238.933593zm0 0" fill="#faf1f2"/><path d="m388.308594 42.667969-238.933594 238.933593h-.015625l238.933594-238.933593zm0 0" fill="#f6eff2"/><path d="m388.316406 42.667969-238.933594 238.933593h-.007812l238.933594-238.933593zm0 0" fill="#f2edf2"/><path d="m388.335938 42.667969-238.933594 238.933593h-.019532l238.933594-238.933593zm0 0" fill="#eeebf2"/><path d="m388.34375 42.667969-238.933594 238.933593h-.007812l238.933594-238.933593zm0 0" fill="#ebeaf2"/><path d="m388.359375 42.667969-238.933594 238.933593h-.015625l238.933594-238.933593zm0 0" fill="#e8e8f2"/><path d="m388.367188 42.667969-238.929688 238.933593h-.011719l238.933594-238.933593zm0 0" fill="#e5e7f2"/><path d="m388.386719 42.667969-238.933594 238.933593h-.015625l238.929688-238.933593zm0 0" fill="#e3e6f2"/><path d="m388.394531 42.667969-238.933593 238.933593h-.007813l238.933594-238.933593zm0 0" fill="#e1e5f2"/><path d="m388.410156 42.667969-238.933594 238.933593h-.015624l238.933593-238.933593zm0 0" fill="#dfe4f2"/><path d="m388.421875 42.667969-238.933594 238.933593h-.011719l238.933594-238.933593zm0 0" fill="#dde4f2"/><path d="m388.4375 42.667969-238.933594 238.933593h-.015625l238.933594-238.933593zm0 0" fill="#dce3f2"/><path d="m388.453125 42.667969-238.933594 238.933593h-.015625l238.933594-238.933593zm0 0" fill="#dae2f2"/><path d="m388.464844 42.667969-238.933594 238.933593h-.011719l238.933594-238.933593zm0 0" fill="#d9e2f2"/><path d="m388.480469 42.667969-238.933594 238.933593h-.015625l238.933594-238.933593zm0 0" fill="#d8e1f2"/><path d="m388.488281 42.667969-238.933593 238.933593h-.007813l238.933594-238.933593zm0 0" fill="#d7e1f2"/><path d="m388.503906 42.667969-238.929687 238.933593h-.019531l238.933593-238.933593zm0 0" fill="#d7e1f2"/><path d="m388.515625 42.667969-238.933594 238.933593h-.007812l238.929687-238.933593zm0 0" fill="#d6e0f2"/><path d="m388.53125 42.667969-238.933594 238.933593h-.015625l238.933594-238.933593zm0 0" fill="#d5e0f2"/><path d="m388.539062 42.667969-238.933593 238.933593h-.007813l238.933594-238.933593zm0 0" fill="#d5e0f2"/><path d="m388.558594 42.667969-238.933594 238.933593h-.019531l238.933593-238.933593zm0 0" fill="#d5e0f2"/><path d="m388.566406 42.667969-238.933594 238.933593h-.007812l238.933594-238.933593zm0 0" fill="#d4e0f2"/><path d="m388.582031 42.667969-238.933593 238.933593h-.015626l238.933594-238.933593zm0 0" fill="#d4dff2"/><path d="m388.597656 42.667969-238.929687 238.933593h-.019531l238.933593-238.933593zm0 0" fill="#d4dff2"/><path d="m388.609375 42.667969-238.933594 238.933593h-.007812l238.929687-238.933593zm0 0" fill="#d4dff2"/><g fill="#d3dff2"><path d="m388.625 42.667969-238.933594 238.933593h-.015625l238.933594-238.933593zm0 0"/><path d="m388.632812 42.667969-238.933593 238.933593h-.007813l238.933594-238.933593zm0 0"/><path d="m388.652344 42.667969-238.933594 238.933593h-.019531l238.933593-238.933593zm0 0"/><path d="m388.660156 42.667969-238.933594 238.933593h-.007812l238.933594-238.933593zm0 0"/><path d="m388.675781 42.667969-238.933593 238.933593h-.015626l238.933594-238.933593zm0 0"/><path d="m388.683594 42.667969-238.933594 238.933593h-.007812l238.933593-238.933593zm0 0"/><path d="m388.703125 42.667969-238.933594 238.933593h-.019531l238.933594-238.933593zm0 0"/><path d="m388.710938 42.667969-238.933594 238.933593h-.007813l238.933594-238.933593zm0 0"/><path d="m388.726562 42.667969-238.933593 238.933593h-.015625l238.933594-238.933593zm0 0"/><path d="m388.734375 42.667969-238.933594 238.933593h-.007812l238.933593-238.933593zm0 0"/><path d="m388.753906 42.667969-238.933594 238.933593h-.019531l238.933594-238.933593zm0 0"/><path d="m388.769531 42.667969-238.933593 238.933593h-.015626l238.933594-238.933593zm0 0"/><path d="m388.777344 42.667969-238.933594 238.933593h-.007812l238.933593-238.933593zm0 0"/><path d="m388.796875 42.667969-238.933594 238.933593h-.019531l238.933594-238.933593zm0 0"/><path d="m388.804688 42.667969-238.933594 238.933593h-.007813l238.933594-238.933593zm0 0"/><path d="m388.820312 42.667969-238.933593 238.933593h-.015625l238.933594-238.933593zm0 0"/><path d="m388.828125 42.667969-238.929687 238.933593h-.011719l238.933593-238.933593zm0 0"/><path d="m388.847656 42.667969-238.933594 238.933593h-.015624l238.929687-238.933593zm0 0"/><path d="m443.734375 126.105469-155.496094 155.496093h-138.324219l238.933594-238.933593h54.886719zm0 0"/><path d="m443.734375 126.121094-155.476563 155.480468h-.019531l155.496094-155.496093zm0 0"/></g><path d="m443.734375 126.132812-155.46875 155.46875h-.007813l155.476563-155.480468zm0 0" fill="#d4dff2"/><path d="m443.734375 126.148438-155.453125 155.453124h-.015625l155.46875-155.46875zm0 0" fill="#d5e0f2"/><path d="m443.734375 126.15625-155.445313 155.445312h-.007812l155.453125-155.453124zm0 0" fill="#d6e0f2"/><path d="m443.734375 126.175781-155.425781 155.425781h-.019532l155.445313-155.445312zm0 0" fill="#d7e1f2"/><path d="m443.734375 126.183594-155.417969 155.417968h-.007812l155.425781-155.425781zm0 0" fill="#d8e1f2"/><path d="m443.734375 126.199219-155.402344 155.402343h-.015625l155.417969-155.417968zm0 0" fill="#d9e2f2"/><path d="m443.734375 126.207031-155.394531 155.394531h-.007813l155.402344-155.402343zm0 0" fill="#dae2f2"/><path d="m443.734375 126.226562-155.375 155.375h-.019531l155.394531-155.394531zm0 0" fill="#dbe3f2"/><path d="m443.734375 126.234375-155.367187 155.367187h-.007813l155.375-155.375zm0 0" fill="#dce3f2"/><path d="m443.734375 126.25-155.351563 155.351562h-.015624l155.367187-155.367187zm0 0" fill="#dde4f2"/><path d="m443.734375 126.269531-155.332031 155.332031h-.019532l155.351563-155.351562zm0 0" fill="#dee4f2"/><path d="m443.734375 126.277344-155.324219 155.324218h-.007812l155.332031-155.332031zm0 0" fill="#dfe5f2"/><path d="m443.734375 126.292969-155.308594 155.308593h-.015625l155.324219-155.324218zm0 0" fill="#e0e5f2"/><path d="m443.734375 126.300781-155.300781 155.300781h-.007813l155.308594-155.308593zm0 0" fill="#e1e6f2"/><path d="m443.734375 126.320312-155.28125 155.28125h-.019531l155.300781-155.300781zm0 0" fill="#e2e6f2"/><path d="m443.734375 126.328125-155.273437 155.273437h-.007813l155.28125-155.28125zm0 0" fill="#e3e6f2"/><path d="m443.734375 126.34375-155.257813 155.257812h-.015624l155.273437-155.273437zm0 0" fill="#e4e7f2"/><path d="m443.734375 126.351562-155.246094 155.25h-.011719l155.257813-155.257812zm0 0" fill="#e5e7f2"/><path d="m443.734375 126.371094-155.230469 155.230468h-.015625l155.246094-155.25zm0 0" fill="#e6e8f2"/><path d="m443.734375 126.378906-155.222656 155.222656h-.007813l155.230469-155.230468zm0 0" fill="#e7e8f2"/><path d="m443.734375 126.394531-155.207031 155.207031h-.015625l155.222656-155.222656zm0 0" fill="#e8e9f2"/><path d="m443.734375 126.402344-155.195313 155.199218h-.011718l155.207031-155.207031zm0 0" fill="#eae9f2"/><path d="m443.734375 126.421875-155.179687 155.179687h-.015626l155.195313-155.199218zm0 0" fill="#ebeaf2"/><path d="m443.734375 126.4375-155.164063 155.164062h-.015624l155.179687-155.179687zm0 0" fill="#eceaf2"/><path d="m443.734375 126.445312-155.152344 155.15625h-.011719l155.164063-155.164062zm0 0" fill="#edebf2"/><path d="m443.734375 126.464844-155.136719 155.136718h-.015625l155.152344-155.15625zm0 0" fill="#eeebf2"/><path d="m443.734375 126.472656-155.128906 155.128906h-.007813l155.136719-155.136718zm0 0" fill="#efecf2"/><path d="m443.734375 126.488281-155.113281 155.113281h-.015625l155.128906-155.128906zm0 0" fill="#f0ecf2"/><path d="m443.734375 126.5-155.101563 155.101562h-.011718l155.113281-155.113281zm0 0" fill="#f1ecf2"/><path d="m443.734375 126.515625-155.085937 155.085937h-.015626l155.101563-155.101562zm0 0" fill="#f2edf2"/><path d="m443.734375 126.523438-155.078125 155.078124h-.007812l155.085937-155.085937zm0 0" fill="#f3edf2"/><path d="m443.734375 126.539062-155.058594 155.0625h-.019531l155.078125-155.078124zm0 0" fill="#f4eef2"/><path d="m443.734375 126.550781-155.050781 155.050781h-.007813l155.058594-155.0625zm0 0" fill="#f5eef2"/><path d="m443.734375 126.566406-155.035156 155.035156h-.015625l155.050781-155.050781zm0 0" fill="#f6eff2"/><path d="m443.734375 126.582031-155.015625 155.019531h-.019531l155.035156-155.035156zm0 0" fill="#f7eff2"/><path d="m443.734375 126.59375-155.007813 155.007812h-.007812l155.015625-155.019531zm0 0" fill="#f8f0f2"/><path d="m443.734375 126.609375-154.992187 154.992187h-.015626l155.007813-155.007812zm0 0" fill="#f9f0f2"/><path d="m443.734375 126.617188-154.984375 154.984374h-.007812l154.992187-154.992187zm0 0" fill="#faf1f2"/><path d="m443.734375 126.632812-154.964844 154.96875h-.019531l154.984375-154.984374zm0 0" fill="#fbf1f2"/><path d="m443.734375 126.644531-154.957031 154.957031h-.007813l154.964844-154.96875zm0 0" fill="#fcf2f2"/><path d="m443.734375 126.660156-154.941406 154.941406h-.015625l154.957031-154.957031zm0 0" fill="#fdf2f2"/><path d="m443.734375 126.667969-154.933594 154.933593h-.007812l154.941406-154.941406zm0 0" fill="#fef3f2"/><path d="m443.734375 126.6875-154.914063 154.914062h-.019531l154.933594-154.933593zm0 0" fill="#fff3f2"/><path d="m443.734375 189.773438-91.828125 91.828124h-63.085938l154.914063-154.914062zm0 0" fill="#fff3f2"/><path d="m443.734375 189.78125-91.820313 91.820312h-.007812l91.828125-91.828124zm0 0" fill="#fff3f2"/><path d="m443.734375 189.796875-91.800781 91.804687h-.019532l91.820313-91.820312zm0 0" fill="#fef3f2"/><path d="m443.734375 189.808594-91.792969 91.792968h-.007812l91.800781-91.804687zm0 0" fill="#fdf2f2"/><path d="m443.734375 189.824219-91.777344 91.777343h-.015625l91.792969-91.792968zm0 0" fill="#fcf2f2"/><path d="m443.734375 189.832031-91.769531 91.769531h-.007813l91.777344-91.777343zm0 0" fill="#fbf1f2"/><path d="m443.734375 189.847656-91.75 91.753906h-.019531l91.769531-91.769531zm0 0" fill="#faf1f2"/><path d="m443.734375 189.867188-91.734375 91.734374h-.015625l91.75-91.753906zm0 0" fill="#f9f0f2"/><path d="m443.734375 189.875-91.726563 91.726562h-.007812l91.734375-91.734374zm0 0" fill="#f8f0f2"/><path d="m443.734375 189.890625-91.707031 91.710937h-.019532l91.726563-91.726562zm0 0" fill="#f7eff2"/><path d="m443.734375 189.902344-91.699219 91.699218h-.007812l91.707031-91.710937zm0 0" fill="#f6eff2"/><path d="m443.734375 189.917969-91.683594 91.683593h-.015625l91.699219-91.699218zm0 0" fill="#f5eef2"/><path d="m443.734375 189.925781-91.675781 91.675781h-.007813l91.683594-91.683593zm0 0" fill="#f4eef2"/><path d="m443.734375 189.945312-91.65625 91.65625h-.019531l91.675781-91.675781zm0 0" fill="#f3edf2"/><path d="m443.734375 189.953125-91.648437 91.648437h-.007813l91.65625-91.65625zm0 0" fill="#f2edf2"/><path d="m443.734375 189.96875-91.632813 91.632812h-.015624l91.648437-91.648437zm0 0" fill="#f1ecf2"/><path d="m443.734375 189.976562-91.625 91.625h-.007813l91.632813-91.632812zm0 0" fill="#f0ecf2"/><path d="m443.734375 189.996094-91.605469 91.605468h-.019531l91.625-91.625zm0 0" fill="#efecf2"/><path d="m443.734375 190.011719-91.589844 91.589843h-.015625l91.605469-91.605468zm0 0" fill="#eeebf2"/><path d="m443.734375 190.019531-91.582031 91.582031h-.007813l91.589844-91.589843zm0 0" fill="#edebf2"/><path d="m443.734375 190.039062-91.5625 91.5625h-.019531l91.582031-91.582031zm0 0" fill="#eceaf2"/><path d="m443.734375 190.046875-91.554687 91.554687h-.007813l91.5625-91.5625zm0 0" fill="#ebeaf2"/><path d="m443.734375 190.0625-91.539063 91.539062h-.015624l91.554687-91.554687zm0 0" fill="#eae9f2"/><path d="m443.734375 190.070312-91.53125 91.53125h-.007813l91.539063-91.539062zm0 0" fill="#e8e9f2"/><path d="m443.734375 190.089844-91.511719 91.511718h-.019531l91.53125-91.53125zm0 0" fill="#e7e8f2"/><path d="m443.734375 190.097656-91.503906 91.503906h-.007813l91.511719-91.511718zm0 0" fill="#e6e8f2"/><path d="m443.734375 190.113281-91.488281 91.488281h-.015625l91.503906-91.503906zm0 0" fill="#e5e7f2"/><path d="m443.734375 190.121094-91.476563 91.480468h-.011718l91.488281-91.488281zm0 0" fill="#e4e7f2"/><path d="m443.734375 190.140625-91.460937 91.460937h-.015626l91.476563-91.480468zm0 0" fill="#e3e6f2"/><path d="m443.734375 190.148438-91.453125 91.453124h-.007812l91.460937-91.460937zm0 0" fill="#e2e6f2"/><path d="m443.734375 190.164062-91.4375 91.4375h-.015625l91.453125-91.453124zm0 0" fill="#e1e6f2"/><path d="m443.734375 190.183594-91.417969 91.417968h-.019531l91.4375-91.4375zm0 0" fill="#e0e5f2"/><path d="m443.734375 190.191406-91.410156 91.410156h-.007813l91.417969-91.417968zm0 0" fill="#dfe5f2"/><path d="m443.734375 190.207031-91.394531 91.394531h-.015625l91.410156-91.410156zm0 0" fill="#dee4f2"/><path d="m443.734375 190.214844-91.382813 91.386718h-.011718l91.394531-91.394531zm0 0" fill="#dde4f2"/><path d="m443.734375 190.234375-91.367187 91.367187h-.015626l91.382813-91.386718zm0 0" fill="#dce3f2"/><path d="m443.734375 190.242188-91.359375 91.359374h-.007812l91.367187-91.367187zm0 0" fill="#dbe3f2"/><path d="m443.734375 190.257812-91.34375 91.34375h-.015625l91.359375-91.359374zm0 0" fill="#dae2f2"/><path d="m443.734375 190.269531-91.332031 91.332031h-.011719l91.34375-91.34375zm0 0" fill="#d9e2f2"/><path d="m443.734375 190.285156-91.316406 91.316406h-.015625l91.332031-91.332031zm0 0" fill="#d8e1f2"/><path d="m443.734375 190.292969-91.308594 91.308593h-.007812l91.316406-91.316406zm0 0" fill="#d7e1f2"/><path d="m443.734375 190.308594-91.289063 91.292968h-.019531l91.308594-91.308593zm0 0" fill="#d6e0f2"/><path d="m443.734375 190.328125-91.273437 91.273437h-.015626l91.289063-91.292968zm0 0" fill="#d5e0f2"/><path d="m443.734375 190.335938-91.265625 91.265624h-.007812l91.273437-91.273437zm0 0" fill="#d4dff2"/><path d="m443.734375 190.351562-91.246094 91.25h-.019531l91.265625-91.265624zm0 0" fill="#d3dff2"/><path d="m352.488281 281.601562 91.246094-91.25v91.25zm0 0" fill="#d3dff2"/><path d="m366.933594 418.132812v8.535157c0 4.710937-3.820313 8.53125-8.535156 8.53125h-153.597657c-4.714843 0-8.535156-3.820313-8.535156-8.53125v-8.535157c0-18.851562 15.28125-34.132812 34.132813-34.132812h102.402343c18.851563 0 34.132813 15.28125 34.132813 34.132812zm0 0" fill="#cad9fc"/><path d="m341.332031 418.132812v8.535157c0 4.710937-3.820312 8.53125-8.53125 8.53125h-128c-4.714843 0-8.535156-3.820313-8.535156-8.53125v-8.535157c0-18.851562 15.28125-34.132812 34.132813-34.132812h76.800781c18.851562 0 34.132812 15.28125 34.132812 34.132812zm0 0" fill="#e8edfc"/><path d="m25.601562 230.398438h119.464844c9.425782 0 17.066406 7.640624 17.066406 17.066406v238.933594c0 9.425781-7.640624 17.066406-17.066406 17.066406h-119.464844c-9.425781 0-17.066406-7.640625-17.066406-17.066406v-238.933594c0-9.425782 7.640625-17.066406 17.066406-17.066406zm0 0" fill="#cad9fc"/><path d="m25.601562 230.398438h93.863282c9.425781 0 17.070312 7.640624 17.070312 17.066406v238.933594c0 9.425781-7.644531 17.066406-17.070312 17.066406h-93.863282c-9.425781 0-17.066406-7.640625-17.066406-17.066406v-238.933594c0-9.425782 7.640625-17.066406 17.066406-17.066406zm0 0" fill="#e8edfc"/><path d="m8.535156 264.535156h153.597656v187.730469h-153.597656zm0 0" fill="#cad9fc"/><path d="m71.679688 264.535156-63.144532 63.144532zm0 0" fill="#d3dff2"/><path d="m71.714844 264.535156-63.179688 63.179688v-.035156l63.144532-63.144532zm0 0" fill="#d3dff2"/><path d="m71.75 264.535156-63.214844 63.214844v-.035156l63.179688-63.179688zm0 0" fill="#d8e1f2"/><path d="m71.78125 264.535156-63.246094 63.246094v-.03125l63.214844-63.214844zm0 0" fill="#dce3f2"/><path d="m71.824219 264.535156-63.289063 63.289063v-.042969l63.246094-63.246094zm0 0" fill="#e0e5f2"/><path d="m71.859375 264.535156-63.324219 63.324219v-.035156l63.289063-63.289063zm0 0" fill="#e4e7f2"/><path d="m71.894531 264.535156-63.359375 63.359375v-.035156l63.324219-63.324219zm0 0" fill="#e7e8f2"/><path d="m71.925781 264.535156-63.390625 63.390625v-.03125l63.359375-63.359375zm0 0" fill="#eaeaf2"/><path d="m71.960938 264.535156-63.425782 63.425782v-.035157l63.390625-63.390625zm0 0" fill="#edebf2"/><path d="m71.996094 264.535156-63.460938 63.460938v-.035156l63.425782-63.425782zm0 0" fill="#efecf2"/><path d="m72.039062 264.535156-63.503906 63.503906v-.042968l63.460938-63.460938zm0 0" fill="#f1edf2"/><path d="m72.074219 264.535156-63.539063 63.539063v-.035157l63.503906-63.503906zm0 0" fill="#f3eef2"/><path d="m72.105469 264.535156-63.570313 63.570313v-.03125l63.539063-63.539063zm0 0" fill="#f5eef2"/><path d="m72.140625 264.535156-63.605469 63.605469v-.035156l63.570313-63.570313zm0 0" fill="#f6eff2"/><path d="m72.175781 264.535156-63.640625 63.640625v-.035156l63.605469-63.605469zm0 0" fill="#f8f0f2"/><path d="m72.210938 264.535156-63.675782 63.675782v-.035157l63.640625-63.640625zm0 0" fill="#f9f0f2"/><path d="m72.25 264.535156-63.714844 63.714844v-.039062l63.675782-63.675782zm0 0" fill="#faf1f2"/><path d="m72.285156 264.535156-63.75 63.75v-.035156l63.714844-63.714844zm0 0" fill="#fbf1f2"/><path d="m72.320312 264.535156-63.785156 63.785156v-.035156l63.75-63.75zm0 0" fill="#fbf1f2"/><path d="m72.355469 264.535156-63.820313 63.820313v-.035157l63.785156-63.785156zm0 0" fill="#fcf2f2"/><path d="m72.386719 264.535156-63.851563 63.851563v-.03125l63.820313-63.820313zm0 0" fill="#fdf2f2"/><path d="m72.421875 264.535156-63.886719 63.886719v-.035156l63.851563-63.851563zm0 0" fill="#fdf2f2"/><path d="m72.464844 264.535156-63.929688 63.929688v-.042969l63.886719-63.886719zm0 0" fill="#fdf2f2"/><path d="m72.5 264.535156-63.964844 63.964844v-.035156l63.929688-63.929688zm0 0" fill="#fef2f2"/><path d="m72.535156 264.535156-64 64v-.035156l63.964844-63.964844zm0 0" fill="#fef3f2"/><path d="m72.566406 264.535156-64.03125 64.03125v-.03125l64-64zm0 0" fill="#fef3f2"/><path d="m72.601562 264.535156-64.066406 64.066406v-.035156l64.03125-64.03125zm0 0" fill="#fef3f2"/><path d="m72.636719 264.535156-64.101563 64.101563v-.035157l64.066406-64.066406zm0 0" fill="#fff3f2"/><path d="m72.679688 264.535156-64.144532 64.144532v-.042969l64.101563-64.101563zm0 0" fill="#fff3f2"/><path d="m72.710938 264.535156-64.175782 64.175782v-.03125l64.144532-64.144532zm0 0" fill="#fff3f2"/><path d="m72.746094 264.535156-64.210938 64.210938v-.035156l64.175782-64.175782zm0 0" fill="#fff3f2"/><path d="m72.78125 264.535156-64.246094 64.246094v-.035156l64.210938-64.210938zm0 0" fill="#fff3f2"/><path d="m72.816406 264.535156-64.28125 64.28125v-.035156l64.246094-64.246094zm0 0" fill="#fff3f2"/><path d="m72.847656 264.535156-64.3125 64.3125v-.03125l64.28125-64.28125zm0 0" fill="#fff3f2"/><path d="m72.890625 264.535156-64.355469 64.355469v-.042969l64.3125-64.3125zm0 0" fill="#fff3f2"/><path d="m72.925781 264.535156-64.390625 64.390625v-.035156l64.355469-64.355469zm0 0" fill="#fff3f2"/><path d="m72.960938 264.535156-64.425782 64.425782v-.035157l64.390625-64.390625zm0 0" fill="#fff3f2"/><path d="m72.992188 264.535156-64.457032 64.457032v-.03125l64.425782-64.425782zm0 0" fill="#fff3f2"/><path d="m73.027344 264.535156-64.492188 64.492188v-.035156l64.457032-64.457032zm0 0" fill="#fff3f2"/><path d="m73.0625 264.535156-64.527344 64.527344v-.035156l64.492188-64.492188zm0 0" fill="#fff3f2"/><path d="m73.105469 264.535156-64.570313 64.570313v-.042969l64.527344-64.527344zm0 0" fill="#fff3f2"/><path d="m73.140625 264.535156-64.605469 64.605469v-.035156l64.570313-64.570313zm0 0" fill="#fff3f2"/><path d="m73.171875 264.535156-64.636719 64.636719v-.03125l64.605469-64.605469zm0 0" fill="#fff3f2"/><path d="m73.207031 264.535156-64.671875 64.671875v-.035156l64.636719-64.636719zm0 0" fill="#fff3f2"/><path d="m73.242188 264.535156-64.707032 64.707032v-.035157l64.671875-64.671875zm0 0" fill="#fff3f2"/><path d="m90.625 264.535156-82.089844 82.089844v-17.382812l64.707032-64.707032zm0 0" fill="#fff3f2"/><path d="m90.625 264.535156-82.089844 82.089844zm0 0" fill="#fff3f2"/><path d="m90.625 264.535156-82.089844 82.089844zm0 0" fill="#fef3f2"/><path d="m90.625 264.535156-82.089844 82.089844zm0 0" fill="#fdf2f2"/><path d="m90.625 264.535156-82.089844 82.089844zm0 0" fill="#fcf2f2"/><path d="m90.625 264.535156-82.089844 82.089844zm0 0" fill="#fbf1f2"/><path d="m90.625 264.535156-82.089844 82.089844zm0 0" fill="#faf1f2"/><path d="m90.625 264.535156-82.089844 82.089844zm0 0" fill="#f9f0f2"/><path d="m90.625 264.535156-82.089844 82.089844zm0 0" fill="#f8f0f2"/><path d="m90.625 264.535156-82.089844 82.089844zm0 0" fill="#f7eff2"/><path d="m90.625 264.535156-82.089844 82.089844zm0 0" fill="#f6eff2"/><path d="m90.625 264.535156-82.089844 82.089844zm0 0" fill="#f5eef2"/><path d="m90.625 264.535156-82.089844 82.089844zm0 0" fill="#f4eef2"/><path d="m90.625 264.535156-82.089844 82.089844zm0 0" fill="#f3edf2"/><path d="m90.625 264.535156-82.089844 82.089844zm0 0" fill="#f2edf2"/><path d="m90.625 264.535156-82.089844 82.089844zm0 0" fill="#f1ecf2"/><path d="m90.625 264.535156-82.089844 82.089844zm0 0" fill="#f0ecf2"/><path d="m90.625 264.535156-82.089844 82.089844zm0 0" fill="#efecf2"/><path d="m90.625 264.535156-82.089844 82.089844zm0 0" fill="#eeebf2"/><path d="m90.625 264.535156-82.089844 82.089844zm0 0" fill="#edebf2"/><path d="m90.625 264.535156-82.089844 82.089844zm0 0" fill="#eceaf2"/><path d="m90.625 264.535156-82.089844 82.089844zm0 0" fill="#ebeaf2"/><path d="m90.625 264.535156-82.089844 82.089844zm0 0" fill="#eae9f2"/><path d="m90.625 264.535156-82.089844 82.089844zm0 0" fill="#e8e9f2"/><path d="m90.625 264.535156-82.089844 82.089844zm0 0" fill="#e7e8f2"/><path d="m90.625 264.535156-82.089844 82.089844zm0 0" fill="#e6e8f2"/><path d="m90.625 264.535156-82.089844 82.089844zm0 0" fill="#e5e7f2"/><path d="m90.625 264.535156-82.089844 82.089844zm0 0" fill="#e4e7f2"/><path d="m90.625 264.535156-82.089844 82.089844zm0 0" fill="#e3e6f2"/><path d="m90.625 264.535156-82.089844 82.089844zm0 0" fill="#e2e6f2"/><path d="m90.625 264.535156-82.089844 82.089844zm0 0" fill="#e1e6f2"/><path d="m90.625 264.535156-82.089844 82.089844zm0 0" fill="#e0e5f2"/><path d="m90.625 264.535156-82.089844 82.089844zm0 0" fill="#dfe5f2"/><path d="m90.625 264.535156-82.089844 82.089844zm0 0" fill="#dee4f2"/><path d="m90.625 264.535156-82.089844 82.089844zm0 0" fill="#dde4f2"/><path d="m90.625 264.535156-82.089844 82.089844zm0 0" fill="#dce3f2"/><path d="m90.625 264.535156-82.089844 82.089844zm0 0" fill="#dbe3f2"/><path d="m90.625 264.535156-82.089844 82.089844zm0 0" fill="#dae2f2"/><path d="m90.625 264.535156-82.089844 82.089844zm0 0" fill="#d9e2f2"/><path d="m90.625 264.535156-82.089844 82.089844zm0 0" fill="#d8e1f2"/><path d="m90.625 264.535156-82.089844 82.089844zm0 0" fill="#d7e1f2"/><path d="m90.625 264.535156-82.089844 82.089844zm0 0" fill="#d6e0f2"/><path d="m90.625 264.535156-82.089844 82.089844zm0 0" fill="#d5e0f2"/><path d="m90.625 264.535156-82.089844 82.089844zm0 0" fill="#d4dff2"/><path d="m90.625 264.535156-82.089844 82.089844zm0 0" fill="#d3dff2"/><path d="m136.535156 269.140625-128 128v-50.515625l82.089844-82.089844h45.910156zm0 0" fill="#d3dff2"/><path d="m136.535156 269.175781-128 128v-.035156l128-128zm0 0" fill="#d3dff2"/><path d="m136.535156 269.210938-128 128v-.035157l128-128zm0 0" fill="#d8e1f2"/><path d="m136.535156 269.242188-128 128v-.03125l128-128zm0 0" fill="#dce3f2"/><path d="m136.535156 269.285156-128 128v-.042968l128-128zm0 0" fill="#e0e5f2"/><path d="m136.535156 269.320312-128 128v-.035156l128-128zm0 0" fill="#e4e7f2"/><path d="m136.535156 269.355469-128 128v-.035157l128-128zm0 0" fill="#e7e8f2"/><path d="m136.535156 269.390625-128 128v-.035156l128-128zm0 0" fill="#eaeaf2"/><path d="m136.535156 269.421875-128 128v-.03125l128-128zm0 0" fill="#edebf2"/><path d="m136.535156 269.457031-128 128v-.035156l128-128zm0 0" fill="#efecf2"/><path d="m136.535156 269.5-128 128v-.042969l128-128zm0 0" fill="#f1edf2"/><path d="m136.535156 269.535156-128 128v-.035156l128-128zm0 0" fill="#f3eef2"/><path d="m136.535156 269.566406-128 128v-.03125l128-128zm0 0" fill="#f5eef2"/><path d="m136.535156 269.601562-128 128v-.035156l128-128zm0 0" fill="#f6eff2"/><path d="m136.535156 269.636719-128 128v-.035157l128-128zm0 0" fill="#f8f0f2"/><path d="m136.535156 269.671875-128 128v-.035156l128-128zm0 0" fill="#f9f0f2"/><path d="m136.535156 269.714844-128 128v-.042969l128-128zm0 0" fill="#faf1f2"/><path d="m136.535156 269.746094-128 128v-.03125l128-128zm0 0" fill="#fbf1f2"/><path d="m136.535156 269.78125-128 128v-.035156l128-128zm0 0" fill="#fbf1f2"/><path d="m136.535156 269.816406-128 128v-.035156l128-128zm0 0" fill="#fcf2f2"/><path d="m136.535156 269.847656-128 128v-.03125l128-128zm0 0" fill="#fdf2f2"/><path d="m136.535156 269.882812-128 128v-.035156l128-128zm0 0" fill="#fdf2f2"/><path d="m136.535156 269.925781-128 128v-.042969l128-128zm0 0" fill="#fdf2f2"/><path d="m136.535156 269.960938-128 128v-.035157l128-128zm0 0" fill="#fef2f2"/><path d="m136.535156 269.996094-128 128v-.035156l128-128zm0 0" fill="#fef3f2"/><path d="m136.535156 270.027344-128 128v-.03125l128-128zm0 0" fill="#fef3f2"/><path d="m136.535156 270.0625-128 128v-.035156l128-128zm0 0" fill="#fef3f2"/><path d="m136.535156 270.097656-128 128v-.035156l128-128zm0 0" fill="#fff3f2"/><path d="m136.535156 270.140625-128 128v-.042969l128-128zm0 0" fill="#fff3f2"/><path d="m136.535156 270.175781-128 128v-.035156l128-128zm0 0" fill="#fff3f2"/><path d="m136.535156 270.207031-128 128v-.03125l128-128zm0 0" fill="#fff3f2"/><path d="m136.535156 270.242188-128 128v-.035157l128-128zm0 0" fill="#fff3f2"/><path d="m136.535156 270.277344-128 128v-.035156l128-128zm0 0" fill="#fff3f2"/><path d="m136.535156 270.308594-128 128v-.03125l128-128zm0 0" fill="#fff3f2"/><path d="m136.535156 270.351562-128 128v-.042968l128-128zm0 0" fill="#fff3f2"/><path d="m136.535156 270.386719-128 128v-.035157l128-128zm0 0" fill="#fff3f2"/><path d="m136.535156 270.421875-128 128v-.035156l128-128zm0 0" fill="#fff3f2"/><path d="m136.535156 270.457031-128 128v-.035156l128-128zm0 0" fill="#fff3f2"/><path d="m136.535156 270.488281-128 128v-.03125l128-128zm0 0" fill="#fff3f2"/><path d="m136.535156 270.523438-128 128v-.035157l128-128zm0 0" fill="#fff3f2"/><path d="m136.535156 270.566406-128 128v-.042968l128-128zm0 0" fill="#fff3f2"/><path d="m136.535156 270.601562-128 128v-.035156l128-128zm0 0" fill="#fff3f2"/><path d="m136.535156 270.632812-128 128v-.03125l128-128zm0 0" fill="#fff3f2"/><path d="m136.535156 270.667969-128 128v-.035157l128-128zm0 0" fill="#fff3f2"/><path d="m136.535156 270.703125-128 128v-.035156l128-128zm0 0" fill="#fff3f2"/><path d="m136.535156 294.398438-128 128v-23.695313l128-128zm0 0" fill="#fff3f2"/><path d="m136.535156 294.410156-128 128v-.011718l128-128zm0 0" fill="#fff3f2"/><path d="m136.535156 294.417969-128 128v-.007813l128-128zm0 0" fill="#faf1f2"/><path d="m136.535156 294.425781-128 128v-.007812l128-128zm0 0" fill="#f6eff2"/><path d="m136.535156 294.425781-128 128zm0 0" fill="#f2edf2"/><path d="m136.535156 294.433594-128 128v-.007813l128-128zm0 0" fill="#eeebf2"/><path d="m136.535156 294.441406-128 128v-.007812l128-128zm0 0" fill="#ebeaf2"/><path d="m136.535156 294.453125-128 128v-.011719l128-128zm0 0" fill="#e8e8f2"/><path d="m136.535156 294.460938-128 128v-.007813l128-128zm0 0" fill="#e5e7f2"/><path d="m136.535156 294.46875-128 128v-.007812l128-128zm0 0" fill="#e3e6f2"/><path d="m136.535156 294.46875-128 128zm0 0" fill="#e1e5f2"/><path d="m136.535156 294.476562-128 128v-.007812l128-128zm0 0" fill="#dfe4f2"/><path d="m136.535156 294.484375-128 128v-.007813l128-128zm0 0" fill="#dde4f2"/><path d="m136.535156 294.492188-128 128v-.007813l128-128zm0 0" fill="#dce3f2"/><path d="m136.535156 294.503906-128 128v-.011718l128-128zm0 0" fill="#dae2f2"/><path d="m136.535156 294.511719-128 128v-.007813l128-128zm0 0" fill="#d9e2f2"/><path d="m136.535156 294.511719-128 128zm0 0" fill="#d8e1f2"/><path d="m136.535156 294.519531-128 128v-.007812l128-128zm0 0" fill="#d7e1f2"/><path d="m136.535156 294.527344-128 128v-.007813l128-128zm0 0" fill="#d7e1f2"/><path d="m136.535156 294.535156-128 128v-.007812l128-128zm0 0" fill="#d6e0f2"/><path d="m136.535156 294.546875-128 128v-.011719l128-128zm0 0" fill="#d5e0f2"/><path d="m136.535156 294.554688-128 128v-.007813l128-128zm0 0" fill="#d5e0f2"/><path d="m136.535156 294.5625-128 128v-.007812l128-128zm0 0" fill="#d5e0f2"/><path d="m136.535156 294.5625-128 128zm0 0" fill="#d4e0f2"/><path d="m136.535156 294.570312-128 128v-.007812l128-128zm0 0" fill="#d4dff2"/><path d="m136.535156 294.578125-128 128v-.007813l128-128zm0 0" fill="#d4dff2"/><path d="m136.535156 294.585938-128 128v-.007813l128-128zm0 0" fill="#d4dff2"/><path d="m136.535156 294.597656-128 128v-.011718l128-128zm0 0" fill="#d3dff2"/><path d="m136.535156 294.605469-128 128v-.007813l128-128zm0 0" fill="#d3dff2"/><path d="m136.535156 294.605469-128 128zm0 0" fill="#d3dff2"/><path d="m136.535156 294.613281-128 128v-.007812l128-128zm0 0" fill="#d3dff2"/><path d="m136.535156 294.621094-128 128v-.007813l128-128zm0 0" fill="#d3dff2"/><path d="m136.535156 294.628906-128 128v-.007812l128-128zm0 0" fill="#d3dff2"/><path d="m136.535156 294.640625-128 128v-.011719l128-128zm0 0" fill="#d3dff2"/><path d="m136.535156 294.648438-128 128v-.007813l128-128zm0 0" fill="#d3dff2"/><path d="m136.535156 294.648438-128 128zm0 0" fill="#d3dff2"/><path d="m136.535156 294.65625-128 128v-.007812l128-128zm0 0" fill="#d3dff2"/><path d="m136.535156 294.664062-128 128v-.007812l128-128zm0 0" fill="#d3dff2"/><path d="m136.535156 294.671875-128 128v-.007813l128-128zm0 0" fill="#d3dff2"/><path d="m136.535156 294.679688-128 128v-.007813l128-128zm0 0" fill="#d3dff2"/><path d="m136.535156 294.691406-128 128v-.011718l128-128zm0 0" fill="#d3dff2"/><path d="m136.535156 294.691406-128 128zm0 0" fill="#d3dff2"/><path d="m136.535156 294.699219-128 128v-.007813l128-128zm0 0" fill="#d3dff2"/><path d="m136.535156 294.707031-128 128v-.007812l128-128zm0 0" fill="#d3dff2"/><path d="m136.535156 294.714844-128 128v-.007813l128-128zm0 0" fill="#d3dff2"/><path d="m136.535156 370.175781-82.09375 82.089844h-45.90625v-29.550781l128-128zm0 0" fill="#d3dff2"/><path d="m136.535156 370.183594-82.082031 82.082031h-.011719l82.09375-82.089844zm0 0" fill="#d3dff2"/><path d="m136.535156 370.191406-82.074218 82.074219h-.007813l82.082031-82.082031zm0 0" fill="#d4dff2"/><path d="m136.535156 370.203125-82.066406 82.0625h-.007812l82.074218-82.074219zm0 0" fill="#d5e0f2"/><path d="m136.535156 370.203125-82.066406 82.0625zm0 0" fill="#d6e0f2"/><path d="m136.535156 370.210938-82.058594 82.054687h-.007812l82.066406-82.0625zm0 0" fill="#d7e1f2"/><path d="m136.535156 370.21875-82.050781 82.046875h-.007813l82.058594-82.054687zm0 0" fill="#d8e1f2"/><path d="m136.535156 370.226562-82.042968 82.039063h-.007813l82.050781-82.046875zm0 0" fill="#d9e2f2"/><path d="m136.535156 370.234375-82.03125 82.03125h-.011718l82.042968-82.039063zm0 0" fill="#dae2f2"/><path d="m136.535156 370.246094-82.023437 82.019531h-.007813l82.03125-82.03125zm0 0" fill="#dbe3f2"/><path d="m136.535156 370.246094-82.023437 82.019531zm0 0" fill="#dce3f2"/><path d="m136.535156 370.253906-82.015625 82.011719h-.007812l82.023437-82.019531zm0 0" fill="#dde4f2"/><path d="m136.535156 370.261719-82.007812 82.003906h-.007813l82.015625-82.011719zm0 0" fill="#dee4f2"/><path d="m136.535156 370.269531-82 81.996094h-.007812l82.007812-82.003906zm0 0" fill="#dfe5f2"/><path d="m136.535156 370.277344-81.988281 81.988281h-.011719l82-81.996094zm0 0" fill="#e0e5f2"/><path d="m136.535156 370.285156-81.980468 81.980469h-.007813l81.988281-81.988281zm0 0" fill="#e1e6f2"/><path d="m136.535156 370.285156-81.980468 81.980469zm0 0" fill="#e2e6f2"/><path d="m136.535156 370.296875-81.972656 81.96875h-.007812l81.980468-81.980469zm0 0" fill="#e3e6f2"/><path d="m136.535156 370.304688-81.964844 81.960937h-.007812l81.972656-81.96875zm0 0" fill="#e4e7f2"/><path d="m136.535156 370.3125-81.957031 81.953125h-.007813l81.964844-81.960937zm0 0" fill="#e5e7f2"/><path d="m136.535156 370.320312-81.949218 81.945313h-.007813l81.957031-81.953125zm0 0" fill="#e6e8f2"/><path d="m136.535156 370.328125-81.9375 81.9375h-.011718l81.949218-81.945313zm0 0" fill="#e7e8f2"/><path d="m136.535156 370.339844-81.929687 81.925781h-.007813l81.9375-81.9375zm0 0" fill="#e8e9f2"/><path d="m136.535156 370.339844-81.929687 81.925781zm0 0" fill="#eae9f2"/><path d="m136.535156 370.347656-81.921875 81.917969h-.007812l81.929687-81.925781zm0 0" fill="#ebeaf2"/><path d="m136.535156 370.355469-81.914062 81.910156h-.007813l81.921875-81.917969zm0 0" fill="#eceaf2"/><path d="m136.535156 370.363281-81.90625 81.902344h-.007812l81.914062-81.910156zm0 0" fill="#edebf2"/><path d="m136.535156 370.371094-81.894531 81.894531h-.011719l81.90625-81.902344zm0 0" fill="#eeebf2"/><path d="m136.535156 370.378906-81.886718 81.886719h-.007813l81.894531-81.894531zm0 0" fill="#efecf2"/><path d="m136.535156 370.378906-81.886718 81.886719zm0 0" fill="#f0ecf2"/><path d="m136.535156 370.390625-81.878906 81.875h-.007812l81.886718-81.886719zm0 0" fill="#f1ecf2"/><path d="m136.535156 370.398438-81.871094 81.867187h-.007812l81.878906-81.875zm0 0" fill="#f2edf2"/><path d="m136.535156 370.40625-81.863281 81.859375h-.007813l81.871094-81.867187zm0 0" fill="#f3edf2"/><path d="m136.535156 370.414062-81.855468 81.851563h-.007813l81.863281-81.859375zm0 0" fill="#f4eef2"/><path d="m136.535156 370.421875-81.84375 81.84375h-.011718l81.855468-81.851563zm0 0" fill="#f5eef2"/><path d="m136.535156 370.421875-81.84375 81.84375zm0 0" fill="#f6eff2"/><path d="m136.535156 370.433594-81.835937 81.832031h-.007813l81.84375-81.84375zm0 0" fill="#f7eff2"/><path d="m136.535156 370.441406-81.828125 81.824219h-.007812l81.835937-81.832031zm0 0" fill="#f8f0f2"/><path d="m136.535156 370.449219-81.820312 81.816406h-.007813l81.828125-81.824219zm0 0" fill="#f9f0f2"/><path d="m136.535156 370.457031-81.8125 81.808594h-.007812l81.820312-81.816406zm0 0" fill="#faf1f2"/><path d="m136.535156 370.464844-81.800781 81.800781h-.011719l81.8125-81.808594zm0 0" fill="#fbf1f2"/><path d="m136.535156 370.464844-81.800781 81.800781zm0 0" fill="#fcf2f2"/><path d="m136.535156 370.476562-81.792968 81.789063h-.007813l81.800781-81.800781zm0 0" fill="#fdf2f2"/><path d="m136.535156 370.484375-81.785156 81.78125h-.007812l81.792968-81.789063zm0 0" fill="#fef3f2"/><path d="m136.535156 370.492188-81.777344 81.773437h-.007812l81.785156-81.78125zm0 0" fill="#fff3f2"/><path d="m136.535156 404.90625-47.363281 47.359375h-34.414063l81.777344-81.773437zm0 0" fill="#fff3f2"/><path d="m136.535156 404.914062-47.351562 47.351563h-.011719l47.363281-47.359375zm0 0" fill="#fff3f2"/><path d="m136.535156 404.921875-47.34375 47.34375h-.007812l47.351562-47.351563zm0 0" fill="#fef3f2"/><path d="m136.535156 404.933594-47.335937 47.332031h-.007813l47.34375-47.34375zm0 0" fill="#fdf2f2"/><path d="m136.535156 404.933594-47.335937 47.332031zm0 0" fill="#fcf2f2"/><path d="m136.535156 404.941406-47.328125 47.324219h-.007812l47.335937-47.332031zm0 0" fill="#fbf1f2"/><path d="m136.535156 404.949219-47.320312 47.316406h-.007813l47.328125-47.324219zm0 0" fill="#faf1f2"/><path d="m136.535156 404.957031-47.3125 47.308594h-.007812l47.320312-47.316406zm0 0" fill="#f9f0f2"/><path d="m136.535156 404.964844-47.300781 47.300781h-.011719l47.3125-47.308594zm0 0" fill="#f8f0f2"/><path d="m136.535156 404.976562-47.292968 47.289063h-.007813l47.300781-47.300781zm0 0" fill="#f7eff2"/><path d="m136.535156 404.976562-47.292968 47.289063zm0 0" fill="#f6eff2"/><path d="m136.535156 404.984375-47.285156 47.28125h-.007812l47.292968-47.289063zm0 0" fill="#f5eef2"/><path d="m136.535156 404.992188-47.277344 47.273437h-.007812l47.285156-47.28125zm0 0" fill="#f4eef2"/><path d="m136.535156 405-47.269531 47.265625h-.007813l47.277344-47.273437zm0 0" fill="#f3edf2"/><path d="m136.535156 405.007812-47.257812 47.257813h-.011719l47.269531-47.265625zm0 0" fill="#f2edf2"/><path d="m136.535156 405.019531-47.25 47.246094h-.007812l47.257812-47.257813zm0 0" fill="#f1ecf2"/><path d="m136.535156 405.019531-47.25 47.246094zm0 0" fill="#f0ecf2"/><path d="m136.535156 405.027344-47.242187 47.238281h-.007813l47.25-47.246094zm0 0" fill="#efecf2"/><path d="m136.535156 405.035156-47.234375 47.230469h-.007812l47.242187-47.238281zm0 0" fill="#eeebf2"/><path d="m136.535156 405.042969-47.226562 47.222656h-.007813l47.234375-47.230469zm0 0" fill="#edebf2"/><path d="m136.535156 405.050781-47.214844 47.214844h-.011718l47.226562-47.222656zm0 0" fill="#eceaf2"/><path d="m136.535156 405.058594-47.207031 47.207031h-.007813l47.214844-47.214844zm0 0" fill="#ebeaf2"/><path d="m136.535156 405.058594-47.207031 47.207031zm0 0" fill="#eae9f2"/><path d="m136.535156 405.070312-47.199218 47.195313h-.007813l47.207031-47.207031zm0 0" fill="#e8e9f2"/><path d="m136.535156 405.078125-47.191406 47.1875h-.007812l47.199218-47.195313zm0 0" fill="#e7e8f2"/><path d="m136.535156 405.085938-47.183594 47.179687h-.007812l47.191406-47.1875zm0 0" fill="#e6e8f2"/><path d="m136.535156 405.09375-47.175781 47.171875h-.007813l47.183594-47.179687zm0 0" fill="#e5e7f2"/><path d="m136.535156 405.101562-47.164062 47.164063h-.011719l47.175781-47.171875zm0 0" fill="#e4e7f2"/><path d="m136.535156 405.113281-47.15625 47.152344h-.007812l47.164062-47.164063zm0 0" fill="#e3e6f2"/><path d="m136.535156 405.113281-47.15625 47.152344zm0 0" fill="#e2e6f2"/><path d="m136.535156 405.121094-47.148437 47.144531h-.007813l47.15625-47.152344zm0 0" fill="#e1e6f2"/><path d="m136.535156 405.128906-47.140625 47.136719h-.007812l47.148437-47.144531zm0 0" fill="#e0e5f2"/><path d="m136.535156 405.136719-47.132812 47.128906h-.007813l47.140625-47.136719zm0 0" fill="#dfe5f2"/><path d="m136.535156 405.144531-47.121094 47.121094h-.011718l47.132812-47.128906zm0 0" fill="#dee4f2"/><path d="m136.535156 405.152344-47.113281 47.113281h-.007813l47.121094-47.121094zm0 0" fill="#dde4f2"/><path d="m136.535156 405.152344-47.113281 47.113281zm0 0" fill="#dce3f2"/><path d="m136.535156 405.164062-47.105468 47.101563h-.007813l47.113281-47.113281zm0 0" fill="#dbe3f2"/><path d="m136.535156 405.171875-47.097656 47.09375h-.007812l47.105468-47.101563zm0 0" fill="#dae2f2"/><path d="m136.535156 405.179688-47.089844 47.085937h-.007812l47.097656-47.09375zm0 0" fill="#d9e2f2"/><path d="m136.535156 405.1875-47.082031 47.078125h-.007813l47.089844-47.085937zm0 0" fill="#d8e1f2"/><path d="m136.535156 405.195312-47.070312 47.070313h-.011719l47.082031-47.078125zm0 0" fill="#d7e1f2"/><path d="m136.535156 405.195312-47.070312 47.070313zm0 0" fill="#d6e0f2"/><path d="m136.535156 405.207031-47.0625 47.058594h-.007812l47.070312-47.070313zm0 0" fill="#d5e0f2"/><path d="m136.535156 405.214844-47.054687 47.050781h-.007813l47.0625-47.058594zm0 0" fill="#d4dff2"/><path d="m136.535156 405.222656-47.046875 47.042969h-.007812l47.054687-47.050781zm0 0" fill="#d3dff2"/><path d="m89.488281 452.265625 47.046875-47.042969v47.042969zm0 0" fill="#d3dff2"/><path d="m367.019531 179.03125-17.835937-7.425781c.925781-6.308594.953125-12.714844.085937-19.03125l17.664063-7.335938c4.367187-1.808593 6.460937-6.796875 4.691406-11.179687l-6.570312-15.703125c-.867188-2.09375-2.535157-3.757813-4.632813-4.625-2.097656-.863281-4.453125-.855469-6.542969.019531l-13.910156 5.800781-3.839844 1.539063c-2.039062-2.738282-4.292968-5.304688-6.742187-7.683594-2.105469-2.089844-4.359375-4.03125-6.742188-5.800781l7.425781-17.835938c.863282-2.082031.863282-4.421875 0-6.503906-.863281-2.082031-2.523437-3.734375-4.609374-4.589844l-15.871094-6.570312c-2.082032-.863281-4.421875-.863281-6.503906 0-2.082032.863281-3.734376 2.523437-4.589844 4.609375l-.511719 1.195312-6.914063 16.640625c-6.304687-.925781-12.710937-.957031-19.027343-.085937l-3.242188-7.851563-4.097656-9.8125c-1.804687-4.367187-6.796875-6.464843-11.179687-4.695312l-13.90625 5.804687-1.792969.765625c-2.097657.871094-3.761719 2.535157-4.625 4.632813-.867188 2.097656-.859375 4.453125.015625 6.546875l7.339844 17.75c-5.132813 3.808593-9.675782 8.351562-13.484376 13.484375l-17.832031-7.425782c-.34375-.085937-.597656-.257812-.941406-.339843-4.144531-1.125-8.484375.988281-10.152344 4.949219l-.511719 1.191406-6.058593 14.679687c-.867188 2.082031-.867188 4.421875-.003907 6.503907.867188 2.082031 2.523438 3.734374 4.609376 4.589843l17.835937 7.421875c-.925781 6.308594-.953125 12.714844-.085937 19.03125l-17.664063 7.339844c-4.367187 1.804688-6.460937 6.792969-4.691406 11.175781l6.058593 14.507813.511719 1.195312c1.585938 3.988282 5.9375 6.128906 10.070313 4.949219.378906-.074219.75-.191406 1.109375-.34375l17.746093-7.335937c3.808594 5.128906 8.351563 9.671874 13.484376 13.480468l-7.425782 17.835938c-.863281 2.082031-.863281 4.421875 0 6.503906.863282 2.082031 2.523438 3.734375 4.609375 4.589844l1.878907.765625 13.992187 5.804687c2.082031.867188 4.421875.867188 6.503906 0 2.082031-.863281 3.734375-2.523437 4.589844-4.609375l4.097656-9.898437 3.328125-7.933594c6.304688.921875 12.714844.953125 19.027344.082031l6.828125 16.554688.511719 1.109375c1.804687 4.371094 6.796875 6.464844 11.179687 4.695312l15.699219-6.570312c2.097656-.867188 3.761719-2.535156 4.625-4.632813.867188-2.097656.859375-4.453125-.015625-6.546875l-7.339844-17.75c2.371094-1.71875 4.597657-3.632812 6.65625-5.714844 2.476563-2.40625 4.761719-5.003906 6.828125-7.765624l3.839844 1.621093 13.992188 5.800781c2.082031.867188 4.425781.867188 6.507812.003907 2.082031-.867188 3.730469-2.523438 4.585938-4.609375l6.570312-15.875c.867188-2.078125.867188-4.421875.003906-6.503906-.867187-2.082032-2.523437-3.730469-4.609375-4.585938zm-98.21875 5.203125c-4.886719-2.769531-8.699219-7.09375-10.839843-12.289063-4.984376-11.847656-.328126-25.550781 10.839843-31.914062.949219-.59375 1.949219-1.109375 2.984375-1.535156 11.09375-4.644532 23.925782-.945313 30.839844 8.898437 6.914062 9.839844 6.042969 23.167969-2.089844 32.027344-8.136718 8.859375-21.339844 10.863281-31.734375 4.8125zm0 0" fill="#7facfa"/><path d="m341.417969 179.03125-17.832031-7.425781c.921874-6.308594.953124-12.714844.082031-19.03125l17.664062-7.335938c4.367188-1.808593 6.464844-6.796875 4.695313-11.179687l-6.058594-14.507813-.511719-1.195312c-1.589843-3.988281-5.941406-6.128907-10.070312-4.949219-.378907.078125-.753907.191406-1.109375.34375l-17.75 7.339844c-6.144532-6.90625-12.980469-13.167969-20.394532-18.691406l8.535157-17.066407c1.789062-4.351562 5.546875-4.863281 1.195312-6.65625l-1.878906-.765625-6.914063 16.640625c-6.304687-.925781-12.710937-.957031-19.027343-.085937l-3.242188-7.851563-12.800781-18.347656c-6.144531-.9375-2.132812 7.679687-8.535156 8.535156l-7.847656 1.109375-1.792969.765625c-2.097657.871094-3.761719 2.535157-4.625 4.632813-.867188 2.097656-.859375 4.453125.015625 6.546875l7.339844 17.75c-5.132813 3.808593-9.675782 8.351562-13.484376 13.484375l-17.832031-7.425782c-.34375-.085937-.597656-.257812-.941406-.339843-2.476563 2.402343-4.757813 5-6.824219 7.765625l-3.839844-1.625-6.058593 14.679687c-.867188 2.082031-.867188 4.421875-.003907 6.503907.867188 2.082031 2.523438 3.734374 4.609376 4.589843l17.835937 7.421875c-.925781 6.308594-.953125 12.714844-.085937 19.03125l-17.664063 7.339844c-4.367187 1.804688-6.460937 6.792969-4.691406 11.175781l6.058593 14.507813 3.839844-1.535156c2.039063 2.734374 4.292969 5.304687 6.742188 7.679687.378906-.074219.75-.191406 1.109375-.34375l17.746093-7.335937c3.808594 5.128906 8.351563 9.671874 13.484376 13.480468l-7.425782 17.835938c-.863281 2.082031-.863281 4.421875 0 6.503906.863282 2.082031 2.523438 3.734375 4.609375 4.589844l1.878907.765625 16.382812 1.109375c6.144531.941406 2.132812-7.679688 8.535156-8.53125l4.265625-1.28125 3.328125-7.933594c6.304688.921875 12.714844.953125 19.027344.082031l6.828125 16.554688 1.792969-.765625c4.351562-1.792969.765625-2.304688-1.109375-6.65625l-8.535157-17.066406c7.410157-5.527344 14.242188-11.789063 20.394532-18.6875l17.835937 7.421874c.339844.085938.597657.257813.9375.34375 4.148438 1.121094 8.484375-.992187 10.15625-4.949218l.511719-1.195313 6.058594-14.679687c.863281-2.078125.867187-4.421875 0-6.503906-.863282-2.082032-2.523438-3.730469-4.609375-4.585938zm-50.003907 6.738281c-7.359374 3.078125-15.738281 2.507813-22.613281-1.535156-.949219.597656-1.949219 1.109375-2.988281 1.535156-13.054688 5.460938-4.4375-.765625-9.8125-13.824219 4.933594 11.792969-8.535156-1.277343 8.535156-26.878906-4.609375 6.914063-2.390625-8.960937 4.265625-5.035156.949219-.59375 1.949219-1.109375 2.984375-1.535156 8.492188-3.753906 18.351563-2.613282 25.761719 2.976562 7.414063 5.589844 11.21875 14.753906 9.945313 23.949219-1.273438 9.199219-7.425782 16.984375-16.078126 20.347656zm0 0" fill="#a4c2f7"/><path d="m93.867188 477.867188c0 4.710937-3.820313 8.53125-8.535157 8.53125-4.710937 0-8.53125-3.820313-8.53125-8.53125 0-4.714844 3.820313-8.535157 8.53125-8.535157 4.714844 0 8.535157 3.820313 8.535157 8.535157zm0 0" fill="#428dff"/><path d="m51.199219 230.398438v-187.730469h17.066406v187.730469zm0 0" fill="#fff"/><path d="m59.734375 187.734375c-4.714844 0-8.535156 3.820313-8.535156 8.53125v34.132813h17.066406v-34.132813c0-4.710937-3.820313-8.53125-8.53125-8.53125zm0 0" fill="#428dff"/><path d="m68.265625 42.667969h-17.066406v85.332031c0 4.710938 3.820312 8.535156 8.535156 8.535156 4.710937 0 8.53125-3.824218 8.53125-8.535156zm0 0" fill="#428dff"/><path d="m51.199219 162.132812c.035156 2.257813.917969 4.421876 2.476562 6.058594l1.277344 1.023438c.476563.324218.992187.582031 1.539063.769531.480468.246094 1 .417969 1.535156.511719.5625.09375 1.132812.152344 1.707031.171875 2.257813-.035157 4.421875-.917969 6.058594-2.476563.769531-.816406 1.378906-1.769531 1.792969-2.816406 1.285156-3.183594.582031-6.824219-1.792969-9.300781-.816407-.769531-1.773438-1.378907-2.816407-1.792969-1.027343-.4375-2.128906-.667969-3.242187-.679688-2.269531-.023437-4.457031.867188-6.058594 2.472657-1.605469 1.605469-2.5 3.789062-2.476562 6.058593zm0 0" fill="#428dff"/><path d="m469.332031 358.398438h-307.199219c-4.710937 0-8.53125-3.820313-8.53125-8.53125 0-4.714844 3.820313-8.535157 8.53125-8.535157h307.199219c14.140625 0 25.601563-11.460937 25.601563-25.597656v-273.066406c0-14.140625-11.460938-25.601563-25.601563-25.601563h-375.464843c-14.140626 0-25.601563 11.460938-25.601563 25.601563 0 3.046875-1.625 5.863281-4.265625 7.390625-2.640625 1.523437-5.894531 1.523437-8.535156 0-2.636719-1.527344-4.265625-4.34375-4.265625-7.390625.027343-23.554688 19.113281-42.6406252 42.667969-42.667969h375.464843c23.554688.0273438 42.640625 19.113281 42.667969 42.667969v273.066406c-.027344 23.550781-19.113281 42.636719-42.667969 42.664063zm0 0" fill="#428dff"/><path d="m460.800781 290.132812h-298.667969c-4.710937 0-8.53125-3.820312-8.53125-8.53125 0-4.714843 3.820313-8.535156 8.53125-8.535156h298.667969v-221.867187h-358.402343v179.199219c0 4.714843-3.820313 8.535156-8.53125 8.535156-4.714844 0-8.535157-3.820313-8.535157-8.535156v-179.199219c0-9.425781 7.640625-17.066407 17.066407-17.066407h358.402343c9.425781 0 17.066407 7.640626 17.066407 17.066407v221.867187c0 9.425782-7.640626 17.066406-17.066407 17.066406zm0 0" fill="#428dff"/><path d="m324.265625 392.535156h-85.332031c-4.714844 0-8.535156-3.824218-8.535156-8.535156v-34.132812c0-4.714844 3.820312-8.535157 8.535156-8.535157h85.332031c4.714844 0 8.535156 3.820313 8.535156 8.535157v34.132812c0 4.710938-3.820312 8.535156-8.535156 8.535156zm-76.800781-17.070312h68.269531v-17.066406h-68.269531zm0 0" fill="#428dff"/><path d="m358.398438 443.734375h-153.597657c-9.425781 0-17.066406-7.640625-17.066406-17.066406v-8.535157c.027344-23.550781 19.113281-42.636718 42.664063-42.667968h102.402343c23.550781.03125 42.636719 19.117187 42.664063 42.667968v8.535157c0 9.425781-7.640625 17.066406-17.066406 17.066406zm-128-51.199219c-14.136719 0-25.597657 11.460938-25.597657 25.597656v8.535157h153.597657v-8.535157c0-14.136718-11.460938-25.597656-25.597657-25.597656zm0 0" fill="#428dff"/><path d="m290.132812 324.265625h-17.066406c-4.710937 0-8.53125-3.820313-8.53125-8.53125 0-4.714844 3.820313-8.535156 8.53125-8.535156h17.066406c4.714844 0 8.535157 3.820312 8.535157 8.535156 0 4.710937-3.820313 8.53125-8.535157 8.53125zm0 0" fill="#428dff"/><path d="m145.066406 512h-119.464844c-14.140624 0-25.601562-11.460938-25.601562-25.601562v-93.863282c0-4.714844 3.820312-8.535156 8.535156-8.535156 4.710938 0 8.53125 3.820312 8.53125 8.535156v93.863282c0 4.714843 3.820313 8.535156 8.535156 8.535156h119.464844c4.714844 0 8.535156-3.820313 8.535156-8.535156v-238.933594c0-4.710938-3.820312-8.53125-8.535156-8.53125h-119.464844c-4.714843 0-8.535156 3.820312-8.535156 8.53125v93.867187c0 4.714844-3.820312 8.535157-8.53125 8.535157-4.714844 0-8.535156-3.820313-8.535156-8.535157v-93.867187c0-14.136719 11.460938-25.597656 25.601562-25.597656h119.464844c14.140625 0 25.601563 11.460937 25.601563 25.597656v238.933594c0 14.140624-11.460938 25.601562-25.601563 25.601562zm0 0" fill="#428dff"/><path d="m162.132812 460.800781h-153.597656c-4.714844 0-8.535156-3.820312-8.535156-8.535156v-187.730469c0-4.714844 3.820312-8.535156 8.535156-8.535156h153.597656c4.714844 0 8.535157 3.820312 8.535157 8.535156v187.730469c0 4.714844-3.820313 8.535156-8.535157 8.535156zm-145.066406-17.066406h136.535156v-170.667969h-136.535156zm0 0" fill="#428dff"/><path d="m51.199219 307.199219h-8.53125c-4.714844 0-8.535157-3.820313-8.535157-8.53125 0-4.714844 3.820313-8.535157 8.535157-8.535157h8.53125c4.714843 0 8.535156 3.820313 8.535156 8.535157 0 4.710937-3.820313 8.53125-8.535156 8.53125zm0 0" fill="#428dff"/><path d="m128 307.199219h-42.667969c-4.710937 0-8.53125-3.820313-8.53125-8.53125 0-4.714844 3.820313-8.535157 8.53125-8.535157h42.667969c4.710938 0 8.535156 3.820313 8.535156 8.535157 0 4.710937-3.824218 8.53125-8.535156 8.53125zm0 0" fill="#428dff"/><path d="m136.535156 85.332031h-8.535156c-4.710938 0-8.535156-3.820312-8.535156-8.53125 0-4.714843 3.824218-8.535156 8.535156-8.535156h8.535156c4.710938 0 8.53125 3.820313 8.53125 8.535156 0 4.710938-3.820312 8.53125-8.53125 8.53125zm0 0" fill="#428dff"/><path d="m204.800781 85.332031h-34.132812c-4.714844 0-8.535157-3.820312-8.535157-8.53125 0-4.714843 3.820313-8.535156 8.535157-8.535156h34.132812c4.710938 0 8.53125 3.820313 8.53125 8.535156 0 4.710938-3.820312 8.53125-8.53125 8.53125zm0 0" fill="#428dff"/><path d="m256.851562 261.332031c-2.230468 0-4.4375-.441406-6.5-1.296875l-15.828124-6.550781c-8.675782-3.605469-12.804688-13.539063-9.242188-22.230469l4.957031-11.945312c-2.011719-1.8125-3.929687-3.726563-5.742187-5.734375l-11.949219 4.9375c-8.710937 3.546875-18.652344-.609375-22.253906-9.300781l-6.527344-15.777344c-1.730469-4.183594-1.730469-8.882813.003906-13.0625 1.730469-4.183594 5.054688-7.503906 9.238281-9.234375l11.945313-4.933594c-.152344-2.707031-.152344-5.417969 0-8.125l-11.945313-4.957031c-4.179687-1.726563-7.5-5.046875-9.226562-9.230469-1.730469-4.179687-1.722656-8.875.019531-13.050781l6.542969-15.820313c3.617188-8.605469 13.480469-12.707031 22.136719-9.207031l11.945312 4.957031c1.808594-2.011719 3.71875-3.929687 5.726563-5.742187l-4.933594-11.945313c-3.570312-8.714843.59375-18.671875 9.304688-22.253906l15.777343-6.53125c8.703125-3.597656 18.679688.535156 22.289063 9.234375l4.929687 11.945312c2.714844-.144531 5.429688-.144531 8.140625 0l4.960938-11.945312c3.613281-8.679688 13.570312-12.800781 22.261718-9.214844l15.828126 6.554688c8.613281 3.617187 12.71875 13.484375 9.210937 22.140625l-4.960937 11.949219c2.015624 1.808593 3.933593 3.722656 5.742187 5.734374l11.949219-4.941406c8.714844-3.570312 18.671875.589844 22.253906 9.300782l6.527344 15.769531c1.734375 4.183593 1.730468 8.882812 0 13.0625-1.734375 4.183593-5.058594 7.503906-9.242188 9.234375l-11.945312 4.933594c.152344 2.707031.152344 5.417968 0 8.125l11.945312 4.957031c4.179688 1.726562 7.5 5.050781 9.230469 9.230469 1.726563 4.179687 1.71875 8.875-.019531 13.050781l-6.546875 15.820312c-3.613281 8.609375-13.476563 12.714844-22.136719 9.214844l-11.945312-4.957031c-1.808594 2.011718-3.71875 3.929687-5.726563 5.742187l4.933594 11.945313c3.570312 8.714844-.59375 18.675781-9.300781 22.257812l-15.78125 6.527344c-8.703126 3.601562-18.679688-.53125-22.289063-9.234375l-4.929687-11.945313c-2.710938.148438-5.429688.148438-8.140626 0l-4.957031 11.945313c-2.617187 6.390625-8.824219 10.570313-15.730469 10.597656zm-29.789062-66.660156c2.6875 0 5.214844 1.261719 6.828125 3.414063 3.335937 4.449218 7.296875 8.394531 11.757813 11.714843 3.160156 2.328125 4.328124 6.511719 2.824218 10.136719l-7.390625 17.835938 15.824219 6.519531 7.355469-17.816407c1.480469-3.640624 5.273437-5.785156 9.15625-5.171874 5.503906.796874 11.09375.796874 16.597656 0 3.847656-.539063 7.570313 1.589843 9.0625 5.179687l7.34375 17.75 15.769531-6.539063-7.34375-17.738281c-1.488281-3.589843-.359375-7.730469 2.738282-10.070312 4.449218-3.339844 8.390624-7.300781 11.707031-11.769531 2.328125-3.15625 6.511719-4.320313 10.136719-2.816407l17.835937 7.390625 6.519531-15.820312-17.828125-7.355469c-3.621093-1.503906-5.75-5.285156-5.160156-9.164063.804687-5.503906.816406-11.089843.042969-16.597656-.535156-3.84375 1.59375-7.566406 5.179687-9.054687l17.730469-7.347657-6.519531-15.742187-17.75 7.320313c-3.585938 1.488281-7.722657.363281-10.066407-2.730469-3.339843-4.449219-7.300781-8.394531-11.761718-11.714844-3.160156-2.328125-4.324219-6.511719-2.824219-10.140625l7.390625-17.832031-15.871094-6.511719-7.355468 17.816406c-1.460938 3.660156-5.269532 5.8125-9.15625 5.171875-5.503907-.796875-11.09375-.796875-16.597657 0-3.847656.539063-7.574219-1.589843-9.0625-5.179687l-7.324219-17.78125-15.769531 6.535156 7.347657 17.742188c1.484374 3.585937.359374 7.726562-2.738282 10.066406-4.449218 3.339844-8.390625 7.300781-11.707031 11.769531-2.328125 3.15625-6.511719 4.320313-10.136719 2.816406l-17.835937-7.390625-6.546875 15.820313 17.828125 7.355469c3.621093 1.503906 5.753906 5.285156 5.164062 9.164062-.792969 5.503906-.792969 11.09375 0 16.597656.53125 3.84375-1.597656 7.566406-5.179687 9.054688l-17.734375 7.347656 6.527343 15.769531 17.742188-7.347656c1.019531-.429687 2.113281-.652344 3.21875-.65625zm0 0" fill="#428dff"/><path d="m281.601562 196.265625c-17.554687.027344-32.269531-13.269531-34.015624-30.734375-1.746094-17.46875 10.042968-33.414062 27.253906-36.863281 17.210937-3.453125 34.234375 6.714843 39.359375 23.503906 5.121093 16.792969-3.328125 34.730469-19.535157 41.476563-4.136718 1.726562-8.578124 2.617187-13.0625 2.617187zm0-51.199219c-8.777343-.003906-16.128906 6.648438-16.996093 15.382813-.867188 8.734375 5.035156 16.699219 13.640625 18.421875 8.609375 1.71875 17.117187-3.371094 19.671875-11.769532 2.554687-8.394531-1.675781-17.363281-9.78125-20.730468-2.070313-.859375-4.292969-1.304688-6.535157-1.304688zm0 0" fill="#428dff"/><path d="m42.667969 426.667969c-4.714844 0-8.535157-3.820313-8.535157-8.535157v-51.199218c0-4.714844 3.820313-8.535156 8.535157-8.535156 4.710937 0 8.53125 3.820312 8.53125 8.535156v30.601562l70.769531-70.769531c3.347656-3.234375 8.667969-3.1875 11.960938.105469 3.292968 3.292968 3.335937 8.613281.101562 11.960937l-85.332031 85.335938c-1.597657 1.597656-3.769531 2.5-6.03125 2.5zm0 0" fill="#428dff"/><path d="m93.867188 426.667969h-51.199219c-4.714844 0-8.535157-3.820313-8.535157-8.535157 0-4.710937 3.820313-8.53125 8.535157-8.53125h51.199219c4.710937 0 8.53125 3.820313 8.53125 8.53125 0 4.714844-3.820313 8.535157-8.53125 8.535157zm0 0" fill="#428dff"/></svg>