<?xml version="1.0"?>
<svg xmlns="http://www.w3.org/2000/svg" height="512px" viewBox="-91 0 512 512" width="512px"><path d="m105 241h45v45h30v-45h45v-30h-45v-45h-30v45h-45zm0 0" fill="#006DF0"/><path d="m285 0h-240c-24.8125 0-45 20.1875-45 45v422c0 24.8125 20.1875 45 45 45h240c24.8125 0 45-20.1875 45-45v-422c0-24.8125-20.1875-45-45-45zm-240 30h240c8.269531 0 15 6.730469 15 15v15h-270v-15c0-8.269531 6.730469-15 15-15zm255 60v272h-270v-272zm-15 392h-240c-8.269531 0-15-6.730469-15-15v-75h270v75c0 8.269531-6.730469 15-15 15zm0 0" fill="#006DF0"/><path d="m135 422h60v30h-60zm0 0" fill="#006DF0"/></svg>
