<svg xmlns="http://www.w3.org/2000/svg" xmlns:xlink="http://www.w3.org/1999/xlink" width="60" height="60" viewBox="0 0 60 60">
  <defs>
    <linearGradient id="group-4-a" x1="50%" x2="50%" y1=".005%" y2="100.005%">
      <stop offset="0%" stop-color="#58F1FF"/>
      <stop offset="100%" stop-color="#47B3FF"/>
    </linearGradient>
    <path id="group-4-b" d="M33.0000565,20.25 C33.0000565,21.4926407 31.9926972,22.5 30.7500565,22.5 L5.25005647,22.5 C4.00741579,22.5 3.00005647,21.4926407 3.00005647,20.25 L3.00005647,6.75 C3.00005647,5.50735931 4.00741579,4.5 5.25005647,4.5 L30.7500565,4.5 C31.9926972,4.5 33.0000565,5.50735931 33.0000565,6.75 L33.0000565,20.25 Z M21.0000565,15 C21.8284836,15 22.5000565,14.3284271 22.5000565,13.5 C22.5000565,12.6715729 21.8284836,12 21.0000565,12 L19.5000565,12 L19.5000565,10.5 C19.5000565,9.67157288 18.8284836,9 18.0000565,9 C17.1716293,9 16.5000565,9.67157288 16.5000565,10.5 L16.5000565,12 L15.0000565,12 C14.1716293,12 13.5000565,12.6715729 13.5000565,13.5 C13.5000565,14.3284271 14.1716293,15 15.0000565,15 L16.5000565,15 L16.5000565,16.5 C16.5000565,17.3284271 17.1716293,18 18.0000565,18 C18.8284836,18 19.5000565,17.3284271 19.5000565,16.5 L19.5000565,15 L21.0000565,15 Z M33.0000565,30.57 C33.004054,31.1096576 32.7924725,31.6285862 32.4122772,32.0115978 C32.0320819,32.3946094 31.5147289,32.6100148 30.9750565,32.61 L21.5250565,32.61 C20.985384,32.6100148 20.4680311,32.3946094 20.0878357,32.0115978 C19.7076404,31.6285862 19.4960589,31.1096576 19.5000565,30.57 L19.5000565,27.915 C19.4960242,27.3767106 19.7080767,26.8592978 20.0887155,26.478659 C20.4693542,26.0980202 20.9867671,25.8859677 21.5250565,25.89 L30.9750565,25.89 C31.5133459,25.8859677 32.0307587,26.0980202 32.4113975,26.478659 C32.7920363,26.8592978 33.0040888,27.3767106 33.0000565,27.915 L33.0000565,30.57 Z M16.5000565,30.57 C16.504054,31.1096576 16.2924725,31.6285862 15.9122772,32.0115978 C15.5320819,32.3946094 15.0147289,32.6100148 14.4750565,32.61 L5.02505647,32.61 C4.48538403,32.6100148 3.96803105,32.3946094 3.58783574,32.0115978 C3.20764042,31.6285862 2.9960589,31.1096576 3.00005647,30.57 L3.00005647,27.915 C2.99602417,27.3767106 3.20807668,26.8592978 3.58871545,26.478659 C3.96935422,26.0980202 4.48676706,25.8859677 5.02505647,25.89 L14.4750565,25.89 C15.0133459,25.8859677 15.5307587,26.0980202 15.9113975,26.478659 C16.2920363,26.8592978 16.5040888,27.3767106 16.5000565,27.915 L16.5000565,30.57 Z"/>
  </defs>
  <g fill="none" fill-rule="evenodd">
    <circle cx="30" cy="30" r="30" fill="url(#group-4-a)"/>
    <g transform="translate(12 12)">
      <mask id="group-4-c" fill="#fff">
        <use xlink:href="#group-4-b"/>
      </mask>
      <g fill="#FFF" mask="url(#group-4-c)">
        <polygon points="0 0 36 0 36 36 0 36"/>
      </g>
    </g>
  </g>
</svg>
