<svg xmlns="http://www.w3.org/2000/svg" xmlns:xlink="http://www.w3.org/1999/xlink" width="60" height="60" viewBox="0 0 60 60">
  <defs>
    <linearGradient id="group-6-a" x1="50%" x2="50%" y1="0%" y2="100%">
      <stop offset="0%" stop-color="#9C95FF"/>
      <stop offset="100%" stop-color="#766DE8"/>
    </linearGradient>
    <path id="group-6-b" d="M22.1080578,14.6970139 L22.1080578,14.637146 C22.5035395,14.6318953 22.8761302,14.8220583 23.1037473,15.1453266 C23.3313645,15.4685948 23.3846739,15.883307 23.2462082,16.2535789 L21.8534716,20.1898924 C21.7079068,20.5830824 21.4334269,20.9154323 21.0747371,21.1328116 C20.7967644,21.2919322 20.4815533,21.3745625 20.1612217,21.3722832 C19.4004035,21.3714144 18.7225775,20.8918161 18.4689718,20.1749254 L17.9747749,18.7530632 L17.4656024,20.2497603 C17.3352289,20.5930122 17.1059154,20.889905 16.8066732,21.1028777 C16.503099,21.3250976 16.134569,21.4408541 15.7583768,21.4321511 C15.3028371,21.4352345 14.8634113,21.2638508 14.5303725,20.953208 C14.3234357,20.7517572 14.1647332,20.506167 14.0661269,20.2347933 L12.7033416,16.4032486 C12.561625,16.0130227 12.619327,15.5782365 12.8579293,15.2384254 C13.0965317,14.8986143 13.4860194,14.6965251 13.9013946,14.6970139 C14.1706682,14.6915462 14.434105,14.775797 14.6501778,14.9364854 C14.8734421,15.0856071 15.0376317,15.3079285 15.1144233,15.5650982 L15.8332551,17.6754412 L16.50716,15.7746358 C16.5823102,15.535854 16.7161834,15.3197228 16.8965272,15.146023 C17.1995633,14.858114 17.6015887,14.6973972 18.0197019,14.6970139 C18.3579193,14.6947801 18.6881708,14.799561 18.9631686,14.9963533 C19.2418173,15.1873489 19.4476503,15.4669083 19.5472195,15.7896028 L20.191173,17.7053751 L20.9549318,15.5052303 C21.1311697,15.0204076 21.5919321,14.6974631 22.1080578,14.6970139 Z M4.27204348,13.0207131 C3.73904722,13.053169 3.23811685,12.7645649 2.99911215,12.2873314 C2.81900845,11.9137526 2.81900845,11.4785196 2.99911215,11.1049407 C5.68264551,5.25238935 11.53323,1.5 17.9747749,1.5 C24.4163198,1.5 30.2669043,5.25238935 32.9504377,11.1049407 C33.1338881,11.5419972 33.0711568,12.0435564 32.7857054,12.4220342 C32.5216529,12.8191668 32.0653457,13.0449543 31.5892517,13.0140571 C31.1131578,12.9831598 30.6898994,12.7002908 30.4794533,12.2723645 C29.0269955,9.19128724 26.4968194,6.74775711 23.3660135,5.40252454 C24.4445716,7.26311993 25.2181196,9.28429385 25.6572899,11.3893132 C25.7450334,11.7850081 25.6456074,12.1990424 25.387728,12.511836 C25.1379107,12.8369033 24.7495264,13.0254376 24.3394316,13.0207131 C24.0375933,13.0125862 23.7452627,12.9134601 23.5007945,12.7363406 C23.2656422,12.5466964 23.1019459,12.2828234 23.0365489,11.987992 C22.0331795,7.58770238 19.8916597,4.29496864 17.9747749,4.29496864 C16.0578901,4.29496864 13.9163703,7.58770238 12.9130009,11.987992 C12.7055466,12.6623752 12.0125733,13.0625162 11.3243768,12.9053055 C10.6361804,12.7480947 10.1859609,12.0868041 10.2922599,11.3893132 C10.7314302,9.28429385 11.5049782,7.26311993 12.5835363,5.40252454 C9.45273036,6.74775711 6.9225543,9.19128724 5.4700965,12.2723645 C5.24957232,12.7327505 4.78274809,13.0243463 4.27204348,13.0207131 Z M31.6775063,23.1084519 C32.1745459,23.0782576 32.6453357,23.3338469 32.890535,23.7669986 C33.0931352,24.1616157 33.0931352,24.6296072 32.890535,25.0242242 C30.1783381,30.8067308 24.3647858,34.5 17.9747749,34.5 C11.584764,34.5 5.77121173,30.8067308 3.0590148,25.0242242 C2.85865753,24.5924018 2.89840207,24.0873716 3.16384444,23.6921638 C3.41304118,23.325414 3.82847025,23.1065987 4.27204348,23.1084519 C4.78274809,23.1048186 5.24957232,23.3964145 5.4700965,23.8568004 C6.9225543,26.9378777 9.45273036,29.3814078 12.5835363,30.7266404 C11.5049782,28.866045 10.7314302,26.8448711 10.2922599,24.7398518 C10.1991833,24.3036742 10.3281558,23.8497303 10.6367002,23.5275271 C10.8881907,23.2578413 11.2412611,23.1058377 11.6101182,23.1084519 C12.2304628,23.112007 12.7682616,23.5382895 12.9130009,24.1411729 C13.9163703,28.5414625 16.0578901,31.8341963 17.9747749,31.8341963 C19.8916597,31.8341963 22.0331795,28.6312644 23.0365489,24.1411729 C23.2440033,23.4667898 23.9369766,23.0666487 24.625173,23.2238595 C25.3133694,23.3810702 25.7635889,24.0423608 25.6572899,24.7398518 C25.2181196,26.8448711 24.4445716,28.866045 23.3660135,30.7266404 C26.4968194,29.3814078 29.0269955,26.9378777 30.4794533,23.8568004 C30.6999775,23.3964145 31.1668017,23.1048186 31.6775063,23.1084519 Z M34.1185394,15.0711882 C34.4538524,15.3901191 34.5812289,15.8703972 34.4480039,16.3134468 L32.980389,20.1898924 C32.8342302,20.5872569 32.5533942,20.9208871 32.1866789,21.1328116 C31.9148039,21.2934716 31.6039576,21.3763159 31.2881391,21.3722832 C30.5273209,21.3714144 29.8494949,20.8918161 29.5958892,20.1749254 L29.1016923,18.7530632 L28.5775441,20.2497603 C28.4579789,20.5947247 28.2326503,20.8932428 27.9335906,21.1028777 C27.627585,21.3202512 27.2607066,21.4354889 26.8852942,21.4321511 C26.1215806,21.4404551 25.4389554,20.957461 25.1930444,20.2347933 L23.830259,16.4032486 C23.6808491,16.0129296 23.7352668,15.5739246 23.9754628,15.231844 C24.2156588,14.8897633 24.6102331,14.6893261 25.0283121,14.6970139 C25.2972569,14.6937689 25.5599989,14.7777976 25.7770952,14.9364854 C26.0003595,15.0856071 26.1645491,15.3079285 26.2413407,15.5650982 L26.9601726,17.6754412 L27.6340774,15.7746358 C27.7092277,15.535854 27.8431009,15.3197228 28.0234446,15.146023 C28.5882814,14.6095477 29.4537614,14.5468682 30.0900861,14.9963533 C30.3687347,15.1873489 30.5745677,15.4669083 30.6741369,15.7896028 L31.3180904,17.7053751 L32.0818492,15.5052303 C32.2543498,15.0175582 32.7174421,14.6929806 33.2349753,14.6970139 C33.5687956,14.6932584 33.8890445,14.8288784 34.1185394,15.0711882 Z M3.40345504,20.953208 C3.21811318,20.7458947 3.08013906,20.5007497 2.99911215,20.2347933 L1.57642419,16.4780835 C1.4337606,16.0853588 1.49313431,15.6476586 1.73527114,15.3070712 C1.97740797,14.9664838 2.37143928,14.7664287 2.78945287,14.7718487 C3.0583977,14.7686038 3.32113974,14.8526325 3.53823601,15.0113203 C3.75303886,15.1691074 3.91491103,15.3882908 4.00248155,15.6399331 L4.7063377,17.7502761 L5.38024253,15.8494707 C5.4553928,15.6106889 5.58926599,15.3945577 5.76960976,15.2208579 C6.07264586,14.9329489 6.47467129,14.772232 6.89278446,14.7718487 C7.23100185,14.7696149 7.56125341,14.8743958 7.83625122,15.0711882 C8.10200084,15.2429644 8.30646634,15.4944682 8.42030207,15.7896028 L9.07923123,17.7053751 L9.82801436,15.5052303 C10.0078515,15.0231759 10.4663929,14.701788 10.9811404,14.6970139 C11.3149607,14.6932584 11.6352096,14.8288784 11.8647045,15.0711882 C12.1410662,15.3804901 12.2424603,15.8083499 12.1342664,16.208678 L10.7265541,20.1449915 C10.475491,20.861745 9.79407743,21.3378551 9.03430424,21.3273823 C8.27348606,21.3265134 7.59566007,20.8469151 7.34205435,20.1300245 L6.84785748,18.7081622 L6.33868494,20.2048594 C6.20831147,20.5481112 5.97899797,20.8450041 5.67975578,21.0579768 C5.38600005,21.2931262 5.02272735,21.4246703 4.64643505,21.4321511 C4.18656232,21.4345364 3.7427038,21.2635095 3.40345504,20.953208 Z"/>
  </defs>
  <g fill="none" fill-rule="evenodd">
    <circle cx="30" cy="30" r="30" fill="url(#group-6-a)"/>
    <g transform="translate(12 12)">
      <mask id="group-6-c" fill="#fff">
        <use xlink:href="#group-6-b"/>
      </mask>
      <g fill="#FFF" mask="url(#group-6-c)">
        <polygon points="0 0 36 0 36 36 0 36"/>
      </g>
    </g>
  </g>
</svg>
