<svg id="Layer_1" data-name="Layer 1" xmlns="http://www.w3.org/2000/svg" xmlns:xlink="http://www.w3.org/1999/xlink" viewBox="0 0 166 120"><defs><style>.cls-1{fill:url(#linear-gradient);}.cls-2{fill:url(#linear-gradient-2);}.cls-3{fill:#4fdc6f;}.cls-4{fill:#f7cf06;}.cls-5{fill:#f37c6a;}.cls-6{fill:url(#linear-gradient-3);}.cls-7{fill:url(#linear-gradient-4);}.cls-8{fill:url(#linear-gradient-5);}.cls-9{fill:url(#linear-gradient-6);}.cls-10{fill:url(#linear-gradient-7);}.cls-11{fill:url(#linear-gradient-8);}.cls-12{fill:url(#linear-gradient-9);}.cls-13{fill:#fff;}.cls-14{fill:url(#linear-gradient-10);}</style><linearGradient id="linear-gradient" x1="44.61" y1="7.26" x2="62.65" y2="77.3" gradientUnits="userSpaceOnUse"><stop offset="0" stop-color="#ffa330"/><stop offset="1" stop-color="#f07379"/></linearGradient><linearGradient id="linear-gradient-2" x1="39.43" y1="22.35" x2="124.51" y2="91.54" gradientUnits="userSpaceOnUse"><stop offset="0" stop-color="#58f1ff"/><stop offset="1" stop-color="#42a1ff"/></linearGradient><linearGradient id="linear-gradient-3" x1="-189.54" y1="-113.42" x2="-157.65" y2="-113.42" gradientTransform="matrix(-0.5, -0.79, -0.46, 0.28, -18.99, -10.68)" gradientUnits="userSpaceOnUse"><stop offset="0" stop-color="#766de8"/><stop offset="1" stop-color="#9c95ff"/></linearGradient><linearGradient id="linear-gradient-4" x1="43.5" y1="16.63" x2="112.48" y2="93.05" gradientUnits="userSpaceOnUse"><stop offset="0" stop-color="#fff"/><stop offset="1" stop-color="#bed5ff"/></linearGradient><linearGradient id="linear-gradient-5" x1="77.05" y1="67.56" x2="48.56" y2="18.22" gradientUnits="userSpaceOnUse"><stop offset="0" stop-color="#16cd6f"/><stop offset="1" stop-color="#58f17b"/></linearGradient><linearGradient id="linear-gradient-6" x1="33.62" y1="71.87" x2="119.57" y2="89.84" gradientUnits="userSpaceOnUse"><stop offset="0" stop-color="#a7d7ff"/><stop offset="1" stop-color="#5ea4ff"/></linearGradient><linearGradient id="linear-gradient-7" x1="37.4" y1="60.41" x2="123.31" y2="78.38" xlink:href="#linear-gradient-6"/><linearGradient id="linear-gradient-8" x1="105.39" y1="20.07" x2="88.86" y2="57.6" gradientUnits="userSpaceOnUse"><stop offset="0" stop-color="#5690ff"/><stop offset="1" stop-color="#387dff"/></linearGradient><linearGradient id="linear-gradient-9" x1="112.82" y1="23.35" x2="96.29" y2="60.87" xlink:href="#linear-gradient-8"/><linearGradient id="linear-gradient-10" x1="125.47" y1="72.18" x2="141.75" y2="85.42" gradientTransform="translate(8.07 -23.41) rotate(2.95)" gradientUnits="userSpaceOnUse"><stop offset="0" stop-color="#9c95ff"/><stop offset="1" stop-color="#766de8"/></linearGradient></defs><title>Artboard 1 copy</title><path id="Oval-2-Copy-2" class="cls-1" d="M67.55,8.88C49.79-2.88,26,11.06,19.56,31.7S15.2,74.38,40.14,79s46.6.19,53-20.45S85.31,20.65,67.55,8.88Z"/><path id="Oval-2-Copy-3" class="cls-2" d="M73.35,112.4c27.11,2.75,51.55-17.74,60.29-45.64C146.92,24.37,109.19-3.8,80.75,6.27,53.26,16,27.87,30,27.87,59.33S46.24,109.64,73.35,112.4Z"/><path id="Shape-Copy-2" class="cls-3" d="M143.32,19.54l1.26,3.89a1.46,1.46,0,0,1-1.7,1.88l-4.14-.9A1.47,1.47,0,0,1,138,22l2.88-3A1.47,1.47,0,0,1,143.32,19.54Z"/><path id="Shape" class="cls-4" d="M27.5,106.08a4.25,4.25,0,1,1,4.24-4.25A4.25,4.25,0,0,1,27.5,106.08Zm0-6.44a2.12,2.12,0,1,0,2.12,2.12A2.12,2.12,0,0,0,27.5,99.64Z"/><circle id="Oval-4" class="cls-5" cx="17.85" cy="83.58" r="2.12"/><path id="Oval-2-Copy-3-2" data-name="Oval-2-Copy-3" class="cls-6" d="M93.1,113.52c-5-5.68-.92-16.16,8.21-24.7,13.86-13,45.81-13.42,48.4-4.56,4.87,16.66-23.55,15.24-34.47,22.07S98.08,119.21,93.1,113.52Z"/><rect class="cls-7" x="27.87" y="16.8" width="99.71" height="75.49" rx="4.25" ry="4.25"/><rect class="cls-8" x="36.35" y="25.28" width="52.93" height="35.23"/><rect class="cls-9" x="36.35" y="66.16" width="24.17" height="17.61"/><rect class="cls-10" x="94.92" y="66.16" width="24.15" height="17.61"/><path class="cls-11" d="M82.13,47.92v5.89a1.12,1.12,0,0,0,1.12,1.12h5.88a2.25,2.25,0,0,0,1.59-.66L109.9,35.09a1.12,1.12,0,0,0,0-1.59l-6.35-6.34a1.12,1.12,0,0,0-1.59,0L82.78,46.34A2.23,2.23,0,0,0,82.13,47.92Z"/><path class="cls-12" d="M117.21,24.61l-4.76-4.76a2.25,2.25,0,0,0-3.18,0l-2.38,2.38a1.11,1.11,0,0,0,0,1.58l6.35,6.35a1.12,1.12,0,0,0,1.59,0l2.38-2.38A2.25,2.25,0,0,0,117.21,24.61Z"/><path class="cls-13" d="M67.4,44.47h-3v3a1.57,1.57,0,0,1-1.57,1.58h0a1.58,1.58,0,0,1-1.58-1.58v-3h-3a1.58,1.58,0,0,1-1.58-1.58h0a1.57,1.57,0,0,1,1.58-1.57h3v-3a1.58,1.58,0,0,1,1.58-1.58h0a1.57,1.57,0,0,1,1.57,1.58v3h3A1.57,1.57,0,0,1,69,42.89h0A1.57,1.57,0,0,1,67.4,44.47Z"/><path id="Oval-2-Copy-3-3" data-name="Oval-2-Copy-3" class="cls-14" d="M133.67,71.35a14.71,14.71,0,0,0,15.18-7.95c4.4-10.8-5-15.13-12.38-7.16-5.85,6.3-11.38,2.84-13.38,8.07C121.38,68.81,127.08,70.48,133.67,71.35Z"/></svg>