<svg xmlns="http://www.w3.org/2000/svg" xmlns:xlink="http://www.w3.org/1999/xlink" width="60" height="60" viewBox="0 0 60 60">
  <defs>
    <linearGradient id="group-2-a" x1="50%" x2="50%" y1="0%" y2="100%">
      <stop offset="0%" stop-color="#58F17B"/>
      <stop offset="100%" stop-color="#16CD6F"/>
    </linearGradient>
    <path id="group-2-b" d="M28.3560347,13.4437268 L22.5754367,7.66312883 L25.1422344,5.09633121 C25.935596,4.31372878 27.2061314,4.29966381 28.0166234,5.06451141 L30.9228323,7.97072028 C31.7312176,8.77910556 31.7312176,10.0897571 30.9228323,10.8981424 L28.3666413,13.4543334 L28.3560347,13.4437268 Z M6.0231851,24.0781077 L20.7831851,9.31810769 L26.6031851,15.1381077 L11.9031851,29.9581077 C11.5600915,30.3011441 11.1205388,30.531386 10.6431851,30.6181077 L5.9181851,31.4581077 C5.52944998,31.536122 5.12745578,31.414553 4.84709776,31.134195 C4.56673975,30.853837 4.44517075,30.4518428 4.5231851,30.0631077 L5.4081851,25.3381077 C5.48231302,24.865976 5.69657347,24.4270033 6.0231851,24.0781077 Z"/>
  </defs>
  <g fill="none" fill-rule="evenodd">
    <circle cx="30" cy="30" r="30" fill="url(#group-2-a)"/>
    <g transform="translate(12 12)">
      <mask id="group-2-c" fill="#fff">
        <use xlink:href="#group-2-b"/>
      </mask>
      <use fill="#387DFF" fill-rule="nonzero" xlink:href="#group-2-b"/>
      <g fill="#FFF" mask="url(#group-2-c)">
        <polygon points="0 0 36 0 36 36 0 36"/>
      </g>
    </g>
  </g>
</svg>
