<svg xmlns="http://www.w3.org/2000/svg" xmlns:xlink="http://www.w3.org/1999/xlink" width="60" height="60" viewBox="0 0 60 60">
  <defs>
    <linearGradient id="group-5-a" x1="50%" x2="50%" y1="0%" y2="100%">
      <stop offset="0%" stop-color="#58F17B"/>
      <stop offset="100%" stop-color="#16CD6F"/>
    </linearGradient>
    <path id="group-5-b" d="M13.3229756,12.5218819 C13.8117713,11.7494905 13.8117713,10.7337723 13.3229756,9.96138088 C12.3436707,8.41359933 10.1383069,8.41359933 9.1594304,9.96138088 C8.67149152,10.7337723 8.67149152,11.7494905 9.1594304,12.5214535 C10.1387353,14.0692351 12.3436707,14.0692351 13.3229756,12.5218819 M19.5248116,32.2472075 L3.75269059,16.4755149 C3.18250038,15.9048963 2.91304159,15.1003755 3.02485199,14.3014237 L4.14081406,6.33032734 C4.30017601,5.19380245 5.19337405,4.3006044 6.33032734,4.14167084 L14.3014237,3.02485199 C15.0999471,2.91304159 15.9048963,3.18250038 16.4750865,3.75269059 L32.2472075,19.5248116 C33.2509308,20.5281065 33.2509308,22.155569 32.2472075,23.1597207 L23.1592923,32.2472075 C22.155569,33.2509308 20.5281065,33.2509308 19.5248116,32.2472075"/>
  </defs>
  <g fill="none" fill-rule="evenodd">
    <circle cx="30" cy="30" r="30" fill="url(#group-5-a)"/>
    <g transform="translate(12 12)">
      <mask id="group-5-c" fill="#fff">
        <use xlink:href="#group-5-b"/>
      </mask>
      <g fill="#FFF" mask="url(#group-5-c)">
        <polygon points="0 0 36 0 36 36 0 36"/>
      </g>
    </g>
  </g>
</svg>
