<svg xmlns="http://www.w3.org/2000/svg" xmlns:xlink="http://www.w3.org/1999/xlink" width="60" height="60" viewBox="0 0 60 60">
  <defs>
    <linearGradient id="group-3-a" x1="50%" x2="50%" y1="0%" y2="100%">
      <stop offset="0%" stop-color="#FFA330"/>
      <stop offset="100%" stop-color="#F07379"/>
    </linearGradient>
    <path id="group-3-b" d="M31.4100722,6.00007222 C31.8329942,5.99602484 32.2397728,6.16224221 32.5388375,6.46130692 C32.8379022,6.76037163 33.0041196,7.16715022 33.0000722,7.59007222 L33.0000722,11.1600722 C33.0041196,11.5829942 32.8379022,11.9897728 32.5388375,12.2888375 C32.2397728,12.5879022 31.8329942,12.7541196 31.4100722,12.7500722 L4.59007222,12.7500722 C4.16715022,12.7541196 3.76037163,12.5879022 3.46130692,12.2888375 C3.16224221,11.9897728 2.99602484,11.5829942 3.00007222,11.1600722 L3.00007222,7.59007222 C2.99602484,7.16715022 3.16224221,6.76037163 3.46130692,6.46130692 C3.76037163,6.16224221 4.16715022,5.99602484 4.59007222,6.00007222 L31.4100722,6.00007222 Z M9.75007222,10.1250722 C10.1642858,10.1250722 10.5000722,9.78928578 10.5000722,9.37507222 C10.5000722,8.96085866 10.1642858,8.62507222 9.75007222,8.62507222 L6.75007222,8.62507222 C6.33585866,8.62507222 6.00007222,8.96085866 6.00007222,9.37507222 C6.00007222,9.78928578 6.33585866,10.1250722 6.75007222,10.1250722 L9.75007222,10.1250722 Z M31.4100722,23.2500722 C31.8329942,23.2460248 32.2397728,23.4122422 32.5388375,23.7113069 C32.8379022,24.0103716 33.0041196,24.4171502 33.0000722,24.8400722 L33.0000722,28.4100722 C33.0041196,28.8329942 32.8379022,29.2397728 32.5388375,29.5388375 C32.2397728,29.8379022 31.8329942,30.0041196 31.4100722,30.0000722 L4.59007222,30.0000722 C4.16715022,30.0041196 3.76037163,29.8379022 3.46130692,29.5388375 C3.16224221,29.2397728 2.99602484,28.8329942 3.00007222,28.4100722 L3.00007222,24.8400722 C2.99602484,24.4171502 3.16224221,24.0103716 3.46130692,23.7113069 C3.76037163,23.4122422 4.16715022,23.2460248 4.59007222,23.2500722 L31.4100722,23.2500722 Z M9.28507222,27.3750722 C9.69928578,27.3750722 10.0350722,27.0392858 10.0350722,26.6250722 C10.0350722,26.2108587 9.69928578,25.8750722 9.28507222,25.8750722 L6.28507222,25.8750722 C5.87085866,25.8750722 5.53507222,26.2108587 5.53507222,26.6250722 C5.53507222,27.0392858 5.87085866,27.3750722 6.28507222,27.3750722 L9.28507222,27.3750722 Z M31.4100722,14.6250722 C31.8329942,14.6210248 32.2397728,14.7872422 32.5388375,15.0863069 C32.8379022,15.3853716 33.0041196,15.7921502 33.0000722,16.2150722 L33.0000722,19.7850722 C33.0041196,20.2079942 32.8379022,20.6147728 32.5388375,20.9138375 C32.2397728,21.2129022 31.8329942,21.3791196 31.4100722,21.3750722 L4.59007222,21.3750722 C4.16715022,21.3791196 3.76037163,21.2129022 3.46130692,20.9138375 C3.16224221,20.6147728 2.99602484,20.2079942 3.00007222,19.7850722 L3.00007222,16.2150722 C2.99602484,15.7921502 3.16224221,15.3853716 3.46130692,15.0863069 C3.76037163,14.7872422 4.16715022,14.6210248 4.59007222,14.6250722 L31.4100722,14.6250722 Z M9.75007222,18.7500722 C10.1642858,18.7500722 10.5000722,18.4142858 10.5000722,18.0000722 C10.5000722,17.5858587 10.1642858,17.2500722 9.75007222,17.2500722 L6.75007222,17.2500722 C6.33585866,17.2500722 6.00007222,17.5858587 6.00007222,18.0000722 C6.00007222,18.4142858 6.33585866,18.7500722 6.75007222,18.7500722 L9.75007222,18.7500722 Z"/>
  </defs>
  <g fill="none" fill-rule="evenodd">
    <circle cx="30" cy="30" r="30" fill="url(#group-3-a)"/>
    <g transform="translate(12 12)">
      <mask id="group-3-c" fill="#fff">
        <use xlink:href="#group-3-b"/>
      </mask>
      <g fill="#FFF" mask="url(#group-3-c)">
        <polygon points="0 0 36 0 36 36 0 36"/>
      </g>
    </g>
  </g>
</svg>
