<svg xmlns="http://www.w3.org/2000/svg" width="577" height="538" viewBox="0 0 577 538">
  <defs>
    <linearGradient id="image-a" x1="-.16%" x2="100.32%" y1="50.107%" y2="50.107%">
      <stop offset="0%" stop-color="#FFF"/>
      <stop offset="33%" stop-color="#F7F7F7"/>
      <stop offset="52%" stop-color="#F5F5F5"/>
      <stop offset="96%" stop-color="#F3F3F3"/>
    </linearGradient>
    <linearGradient id="image-b" x1="29575%" x2="35028%" y1="28069%" y2="28069%">
      <stop offset="0%" stop-color="#FFF"/>
      <stop offset="33%" stop-color="#F7F7F7"/>
      <stop offset="52%" stop-color="#F5F5F5"/>
      <stop offset="96%" stop-color="#F3F3F3"/>
    </linearGradient>
    <linearGradient id="image-c" x1="51035%" x2="54901%" y1="10855%" y2="10855%">
      <stop offset="0%" stop-color="#FFF"/>
      <stop offset="33%" stop-color="#F7F7F7"/>
      <stop offset="52%" stop-color="#F5F5F5"/>
      <stop offset="96%" stop-color="#F3F3F3"/>
    </linearGradient>
    <linearGradient id="image-d" x1="32975%" x2="38246%" y1="20255%" y2="20255%">
      <stop offset="0%" stop-color="#FFF"/>
      <stop offset="33%" stop-color="#F7F7F7"/>
      <stop offset="52%" stop-color="#F5F5F5"/>
      <stop offset="96%" stop-color="#F3F3F3"/>
    </linearGradient>
    <linearGradient id="image-e" x1="50130%" x2="51329%" y1="7189%" y2="7189%">
      <stop offset="0%" stop-color="#FFF"/>
      <stop offset="33%" stop-color="#F7F7F7"/>
      <stop offset="52%" stop-color="#F5F5F5"/>
      <stop offset="96%" stop-color="#F3F3F3"/>
    </linearGradient>
    <linearGradient id="image-f" x1="60798%" x2="61997%" y1="20539%" y2="20539%">
      <stop offset="0%" stop-color="#FFF"/>
      <stop offset="33%" stop-color="#F7F7F7"/>
      <stop offset="52%" stop-color="#F5F5F5"/>
      <stop offset="96%" stop-color="#F3F3F3"/>
    </linearGradient>
    <linearGradient id="image-g" x1="60605%" x2="61804%" y1="31611%" y2="31611%">
      <stop offset="0%" stop-color="#FFF"/>
      <stop offset="33%" stop-color="#F7F7F7"/>
      <stop offset="52%" stop-color="#F5F5F5"/>
      <stop offset="96%" stop-color="#F3F3F3"/>
    </linearGradient>
    <linearGradient id="image-h" x1="28998%" x2="30197%" y1="40964%" y2="40964%">
      <stop offset="0%" stop-color="#FFF"/>
      <stop offset="33%" stop-color="#F7F7F7"/>
      <stop offset="52%" stop-color="#F5F5F5"/>
      <stop offset="96%" stop-color="#F3F3F3"/>
    </linearGradient>
    <linearGradient id="image-i" x1="33706%" x2="34905%" y1="38336%" y2="38336%">
      <stop offset="0%" stop-color="#FFF"/>
      <stop offset="33%" stop-color="#F7F7F7"/>
      <stop offset="52%" stop-color="#F5F5F5"/>
      <stop offset="96%" stop-color="#F3F3F3"/>
    </linearGradient>
    <linearGradient id="image-j" x1="29026%" x2="30225%" y1="17941%" y2="17941%">
      <stop offset="0%" stop-color="#FFF"/>
      <stop offset="33%" stop-color="#F7F7F7"/>
      <stop offset="52%" stop-color="#F5F5F5"/>
      <stop offset="96%" stop-color="#F3F3F3"/>
    </linearGradient>
    <linearGradient id="image-k" x1="34098%" x2="35297%" y1="14983%" y2="14983%">
      <stop offset="0%" stop-color="#FFF"/>
      <stop offset="33%" stop-color="#F7F7F7"/>
      <stop offset="52%" stop-color="#F5F5F5"/>
      <stop offset="96%" stop-color="#F3F3F3"/>
    </linearGradient>
    <linearGradient id="image-l" x1="32426%" x2="33625%" y1="6150%" y2="6150%">
      <stop offset="0%" stop-color="#FFF"/>
      <stop offset="33%" stop-color="#F7F7F7"/>
      <stop offset="52%" stop-color="#F5F5F5"/>
      <stop offset="96%" stop-color="#F3F3F3"/>
    </linearGradient>
    <linearGradient id="image-m" x1="32426%" x2="33625%" y1="32273%" y2="32273%">
      <stop offset="0%" stop-color="#FFF"/>
      <stop offset="33%" stop-color="#F7F7F7"/>
      <stop offset="52%" stop-color="#F5F5F5"/>
      <stop offset="96%" stop-color="#F3F3F3"/>
    </linearGradient>
  </defs>
  <g fill="none" fill-rule="evenodd">
    <polygon fill="#CCC" fill-rule="nonzero" points="349.35 394.92 310.99 417.1 310.99 416.2 349.35 394.02"/>
    <path fill="gray" fill-rule="nonzero" d="M300.75 399.13L300.75 458.13M299.75 399.13L299.75 458.13M362.75 366.13L362.75 424.13M361.75 366.13L361.75 424.13"/>
    <polygon fill="#F2F2F2" fill-rule="nonzero" points="351.49 396.14 349.35 394.9 349.35 393.99 351.49 395.23"/>
    <polygon fill="#CCC" fill-rule="nonzero" points="310.89 419.62 312.5 418.69 312.5 417.1 310.89 418.05"/>
    <path fill="#B3B3B3" fill-rule="nonzero" d="M390.59,295.84 L418.68,279.62 C419.549966,279.120095 420.620034,279.120095 421.49,279.62 L483.29,315.3 C484.155526,315.805589 484.687616,316.732625 484.687616,317.735 C484.687616,318.737375 484.155526,319.664411 483.29,320.17 L455.2,336.39 C454.330034,336.889905 453.259966,336.889905 452.39,336.39 L390.59,300.71 C389.724474,300.204411 389.192384,299.277375 389.192384,298.275 C389.192384,297.272625 389.724474,296.345589 390.59,295.84 Z"/>
    <path fill="#FFF" fill-rule="nonzero" d="M390.59,294.35 L418.68,278.13 C419.549966,277.630095 420.620034,277.630095 421.49,278.13 L483.29,313.81 C484.155978,314.312873 484.688901,315.238601 484.688901,316.24 C484.688901,317.241399 484.155978,318.167127 483.29,318.67 L455.2,334.89 C454.330034,335.389905 453.259966,335.389905 452.39,334.89 L390.59,299.21 C389.724022,298.707127 389.191099,297.781399 389.191099,296.78 C389.191099,295.778601 389.724022,294.852873 390.59,294.35 Z"/>
    <polygon fill="#333" fill-rule="nonzero" points="391.08 297.69 421.65 280.03 480.13 313.78 449.56 331.43"/>
    <ellipse cx="467.879" cy="324.027" stroke="#CCC" stroke-width=".5" rx="2.55" ry="1.44" transform="rotate(-32.87 467.879 324.027)"/>
    <path stroke="#FFF" stroke-width=".2" d="M251.98 487.55L74.97 385.28M119.27 165.89L62.97 133.35M176.94 536.94L.54 435.02M576.95 305.37L400.55 203.45M334.17 430.42L157.78 328.49M368.19 405.98L191.8 304.06M460.17 354.05L283.78 252.13M213.51 475.78L514.18 302.29M55.69 235.24L332.95 75.26"/>
    <path fill="#CCC" fill-rule="nonzero" d="M81,226.83 L81,369.83 C80.9985193,372.881788 82.6256491,375.70243 85.2682054,377.228965 C87.9107616,378.7555 91.1670738,378.755895 93.81,377.23 L294.51,261.34 C297.151983,259.817033 298.779971,256.999509 298.78,253.95 L298.78,110.95 C298.38,101.82 295.04,99.53 285.97,103.56 L85.25,219.43 C82.6126161,220.959834 80.9923264,223.781045 81,226.83 Z"/>
    <path fill="#B3B3B3" fill-rule="nonzero" d="M212.32,464.17 L95.32,398.4 C92.6785511,396.874252 91.0514839,394.055436 91.0514839,391.005 C91.0514839,387.954564 92.6785511,385.135748 95.32,383.61 L300.25,265 L428,337.17 C430.661051,338.690431 432.30333,341.520216 432.30333,344.585 C432.30333,347.649784 430.661051,350.479569 428,352 L351.52,396.18 L349.38,394.94 L311,417.1 L312.51,418.69 L233.65,464.16 C227.051708,467.971271 218.921862,467.975082 212.32,464.17 Z"/>
    <path fill="#333" fill-rule="nonzero" d="M82.45,227.89 L82.45,370.89 C82.4485193,373.941788 84.0756491,376.76243 86.7182054,378.288965 C89.3607616,379.8155 92.6170738,379.815895 95.26,378.29 L296,262.41 C298.645081,260.88525 300.273549,258.063081 300.27,255.01 L300.27,112 C299.87,102.86 296.53,100.58 287.45,104.6 L86.72,220.5 C84.0780167,222.022967 82.450029,224.840491 82.45,227.89 Z"/>
    <polygon fill="#F2F2F2" fill-rule="nonzero" points="93.53 227.04 93.53 367.56 290.65 253.7 290.65 113.19"/>
    <path fill="#FFF" fill-rule="nonzero" d="M348.8,393.68 L350.94,394.92 L427.81,350.27 C430.451449,348.744252 432.078516,345.925436 432.078516,342.875 C432.078516,339.824564 430.451449,337.005748 427.81,335.48 L304,264 C301.355175,262.470624 298.094825,262.470624 295.45,264 L222.71,306.08 L224.55,307.15 L160.55,344.15 L158.75,343.15 L94.75,380.15 C92.1085511,381.675748 90.4814839,384.494564 90.4814839,387.545 C90.4814839,390.595436 92.1085511,393.414252 94.75,394.94 L212.18,462.51 C218.777534,466.314331 226.902466,466.314331 233.5,462.51 L312.5,417.15 L310.36,415.91 L348.8,393.73"/>
    <path fill="#E6E6E6" fill-rule="nonzero" d="M295.05,421.51 L258.13,400.51 C257.466214,400.128175 257.05704,399.420769 257.05704,398.655 C257.05704,397.889231 257.466214,397.181825 258.13,396.8 L317.9,362.3 C318.555373,361.919224 319.364627,361.919224 320.02,362.3 L356.94,383.3 C357.603786,383.681825 358.01296,384.389231 358.01296,385.155 C358.01296,385.920769 357.603786,386.628175 356.94,387.01 L297.17,421.51 C296.514627,421.890776 295.705373,421.890776 295.05,421.51 Z"/>
    <path fill="#B3B3B3" fill-rule="nonzero" d="M358,385.58 C357.903147,384.975385 357.534664,384.448453 357,384.15 L320.08,363.15 C319.411868,362.790871 318.608132,362.790871 317.94,363.15 L317.62,363.33 L317.5,363.39 L258.18,397.64 L257.73,397.9 C257.491312,398.027325 257.28581,398.208852 257.13,398.43 C257.168876,397.734708 257.566612,397.109694 258.18,396.78 L317.94,362.28 C318.608132,361.920871 319.411868,361.920871 320.08,362.28 L357,383.28 C357.797202,383.748362 358.201198,384.677551 358,385.58 Z"/>
    <polygon fill="#333" fill-rule="nonzero" points="133.7 373.03 145.48 366.23 151.88 369.93 140.1 376.73"/>
    <polygon fill="#333" fill-rule="nonzero" points="108.07 388.1 132.67 373.63 139.07 377.33 114.48 391.8"/>
    <polygon fill="#333" fill-rule="nonzero" points="146.51 365.65 158.29 358.85 164.69 362.55 152.91 369.35"/>
    <polygon fill="#333" fill-rule="nonzero" points="159.32 358.24 171.1 351.44 177.5 355.14 165.73 361.94"/>
    <polygon fill="#333" fill-rule="nonzero" points="172.13 350.86 183.91 344.06 190.31 347.76 178.54 354.56"/>
    <polygon fill="#333" fill-rule="nonzero" points="197.75 336.05 209.53 329.25 215.94 332.95 204.16 339.75"/>
    <polygon fill="#333" fill-rule="nonzero" points="210.56 328.67 222.35 321.86 228.75 325.56 216.97 332.36"/>
    <polygon fill="#333" fill-rule="nonzero" points="223.38 321.23 235.16 314.43 241.56 318.13 229.78 324.93"/>
    <polygon fill="#333" fill-rule="nonzero" points="236.19 313.86 247.97 307.06 254.37 310.76 242.59 317.56"/>
    <polygon fill="#333" fill-rule="nonzero" points="249 306.47 260.78 299.67 267.18 303.37 255.41 310.17"/>
    <polygon fill="#333" fill-rule="nonzero" points="261.81 299.05 273.59 292.25 280 295.94 268.22 302.74"/>
    <polygon fill="#333" fill-rule="nonzero" points="274.62 291.67 286.4 284.87 292.81 288.57 281.03 295.37"/>
    <polygon fill="#333" fill-rule="nonzero" points="287.43 284.28 299.22 277.48 305.62 281.18 293.84 287.98"/>
    <polygon fill="#333" fill-rule="nonzero" points="184.94 343.43 196.72 336.63 203.13 340.33 191.35 347.13"/>
    <polygon fill="#333" fill-rule="nonzero" points="196.72 365.99 184.94 372.79 172.13 365.5 183.91 358.7"/>
    <polygon fill="#333" fill-rule="nonzero" points="299.22 306.82 287.43 313.62 274.62 306.33 286.4 299.53"/>
    <polygon fill="#333" fill-rule="nonzero" points="324.84 291.75 300.25 306.22 287.43 298.93 312.02 284.46"/>
    <polygon fill="#333" fill-rule="nonzero" points="286.4 314.2 274.62 321 261.81 313.71 273.59 306.91"/>
    <polygon fill="#333" fill-rule="nonzero" points="273.59 321.61 261.81 328.41 249 321.12 260.78 314.32"/>
    <polygon fill="#333" fill-rule="nonzero" points="260.78 328.99 249 335.79 236.19 328.5 247.97 321.7"/>
    <polygon fill="#333" fill-rule="nonzero" points="235.16 343.8 223.38 350.6 210.56 343.31 222.34 336.51"/>
    <polygon fill="#333" fill-rule="nonzero" points="222.35 351.19 210.56 357.99 197.75 350.69 209.53 343.89"/>
    <polygon fill="#333" fill-rule="nonzero" points="209.53 358.62 197.75 365.43 184.94 358.13 196.72 351.33"/>
    <polygon fill="#333" fill-rule="nonzero" points="183.91 373.38 172.13 380.18 159.32 372.88 171.1 366.08"/>
    <polygon fill="#333" fill-rule="nonzero" points="171.1 380.81 159.32 387.61 146.51 380.31 158.29 373.51"/>
    <polygon fill="#333" fill-rule="nonzero" points="158.29 388.18 146.51 394.98 133.7 387.69 145.48 380.89"/>
    <polygon fill="#333" fill-rule="nonzero" points="145.48 395.57 133.7 402.37 120.88 395.07 132.66 388.27"/>
    <polygon fill="#333" fill-rule="nonzero" points="247.97 336.42 236.19 343.22 223.38 335.92 235.16 329.12"/>
    <polygon fill="#333" fill-rule="nonzero" points="172.17 396 147.57 410.19 134.76 402.9 159.36 388.71"/>
    <polygon fill="#333" fill-rule="nonzero" points="313.1 314.54 301.32 321.34 288.51 314.05 300.29 307.25"/>
    <polygon fill="#333" fill-rule="nonzero" points="326.01 307.1 314.23 313.9 301.42 306.61 313.2 299.81"/>
    <polygon fill="#333" fill-rule="nonzero" points="338.72 299.77 326.94 306.57 314.13 299.27 325.9 292.47"/>
    <polygon fill="#333" fill-rule="nonzero" points="300.29 321.93 288.51 328.73 275.7 321.43 287.48 314.63"/>
    <polygon fill="#333" fill-rule="nonzero" points="287.48 329.33 275.7 336.13 262.89 328.84 274.67 322.04"/>
    <polygon fill="#333" fill-rule="nonzero" points="274.67 336.71 262.89 343.51 250.08 336.22 261.86 329.42"/>
    <polygon fill="#333" fill-rule="nonzero" points="249.05 351.52 237.26 358.32 224.45 351.03 236.23 344.23"/>
    <polygon fill="#333" fill-rule="nonzero" points="236.23 358.91 224.45 365.71 211.64 358.41 223.42 351.62"/>
    <polygon fill="#333" fill-rule="nonzero" points="223.42 366.35 211.64 373.15 198.83 365.85 210.61 359.05"/>
    <polygon fill="#333" fill-rule="nonzero" points="210.61 373.71 198.83 380.51 186.02 373.22 197.8 366.42"/>
    <polygon fill="#333" fill-rule="nonzero" points="197.8 381.1 186.02 387.9 173.21 380.61 184.99 373.81"/>
    <polygon fill="#333" fill-rule="nonzero" points="184.99 388.53 173.21 395.33 160.4 388.03 172.18 381.23"/>
    <polygon fill="#333" fill-rule="nonzero" points="261.86 344.14 250.08 350.94 237.26 343.64 249.04 336.85"/>
    <polygon fill="#333" fill-rule="nonzero" points="185.92 404.06 161.32 418.24 148.51 410.95 173.1 396.76"/>
    <polygon fill="#333" fill-rule="nonzero" points="326.85 322.59 315.07 329.39 302.26 322.1 314.04 315.3"/>
    <polygon fill="#333" fill-rule="nonzero" points="339.76 315.15 327.98 321.95 315.17 314.66 326.95 307.86"/>
    <polygon fill="#333" fill-rule="nonzero" points="352.46 307.82 340.68 314.62 327.87 307.32 339.65 300.52"/>
    <polygon fill="#333" fill-rule="nonzero" points="314.04 329.98 302.26 336.78 289.45 329.48 301.22 322.68"/>
    <polygon fill="#333" fill-rule="nonzero" points="301.23 337.38 289.45 344.19 276.63 336.89 288.41 330.09"/>
    <polygon fill="#333" fill-rule="nonzero" points="288.41 344.76 276.63 351.56 263.82 344.27 275.6 337.47"/>
    <polygon fill="#333" fill-rule="nonzero" points="262.79 359.58 251.01 366.38 238.2 359.08 249.98 352.28"/>
    <polygon fill="#333" fill-rule="nonzero" points="249.98 366.96 238.2 373.76 225.39 366.47 237.17 359.67"/>
    <polygon fill="#333" fill-rule="nonzero" points="237.17 374.4 225.39 381.2 212.58 373.9 224.36 367.1"/>
    <polygon fill="#333" fill-rule="nonzero" points="224.36 381.77 212.58 388.57 199.76 381.27 211.54 374.47"/>
    <polygon fill="#333" fill-rule="nonzero" points="211.55 389.15 199.76 395.95 186.95 388.66 198.73 381.86"/>
    <polygon fill="#333" fill-rule="nonzero" points="198.73 396.58 186.95 403.38 174.14 396.08 185.92 389.29"/>
    <polygon fill="#333" fill-rule="nonzero" points="275.6 352.19 263.82 358.99 251.01 351.7 262.79 344.9"/>
    <polygon fill="#333" fill-rule="nonzero" points="199.93 411.98 175.33 426.16 162.52 418.87 187.11 404.68"/>
    <polygon fill="#333" fill-rule="nonzero" points="340.86 330.51 329.08 337.31 316.27 330.02 328.05 323.22"/>
    <polygon fill="#333" fill-rule="nonzero" points="353.77 323.07 341.99 329.87 329.18 322.57 340.96 315.77"/>
    <polygon fill="#333" fill-rule="nonzero" points="366.47 315.74 354.69 322.54 341.88 315.24 353.66 308.44"/>
    <polygon fill="#333" fill-rule="nonzero" points="328.05 337.89 316.27 344.7 303.46 337.4 315.24 330.6"/>
    <polygon fill="#333" fill-rule="nonzero" points="315.24 345.3 303.46 352.1 290.65 344.81 302.42 338.01"/>
    <polygon fill="#333" fill-rule="nonzero" points="302.43 352.68 290.65 359.48 277.83 352.19 289.61 345.39"/>
    <polygon fill="#333" fill-rule="nonzero" points="276.8 367.49 265.02 374.29 252.21 367 263.99 360.2"/>
    <polygon fill="#333" fill-rule="nonzero" points="263.99 374.88 252.21 381.68 239.4 374.38 251.18 367.58"/>
    <polygon fill="#333" fill-rule="nonzero" points="251.18 382.31 239.4 389.12 226.59 381.82 238.37 375.02"/>
    <polygon fill="#333" fill-rule="nonzero" points="238.37 389.68 226.59 396.48 213.78 389.19 225.56 382.39"/>
    <polygon fill="#333" fill-rule="nonzero" points="225.56 397.07 213.78 403.87 200.96 396.57 212.74 389.77"/>
    <polygon fill="#333" fill-rule="nonzero" points="212.75 404.5 200.96 411.3 188.15 404 199.93 397.2"/>
    <polygon fill="#333" fill-rule="nonzero" points="289.62 360.11 277.83 366.91 265.02 359.62 276.8 352.81"/>
    <polygon fill="#333" fill-rule="nonzero" points="213.38 420.07 188.79 434.25 175.97 426.96 200.56 412.78"/>
    <polygon fill="#333" fill-rule="nonzero" points="354.31 338.61 342.53 345.4 329.72 338.11 341.5 331.31"/>
    <polygon fill="#333" fill-rule="nonzero" points="367.22 331.16 355.44 337.96 342.63 330.67 354.41 323.87"/>
    <polygon fill="#333" fill-rule="nonzero" points="379.93 323.83 368.15 330.63 355.33 323.34 367.11 316.54"/>
    <polygon fill="#333" fill-rule="nonzero" points="341.5 345.99 329.72 352.79 316.91 345.5 328.69 338.7"/>
    <polygon fill="#333" fill-rule="nonzero" points="328.69 353.4 316.91 360.2 304.1 352.9 315.88 346.11"/>
    <polygon fill="#333" fill-rule="nonzero" points="315.88 360.78 304.1 367.58 291.29 360.28 303.07 353.48"/>
    <polygon fill="#333" fill-rule="nonzero" points="290.25 375.59 278.47 382.39 265.66 375.09 277.44 368.3"/>
    <polygon fill="#333" fill-rule="nonzero" points="277.44 382.97 265.66 389.77 252.85 382.48 264.63 375.68"/>
    <polygon fill="#333" fill-rule="nonzero" points="315.75 360.78 252.85 397.21 240.04 389.92 302.94 353.48"/>
    <polygon fill="#333" fill-rule="nonzero" points="251.82 397.78 240.04 404.58 227.23 397.28 239.01 390.49"/>
    <polygon fill="#333" fill-rule="nonzero" points="239.01 405.16 227.23 411.96 214.42 404.67 226.2 397.87"/>
    <polygon fill="#333" fill-rule="nonzero" points="226.2 412.59 214.42 419.39 201.61 412.1 213.38 405.3"/>
    <polygon fill="#333" fill-rule="nonzero" points="303.07 368.2 291.29 375 278.47 367.71 290.25 360.91"/>
    <path stroke="red" stroke-linecap="round" stroke-width="3.2" d="M120.75,247.38 L172.13,217.7"/>
    <path stroke="#22B573" stroke-linecap="round" stroke-width="3.2" d="M108.07,239.89 L153.91,213.43"/>
    <path stroke="#F7931E" stroke-linecap="round" stroke-width="3.2" d="M175.87,215.36 L196.15,204.01"/>
    <path stroke="#22B573" stroke-linecap="round" stroke-width="3.2" d="M199.36,201.94 L219.64,190.6"/>
    <path stroke="#F7931E" stroke-linecap="round" stroke-width="3.2" d="M108.07,269.48 L146.51,247.38"/>
    <path stroke="red" stroke-linecap="round" stroke-width="3.2" d="M151.05,244.45 L167.73,235.24"/>
    <path stroke="#39B54A" stroke-linecap="round" stroke-width="3.2" d="M172.05,232.54 L210.57,210.3"/>
    <path stroke="#22B573" stroke-linecap="round" stroke-width="3.2" d="M108.07 284.27L133.7 269.48M137.7 266.87L159.39 254.72"/>
    <path stroke="#0071BC" stroke-linecap="round" stroke-width="3.2" d="M163.32 252.19L210.57 225.37M214.97 222.56L249 202.91"/>
    <path stroke="#F7931E" stroke-linecap="round" stroke-width="3.2" d="M120.75,291.59 L159.39,269.52"/>
    <path stroke="red" stroke-linecap="round" stroke-width="3.2" d="M163.32,267.17 L184.94,254.68"/>
    <path stroke="#22B573" stroke-linecap="round" stroke-width="3.2" d="M188.59,252.54 L223.29,232.54"/>
    <path stroke="red" stroke-linecap="round" stroke-width="3.2" d="M108.07,313.53 L172.13,276.87"/>
    <path stroke="#39B54A" stroke-linecap="round" stroke-width="3.2" d="M176.4,273.99 L210.09,254.41"/>
    <path stroke="#FFF" stroke-width=".2" d="M80.97 214.47L80.97 395.93M300.29 78.17L300.29 294.17"/>
    <path stroke="url(#image-a)" stroke-dasharray="2" d="M173.75,75.19 L329.72,165.24 L330.17,276.88 L290.65,253.7"/>
    <path stroke="url(#image-b)" stroke-dasharray="2" d="M66.03,109.78 L12.25,141.14 L12.25,371.13 L59.98,342.06"/>
    <path stroke="url(#image-c)" stroke-dasharray="2" d="M226.59,29.49 L263.75,9.5 L264.51,128.44"/>
    <path stroke="url(#image-d)" stroke-dasharray="2" d="M98.2,52.96 L46.25,21.5 L46.25,284.13 L80.98,304.06"/>
    <path fill="#0070BC" fill-rule="nonzero" stroke="url(#image-e)" stroke-dasharray="2" d="M223.29,37.39 C226.327566,37.39 228.79,34.9275661 228.79,31.89 C228.79,28.8524339 226.327566,26.39 223.29,26.39 C220.252434,26.39 217.79,28.8524339 217.79,31.89 C217.79,34.9275661 220.252434,37.39 223.29,37.39 Z"/>
    <path fill="#0070BC" fill-rule="nonzero" stroke="url(#image-f)" stroke-dasharray="2" d="M329.97,170.89 C333.007566,170.89 335.47,168.427566 335.47,165.39 C335.47,162.352434 333.007566,159.89 329.97,159.89 C326.932434,159.89 324.47,162.352434 324.47,165.39 C324.47,168.427566 326.932434,170.89 329.97,170.89 Z"/>
    <path fill="#0070BC" fill-rule="nonzero" stroke="url(#image-g)" stroke-dasharray="2" d="M328.05,281.61 C331.087566,281.61 333.55,279.147566 333.55,276.11 C333.55,273.072434 331.087566,270.61 328.05,270.61 C325.012434,270.61 322.55,273.072434 322.55,276.11 C322.55,279.147566 325.012434,281.61 328.05,281.61 Z"/>
    <path fill="#333" fill-rule="nonzero" d="M206.92,30 C208.02731,33.6968871 208.563492,37.5412115 208.51,41.4 C208.51,61.7 196.18,85.27 180.96,94.06 L98.28,141.79 C96.8674143,142.615104 95.3850444,143.314462 93.85,143.88 L99,154.15 L82.27,144.22 C75.27,141.58 70.75,133.31 70.75,120.99 C70.75,102.46 81.04,81.19 94.41,70.99 C95.74,58.63 103.25,45.41 112.32,40.17 C114.716494,38.6364154 117.527405,37.8786916 120.37,38 C125.74,23.5 135.27,10.43 146.13,4.16 C153.66,-0.19 160.56,-0.52 165.87,2.47 L166.18,2.65 L184.27,13 L174.33,13.21 C175.52942,16.5883085 176.239934,20.1206774 176.44,23.7 C177.878653,22.551799 179.403108,21.5154367 181,20.6 C188.32,16.37 195,16.34 199.89,19.69 L217.27,29.59 L206.92,30 Z"/>
    <path fill="#FFF" fill-rule="nonzero" d="M227.87,52.46 C227.87,72.75 215.53,96.32 200.31,105.11 L117.64,152.84 C102.42,161.63 90.08,152.3 90.08,132.01 C90.08,113.48 100.37,92.21 113.74,82.01 C115.07,69.65 122.58,56.43 131.65,51.2 C134.046809,49.6476304 136.866956,48.8788169 139.72,49 C145.1,34.5 154.62,21.44 165.48,15.17 C181.39,5.98 194.48,14.72 195.8,34.69 C197.222159,33.5402864 198.729856,32.5006102 200.31,31.58 C215.53,22.83 227.87,32.16 227.87,52.46 Z"/>
    <path fill="#0070BC" fill-rule="nonzero" stroke="url(#image-h)" stroke-dasharray="2" d="M11.97,375.14 C15.0075661,375.14 17.47,372.677566 17.47,369.64 C17.47,366.602434 15.0075661,364.14 11.97,364.14 C8.93243388,364.14 6.47,366.602434 6.47,369.64 C6.47,372.677566 8.93243388,375.14 11.97,375.14 Z"/>
    <path fill="#0070BC" fill-rule="nonzero" stroke="url(#image-i)" stroke-dasharray="2" d="M59.06,348.86 C62.0975661,348.86 64.56,346.397566 64.56,343.36 C64.56,340.322434 62.0975661,337.86 59.06,337.86 C56.0224339,337.86 53.56,340.322434 53.56,343.36 C53.56,346.397566 56.0224339,348.86 59.06,348.86 Z"/>
    <path fill="#0070BC" fill-rule="nonzero" stroke="url(#image-j)" stroke-dasharray="2" d="M12.25,144.91 C15.2875661,144.91 17.75,142.447566 17.75,139.41 C17.75,136.372434 15.2875661,133.91 12.25,133.91 C9.21243388,133.91 6.75,136.372434 6.75,139.41 C6.75,142.447566 9.21243388,144.91 12.25,144.91 Z"/>
    <path fill="#0070BC" fill-rule="nonzero" stroke="url(#image-k)" stroke-dasharray="2" d="M62.97,115.33 C66.0075661,115.33 68.47,112.867566 68.47,109.83 C68.47,106.792434 66.0075661,104.33 62.97,104.33 C59.9324339,104.33 57.47,106.792434 57.47,109.83 C57.47,112.867566 59.9324339,115.33 62.97,115.33 Z"/>
    <path fill="#0070BC" fill-rule="nonzero" stroke="url(#image-l)" stroke-dasharray="2" d="M46.25,27 C49.2875661,27 51.75,24.5375661 51.75,21.5 C51.75,18.4624339 49.2875661,16 46.25,16 C43.2124339,16 40.75,18.4624339 40.75,21.5 C40.75,24.5375661 43.2124339,27 46.25,27 Z"/>
    <path fill="#0070BC" fill-rule="nonzero" stroke="url(#image-m)" stroke-dasharray="2" d="M46.25,288.23 C49.2875661,288.23 51.75,285.767566 51.75,282.73 C51.75,279.692434 49.2875661,277.23 46.25,277.23 C43.2124339,277.23 40.75,279.692434 40.75,282.73 C40.75,285.767566 43.2124339,288.23 46.25,288.23 Z"/>
    <path fill="gray" fill-rule="nonzero" d="M513.37,314.5 L509.55,312.29 C510.660967,311.86517 511.903372,311.956793 512.94,312.54 C513.91,313.08 514.19,314 513.37,314.5 Z"/>
    <path fill="#CCC" fill-rule="nonzero" d="M534.56,321.75 C534.569885,321.809593 534.569885,321.870407 534.56,321.93 L532.77,320.93 C532.964072,320.761295 533.212854,320.66889 533.47,320.67 C534.065893,320.675319 534.549189,321.154181 534.56,321.75 Z"/>
    <path fill="#FFF" fill-rule="nonzero" d="M505.77,319 L513.77,314.39 L506.95,310.46 C504.493909,309.03959 501.466091,309.03959 499.01,310.46 C498.18173,310.938983 497.671641,311.823205 497.671641,312.78 C497.671641,313.736795 498.18173,314.621017 499.01,315.1 L505.77,319 Z"/>
    <polygon fill="gray" fill-rule="nonzero" points="513.75 314.75 505.75 319.37 505.75 319.02 513.75 314.4"/>
    <path fill="#0070BC" fill-rule="nonzero" d="M504.38,316.94 C504.949668,317.25828 505.631596,317.305942 506.24,317.07 L510.89,314.41 C511.34,314.15 511.18,313.63 510.66,313.33 C510.090232,313.013825 509.410677,312.962675 508.8,313.19 L504.15,315.86 C503.7,316.12 503.86,316.63 504.38,316.94 Z"/>
    <path fill="#0070BC" fill-rule="nonzero" d="M504.38,316.94 C504.949668,317.25828 505.631596,317.305942 506.24,317.07 L510.89,314.41 C511.34,314.15 511.18,313.63 510.66,313.33 C510.090232,313.013825 509.410677,312.962675 508.8,313.19 L504.15,315.86 C503.7,316.12 503.86,316.63 504.38,316.94 Z"/>
    <path fill="gray" fill-rule="nonzero" d="M511.14,314 C511.037513,313.871374 510.912058,313.762873 510.77,313.68 C510.199611,313.353925 509.512582,313.302489 508.9,313.54 L504.26,316.2 C504.122046,316.275988 504.029027,316.413656 504.01,316.57 C503.914544,316.459563 503.875819,316.311041 503.9052,316.168055 C503.934581,316.025068 504.028731,315.90385 504.16,315.84 L508.8,313.17 C509.411209,312.92346 510.102314,312.975201 510.67,313.31 C510.948579,313.427738 511.132437,313.697657 511.14,314 Z"/>
    <path fill="#FFF" fill-rule="nonzero" d="M513.37 314.2L509.55 312C510.660967 311.57517 511.903372 311.666793 512.94 312.25 513.91 312.79 514.19 313.73 513.37 314.2zM525.16 317.26L525.16 318.59C525.04 318.22 524.92 317.85 524.79 317.48L525.16 317.26z"/>
    <path fill="#CCC" fill-rule="nonzero" d="M507.42,308.22 C507.42,308.22 504.13,310.93 506.34,319.03 L513.75,314.75 C513.598318,313.404462 513.998845,312.054937 514.86,311.01 C515.830575,309.601914 516.632717,308.084892 517.25,306.49 L511.91,306.75 L507.42,308.22 Z"/>
    <path fill="#FFF" fill-rule="nonzero" d="M525.16,314.75 C525.16,317.11 524.34,318.75 523.06,319.45 L515.4,323.66 C516.49,322.88 517.15,321.94 517.15,319.8 C517.138356,318.822338 517.014205,317.849266 516.78,316.9 C516.240592,314.719155 515.215017,312.688517 513.78,310.96 C513.074848,310.081431 512.217974,309.336323 511.25,308.76 C509.8,307.94 508.34,307.76 507.32,308.28 L515.95,303.15 C517.087807,302.839227 518.304292,303.032262 519.29,303.68 C522.52,305.55 525.16,310.49 525.16,314.75 Z"/>
    <polygon fill="#FFF" fill-rule="nonzero" points="532 304.25 532.09 304.2 532.09 304.2"/>
    <polygon fill="#FFF" fill-rule="nonzero" points="532.21 304.14 532.08 304.2 532.08 304.2"/>
    <path stroke="gray" stroke-width=".3" d="M506.33,319 C506.33,319 504.33,311.06 507.47,308.34 C507.87106,308.083584 508.345876,307.967518 508.82,308.01 C510.19,308.01 513.27,308.8 515.89,314.45 C515.89,314.45 517.72,318.83 516.73,322.08"/>
    <path fill="#FFF" fill-rule="nonzero" d="M532,334 L542.14,328.15 C542.469456,327.958437 542.672157,327.606101 542.672157,327.225 C542.672157,326.843899 542.469456,326.491563 542.14,326.3 L526.9,317.43 C526.237334,317.049777 525.422666,317.049777 524.76,317.43 L514.62,323.29 C514.290544,323.481563 514.087843,323.833899 514.087843,324.215 C514.087843,324.596101 514.290544,324.948437 514.62,325.14 L529.87,334 C530.530111,334.37641 531.339889,334.37641 532,334 Z"/>
    <path fill="gray" fill-rule="nonzero" d="M542.69 327.36L542.69 329.12C542.694916 329.159849 542.694916 329.200151 542.69 329.24 542.663264 329.577498 542.46758 329.878551 542.17 330.04L532 335.9C531.340976 336.280488 530.529024 336.280488 529.87 335.9L514.64 327C514.311411 326.81029 514.10928 326.459421 514.11 326.08L514.11 324.2C514.099702 324.579322 514.304987 324.931793 514.64 325.11L515.89 325.83 529.89 333.95C530.549024 334.330488 531.360976 334.330488 532.02 333.95L540.88 328.83 542.14 328.11C542.427717 327.942876 542.620264 327.650352 542.66 327.32L542.69 327.36zM553.93 330.75L553.93 330.87C553.934916 330.830151 553.934916 330.789849 553.93 330.75z"/>
    <polyline fill="#333" fill-rule="nonzero" points="530.53 333.6 541.92 327.02 526.47 317.86 514.86 324.56 530.53 333.6"/>
    <polygon fill="gray" fill-rule="nonzero" points="536.08 336.11 533.03 334.36 533.03 334.01 536.08 335.76"/>
    <polygon fill="#FFF" fill-rule="nonzero" points="536.08 335.76 544.31 331.07 541.26 329.33 533.03 334.02"/>
    <polygon fill="gray" fill-rule="nonzero" points="543.98 363.92 535.76 368.61 535.76 335.9 543.98 331.21"/>
    <ellipse cx="539.854" cy="366.186" fill="gray" fill-rule="nonzero" rx="6.32" ry="3.58" transform="rotate(-66.95 539.854 366.186)"/>
    <polygon fill="#F2F2F2" fill-rule="nonzero" points="544.27 363.76 536.04 368.45 536.04 335.74 544.27 331.05"/>
    <ellipse cx="540.141" cy="366.103" fill="#F2F2F2" fill-rule="nonzero" rx="6.32" ry="3.58" transform="rotate(-66.95 540.14 366.103)"/>
  </g>
</svg>
