<svg id="Layer_1" data-name="Layer 1" xmlns="http://www.w3.org/2000/svg" xmlns:xlink="http://www.w3.org/1999/xlink" viewBox="0 0 166 120"><defs><style>.cls-1{fill:url(#linear-gradient);}.cls-2{fill:#766de8;}.cls-3{fill:#f7cf06;}.cls-4{fill:#f37c6a;}.cls-5{fill:url(#linear-gradient-2);}.cls-6{fill:url(#linear-gradient-3);}.cls-7{fill:url(#linear-gradient-4);}.cls-8{fill:url(#linear-gradient-5);}.cls-9{fill:url(#linear-gradient-6);}</style><linearGradient id="linear-gradient" x1="1039.48" y1="434.38" x2="1070.85" y2="480.61" gradientTransform="matrix(1.01, -0.6, 0.6, 0.71, -1277.11, 387.3)" gradientUnits="userSpaceOnUse"><stop offset="0" stop-color="#9c95ff"/><stop offset="1" stop-color="#766de8"/></linearGradient><linearGradient id="linear-gradient-2" x1="-101.89" y1="-231.44" x2="10.36" y2="-231.44" gradientTransform="matrix(1.02, 0.06, -0.05, 0.89, 116.47, 261.74)" gradientUnits="userSpaceOnUse"><stop offset="0" stop-color="#58f1ff"/><stop offset="1" stop-color="#42a1ff"/></linearGradient><linearGradient id="linear-gradient-3" x1="-252.26" y1="-272.13" x2="-220.38" y2="-272.13" gradientTransform="matrix(-0.4, -0.74, -0.47, 0.25, -101.37, -14.07)" gradientUnits="userSpaceOnUse"><stop offset="0" stop-color="#ffa330"/><stop offset="1" stop-color="#f07379"/></linearGradient><linearGradient id="linear-gradient-4" x1="85.3" y1="86.77" x2="85.3" y2="9.15" gradientUnits="userSpaceOnUse"><stop offset="0" stop-color="#bed5ff"/><stop offset="1" stop-color="#fff"/></linearGradient><linearGradient id="linear-gradient-5" x1="85.3" y1="114.04" x2="85.3" y2="58.13" gradientUnits="userSpaceOnUse"><stop offset="0" stop-color="#387dff"/><stop offset="1" stop-color="#5690ff"/></linearGradient><linearGradient id="linear-gradient-6" x1="368.39" y1="150.42" x2="381.77" y2="161.3" gradientTransform="matrix(0.99, -0.14, 0.14, 0.99, -245.79, -43.61)" xlink:href="#linear-gradient-3"/></defs><title>Artboard 1 copy 2</title><path id="Oval-2-Copy-2" class="cls-1" d="M57.79,54.66c-17.94,1.64-29.22,19.11-25,32.46s15.23,23.77,35.28,15.35S102,82.4,97.71,69.06,75.72,53,57.79,54.66Z"/><circle id="Oval-4" class="cls-2" cx="145.13" cy="32.26" r="2.12"/><path id="Shape" class="cls-3" d="M20.6,32.55,14,34.82a2.24,2.24,0,0,1-2.93-2.56l1.42-7.09A2.24,2.24,0,0,1,16.23,24l5.17,4.82A2.24,2.24,0,0,1,20.6,32.55Z"/><path id="Shape-2" data-name="Shape" class="cls-4" d="M13.4,54.07a3.19,3.19,0,1,1,3.18-3.18A3.19,3.19,0,0,1,13.4,54.07Zm0-4.83A1.59,1.59,0,1,0,15,50.83,1.6,1.6,0,0,0,13.4,49.24Z"/><path id="Oval-2-Copy" class="cls-5" d="M135,70.56c13.61-23-2.93-47.31-29.55-59.56S44.76,9.93,31.15,32.91,28.08,84.45,54.7,96.7,121.42,93.54,135,70.56Z"/><path id="Oval-2-Copy-3" class="cls-6" d="M94.1,109.92c-4.22-5.37.89-14.94,10.71-22.6,14.91-11.65,46-11.29,47.59-3,2.89,15.48-24.59,13.5-36,19.54S98.32,115.28,94.1,109.92Z"/><path class="cls-7" d="M123.4,38.63a24.22,24.22,0,0,0-8,1.36A38.05,38.05,0,1,0,41.16,56.52H38.25A15.18,15.18,0,0,0,23.12,71.65h0A15.17,15.17,0,0,0,38.25,86.77h82.43c.41,0,.81,0,1.21,0s1,0,1.51,0a24.07,24.07,0,0,0,0-48.14Z"/><path class="cls-8" d="M82.81,59.16,62.48,78.66C61.14,80,62,82.42,63.73,82.42H73.84v27.34A4.07,4.07,0,0,0,77.66,114H92.93a4.07,4.07,0,0,0,3.82-4.28V82.42h10.12c1.77,0,2.59-2.47,1.24-3.76L87.78,59.16A3.52,3.52,0,0,0,82.81,59.16Z"/><path id="Oval-2-Copy-3-2" data-name="Oval-2-Copy-3" class="cls-9" d="M147.25,67.13c4.29-.17,7.65-3.89,8.4-8.42,1.15-6.88-5.36-10.43-9.57-8.24s-7.73,4.86-7.09,9.41S143,67.3,147.25,67.13Z"/></svg>