<svg xmlns="http://www.w3.org/2000/svg" xmlns:xlink="http://www.w3.org/1999/xlink" width="60" height="60" viewBox="0 0 60 60">
  <defs>
    <linearGradient id="group-7-a" x1="50%" x2="50%" y1=".005%" y2="100.005%">
      <stop offset="0%" stop-color="#58F1FF"/>
      <stop offset="100%" stop-color="#47B3FF"/>
    </linearGradient>
    <path id="group-7-b" d="M29.6666667,6 L6.33333333,6 C4.49238417,6 3,7.49238417 3,9.33333333 L3,26 C3,27.8409492 4.49238417,29.3333333 6.33333333,29.3333333 L29.6666667,29.3333333 C31.5076158,29.3333333 33,27.8409492 33,26 L33,9.33333333 C33,7.49238417 31.5076158,6 29.6666667,6 Z M15.4833333,11.85 L12.15,15.1833333 C12.0009863,15.3052927 11.7951788,15.3308427 11.6208668,15.2490228 C11.4465548,15.1672029 11.3347181,14.9925545 11.3333333,14.8 L11.3333333,11.4666667 C11.3376782,11.3384527 11.3928169,11.2172258 11.4866022,11.1296929 C11.5803875,11.0421599 11.7051246,10.9955027 11.8333333,11 L15.1666667,11 C15.3607192,11.0151479 15.5283441,11.1415327 15.5962957,11.323929 C15.6642473,11.5063254 15.6201737,11.7115783 15.4833333,11.85 Z M18,19.3333333 C17.0795254,19.3333333 16.3333333,18.5871412 16.3333333,17.6666667 C16.3333333,16.7461921 17.0795254,16 18,16 C18.9204746,16 19.6666667,16.7461921 19.6666667,17.6666667 C19.6666667,18.5871412 18.9204746,19.3333333 18,19.3333333 Z M24.6666667,23.8333333 C24.6713727,23.9673289 24.620207,24.0972585 24.5253994,24.1920661 C24.4305918,24.2868737 24.3006622,24.3380393 24.1666667,24.3333333 L20.8333333,24.3333333 C20.6332957,24.3305233 20.4541891,24.2087462 20.3780173,24.0237576 C20.3018456,23.8387689 20.3432735,23.6261835 20.4833333,23.4833333 L23.8166667,20.15 C23.9595168,20.0099401 24.1721023,19.9685122 24.3570909,20.044684 C24.5420795,20.1208558 24.6638566,20.2999624 24.6666667,20.5 L24.6666667,23.8333333 Z"/>
  </defs>
  <g fill="none" fill-rule="evenodd">
    <circle cx="30" cy="30" r="30" fill="url(#group-7-a)"/>
    <g transform="translate(12 12)">
      <mask id="group-7-c" fill="#fff">
        <use xlink:href="#group-7-b"/>
      </mask>
      <g fill="#FFF" mask="url(#group-7-c)">
        <polygon points="0 0 36 0 36 36 0 36"/>
      </g>
    </g>
  </g>
</svg>
