<svg id="Layer_1" data-name="Layer 1" xmlns="http://www.w3.org/2000/svg" xmlns:xlink="http://www.w3.org/1999/xlink" viewBox="0 0 166 120"><defs><style>.cls-1{fill:url(#linear-gradient);}.cls-2{fill:url(#linear-gradient-2);}.cls-3{fill:#4fdc6f;}.cls-4{fill:#387dff;}.cls-5{fill:#f7cf06;}.cls-6{fill:url(#linear-gradient-3);}.cls-7{fill:url(#linear-gradient-4);}.cls-8{fill:url(#linear-gradient-5);}.cls-9{fill:url(#linear-gradient-6);}.cls-10{fill:url(#linear-gradient-7);}.cls-11{fill:url(#linear-gradient-8);}.cls-12{fill:url(#linear-gradient-9);}.cls-13{fill:#5690ff;}.cls-14{fill:url(#linear-gradient-10);}.cls-15{fill:#f37c6a;}</style><linearGradient id="linear-gradient" x1="1289.08" y1="2681.44" x2="1278.93" y2="2747.74" gradientTransform="translate(-1398.86 2671.3) rotate(-124.42)" gradientUnits="userSpaceOnUse"><stop offset="0" stop-color="#ffa330"/><stop offset="1" stop-color="#f07379"/></linearGradient><linearGradient id="linear-gradient-2" x1="41.68" y1="23.75" x2="126.93" y2="93.09" gradientUnits="userSpaceOnUse"><stop offset="0" stop-color="#58f1ff"/><stop offset="1" stop-color="#42a1ff"/></linearGradient><linearGradient id="linear-gradient-3" x1="32.88" y1="24.17" x2="141.14" y2="98.44" gradientUnits="userSpaceOnUse"><stop offset="0" stop-color="#edf4ff"/><stop offset="1" stop-color="#bed5ff"/></linearGradient><linearGradient id="linear-gradient-4" x1="33.11" y1="45.17" x2="139.58" y2="45.17" gradientUnits="userSpaceOnUse"><stop offset="0" stop-color="#9c95ff"/><stop offset="1" stop-color="#766de8"/></linearGradient><linearGradient id="linear-gradient-5" x1="78.68" y1="49.92" x2="97.26" y2="68.23" gradientUnits="userSpaceOnUse"><stop offset="0" stop-color="#b3adff"/><stop offset="1" stop-color="#8e87f5"/></linearGradient><linearGradient id="linear-gradient-6" x1="104.75" y1="45.1" x2="126.24" y2="69.51" xlink:href="#linear-gradient-5"/><linearGradient id="linear-gradient-7" x1="48.23" y1="38.71" x2="55.73" y2="46.2" xlink:href="#linear-gradient-3"/><linearGradient id="linear-gradient-8" x1="79.48" y1="106.05" x2="54.83" y2="63.35" gradientUnits="userSpaceOnUse"><stop offset="0" stop-color="#387dff"/><stop offset="1" stop-color="#5690ff"/></linearGradient><linearGradient id="linear-gradient-9" x1="97.93" y1="75.75" x2="132.57" y2="75.75" xlink:href="#linear-gradient-8"/><linearGradient id="linear-gradient-10" x1="33.11" y1="22.38" x2="139.58" y2="22.38" gradientUnits="userSpaceOnUse"><stop offset="0" stop-color="#fff"/><stop offset="1" stop-color="#bed5ff"/></linearGradient></defs><title>Artboard 1</title><path id="Oval-2-Copy-2" class="cls-1" d="M126.69,42.53c-17.76-11.77-41.61,2.18-48,22.81S74.33,108,99.27,112.64s46.6.18,53-20.45S144.45,54.29,126.69,42.53Z"/><path id="Oval-2-Copy-3" class="cls-2" d="M75.66,113.88c27.2,2.75,51.73-17.74,60.5-45.64C149.48,25.85,111.62-2.32,83.09,7.75,55.51,17.49,30,31.51,30,60.81S48.46,111.12,75.66,113.88Z"/><path id="Shape" class="cls-3" d="M19.12,37.42,13,34.9a1.28,1.28,0,0,1-.31-2.2l5.1-4a1.29,1.29,0,0,1,2.06.81l1,6.49A1.29,1.29,0,0,1,19.12,37.42ZM14.79,34l3.73,1.52A.42.42,0,0,0,19.1,35l-.63-4a.42.42,0,0,0-.68-.27l-3.1,2.44A.42.42,0,0,0,14.79,34Z"/><circle id="Oval-4" class="cls-4" cx="17.88" cy="52.16" r="2.12"/><circle id="Oval-4-2" data-name="Oval-4" class="cls-5" cx="149.54" cy="41.83" r="1.34"/><path class="cls-6" d="M33.11,25.35H139.58a0,0,0,0,1,0,0V94.11a4.25,4.25,0,0,1-4.25,4.25h-98a4.25,4.25,0,0,1-4.25-4.25V25.35A0,0,0,0,1,33.11,25.35Z"/><rect class="cls-7" x="33.11" y="27.68" width="106.47" height="34.97"/><path class="cls-8" d="M108.32,62.65H71.82l18.25-21Z"/><polygon class="cls-9" points="139.58 62.65 89.85 62.65 121.33 32.99 139.58 50.18 139.58 62.65"/><circle class="cls-10" cx="51.1" cy="41.57" r="4.27"/><rect class="cls-11" x="41.51" y="71.05" width="51.31" height="27.31"/><rect class="cls-12" x="97.93" y="74.58" width="34.64" height="2.35"/><rect class="cls-13" x="97.93" y="82.28" width="34.64" height="1.32"/><rect class="cls-13" x="97.93" y="85.5" width="34.64" height="1.32"/><rect class="cls-13" x="97.93" y="88.72" width="13.42" height="1.32"/><path class="cls-14" d="M37.18,17.08H135.5a4.07,4.07,0,0,1,4.07,4.07v6.53a0,0,0,0,1,0,0H33.11a0,0,0,0,1,0,0V21.15a4.07,4.07,0,0,1,4.07-4.07Z"/><circle class="cls-3" cx="38.49" cy="22.38" r="2.08"/><circle class="cls-5" cx="45.84" cy="22.38" r="2.08"/><circle class="cls-15" cx="53.18" cy="22.38" r="2.08"/></svg>