<svg id="Layer_1" data-name="Layer 1" xmlns="http://www.w3.org/2000/svg" xmlns:xlink="http://www.w3.org/1999/xlink" viewBox="0 0 460 351.94"><defs><style>.cls-1{fill:#ebf3ff;}.cls-2{fill:#9dbefa;}.cls-3{fill:#f26555;}.cls-4{fill:url(#linear-gradient);}.cls-5{fill:#31b5ff;}.cls-6{fill:url(#linear-gradient-2);}.cls-7{fill:#387dff;}.cls-8{fill:#6b69e2;}.cls-9{fill:url(#linear-gradient-3);}.cls-10{fill:#39c973;}.cls-11{fill:url(#linear-gradient-4);}.cls-12{fill:#277aff;}.cls-13{fill:url(#linear-gradient-5);}.cls-14{fill:url(#linear-gradient-6);}.cls-15{fill:#353f5b;}.cls-16{fill:#39c2ff;}.cls-17{fill:#29b8ff;}.cls-18{fill:url(#linear-gradient-7);}.cls-19{fill:#363f5a;}.cls-20{fill:#c8e0ff;}.cls-21{fill:#2e3d5b;}.cls-22{fill:#1b2a47;}.cls-23{fill:#4fceff;}</style><linearGradient id="linear-gradient" x1="181.06" y1="118.6" x2="211.73" y2="145.27" gradientUnits="userSpaceOnUse"><stop offset="0" stop-color="#ffa330"/><stop offset="1" stop-color="#f07379"/></linearGradient><linearGradient id="linear-gradient-2" x1="176.15" y1="186.42" x2="201.49" y2="207.75" gradientUnits="userSpaceOnUse"><stop offset="0" stop-color="#58f1ff"/><stop offset="1" stop-color="#47b3ff"/></linearGradient><linearGradient id="linear-gradient-3" x1="261.98" y1="46.02" x2="281.31" y2="66.02" gradientUnits="userSpaceOnUse"><stop offset="0" stop-color="#9c95ff"/><stop offset="1" stop-color="#766de8"/></linearGradient><linearGradient id="linear-gradient-4" x1="222.48" y1="64.82" x2="238.48" y2="82.15" gradientUnits="userSpaceOnUse"><stop offset="0" stop-color="#58f17b"/><stop offset="1" stop-color="#16cd6f"/></linearGradient><linearGradient id="linear-gradient-5" x1="316.61" y1="64.64" x2="343.88" y2="64.64" gradientUnits="userSpaceOnUse"><stop offset="0" stop-color="#5690ff"/><stop offset="1" stop-color="#387dff"/></linearGradient><linearGradient id="linear-gradient-6" x1="377.74" y1="90.52" x2="392.49" y2="94.02" xlink:href="#linear-gradient-2"/><linearGradient id="linear-gradient-7" x1="342.74" y1="85.71" x2="354.49" y2="85.96" gradientUnits="userSpaceOnUse"><stop offset="0" stop-color="#fda130"/><stop offset="1" stop-color="#ee7379"/></linearGradient></defs><title>website_home_right</title><path class="cls-1" d="M243,306.13H349a143,143,0,1,0-106,0Z"/><path class="cls-2" d="M388.92,65.53a.74.74,0,0,0,.49.18.7.7,0,0,0,.56-.26.74.74,0,0,0-.07-1c-2-1.75-4.12-3.46-6.24-5.09a.75.75,0,0,0-.91,1.19C384.84,62.12,386.92,63.81,388.92,65.53Z"/><path class="cls-2" d="M379.09,290.43a.69.69,0,0,0,.43-.14c2.17-1.55,4.33-3.18,6.41-4.85a.76.76,0,0,0,.11-1.06.75.75,0,0,0-1.05-.11c-2.06,1.65-4.19,3.27-6.34,4.8a.75.75,0,0,0-.17,1.05A.74.74,0,0,0,379.09,290.43Z"/><path class="cls-2" d="M400.36,76.58a.75.75,0,0,0,.55.24.78.78,0,0,0,.51-.2.76.76,0,0,0,0-1.06c-1.81-2-3.7-3.89-5.63-5.74a.75.75,0,0,0-1.06,0,.75.75,0,0,0,0,1.06C396.69,72.73,398.57,74.64,400.36,76.58Z"/><path class="cls-2" d="M402.83,269.1a.77.77,0,0,0,.56-.25c1.77-2,3.51-4.06,5.18-6.16a.75.75,0,0,0-.12-1.05.76.76,0,0,0-1.05.12c-1.66,2.08-3.38,4.13-5.13,6.09a.75.75,0,0,0,.06,1.06A.73.73,0,0,0,402.83,269.1Z"/><path class="cls-2" d="M391.55,280.43a.78.78,0,0,0,.5-.19c2-1.79,3.95-3.65,5.83-5.54a.75.75,0,1,0-1.06-1.06c-1.87,1.87-3.81,3.72-5.77,5.48a.75.75,0,0,0-.06,1.06A.77.77,0,0,0,391.55,280.43Z"/><path class="cls-2" d="M369.62,51.51c2.27,1.37,4.52,2.82,6.69,4.31a.75.75,0,0,0,1-.19.75.75,0,0,0-.19-1.05c-2.2-1.5-4.47-3-6.76-4.36a.75.75,0,0,0-.78,1.29Z"/><path class="cls-2" d="M325.39,34c2.58.54,5.18,1.16,7.73,1.85a.69.69,0,0,0,.2,0,.75.75,0,0,0,.19-1.48c-2.58-.69-5.21-1.32-7.81-1.87a.75.75,0,1,0-.31,1.47Z"/><path class="cls-2" d="M365.6,299a.77.77,0,0,0,.36-.09c2.33-1.3,4.65-2.68,6.9-4.11a.75.75,0,0,0-.8-1.27c-2.23,1.42-4.53,2.78-6.83,4.07a.75.75,0,0,0,.37,1.4Z"/><path class="cls-2" d="M340.74,38.18c2.51.83,5,1.74,7.5,2.72a.86.86,0,0,0,.27.05.75.75,0,0,0,.28-1.45c-2.49-1-5-1.91-7.58-2.75a.75.75,0,0,0-.47,1.43Z"/><path class="cls-2" d="M351.24,306a.72.72,0,0,0,.29-.06c2.46-1,4.92-2.14,7.31-3.31a.74.74,0,0,0,.35-1,.75.75,0,0,0-1-.35c-2.37,1.16-4.8,2.26-7.24,3.28a.75.75,0,0,0,.29,1.44Z"/><path class="cls-2" d="M355.56,44c2.39,1.11,4.79,2.3,7.14,3.54a.74.74,0,0,0,1-.31.74.74,0,0,0-.31-1c-2.37-1.26-4.79-2.46-7.21-3.58a.76.76,0,0,0-1,.37A.75.75,0,0,0,355.56,44Z"/><path class="cls-2" d="M293.78,31c2.63,0,5.31,0,8,.09h0a.75.75,0,0,0,0-1.5c-2.67-.1-5.37-.13-8-.09a.75.75,0,1,0,0,1.5Z"/><path class="cls-2" d="M438.23,170.31c0,1,0,2,0,3,0,2.63-.07,5.31-.21,7.95a.75.75,0,0,0,.7.79h.05a.75.75,0,0,0,.74-.71c.15-2.67.22-5.37.22-8,0-1,0-2,0-3a.79.79,0,0,0-.76-.74A.76.76,0,0,0,438.23,170.31Z"/><path class="cls-2" d="M437,197.9a.75.75,0,0,0,.74-.63c.44-2.63.81-5.31,1.11-8a.76.76,0,0,0-.66-.83.75.75,0,0,0-.83.66c-.29,2.63-.66,5.28-1.1,7.88a.74.74,0,0,0,.62.86Z"/><path class="cls-2" d="M437,154.45c.35,2.62.62,5.28.82,7.91a.75.75,0,0,0,.75.69h.06a.75.75,0,0,0,.69-.8c-.2-2.66-.48-5.35-.83-8a.75.75,0,0,0-1.49.2Z"/><path class="cls-2" d="M435.77,146.6a.75.75,0,0,0,.73.61l.15,0a.74.74,0,0,0,.59-.87c-.5-2.63-1.07-5.27-1.72-7.85a.75.75,0,1,0-1.45.36C434.7,141.38,435.28,144,435.77,146.6Z"/><path class="cls-2" d="M428.23,228.6a.76.76,0,0,0,.69-.47c1-2.46,2-5,2.87-7.52a.75.75,0,1,0-1.42-.5c-.87,2.51-1.83,5-2.83,7.45a.75.75,0,0,0,.69,1Z"/><path class="cls-2" d="M433.5,213.49a.77.77,0,0,0,.72-.55c.73-2.55,1.4-5.17,2-7.78a.75.75,0,0,0-1.46-.34c-.58,2.59-1.25,5.18-2,7.71a.75.75,0,0,0,.51.93Z"/><path class="cls-2" d="M431.93,131.17a.75.75,0,0,0,.72.52.83.83,0,0,0,.22,0,.75.75,0,0,0,.5-.94c-.79-2.54-1.66-5.11-2.6-7.61a.75.75,0,1,0-1.4.53C430.29,126.11,431.15,128.65,431.93,131.17Z"/><path class="cls-2" d="M412.79,256.58a.75.75,0,0,0,.61-.32c1.55-2.18,3.05-4.43,4.47-6.69a.75.75,0,0,0-.24-1,.76.76,0,0,0-1,.23c-1.39,2.23-2.88,4.46-4.41,6.63a.74.74,0,0,0,.18,1A.69.69,0,0,0,412.79,256.58Z"/><path class="cls-2" d="M419.22,102.11a.75.75,0,0,0,.65.37.69.69,0,0,0,.37-.1.75.75,0,0,0,.28-1c-1.34-2.32-2.76-4.62-4.22-6.84a.75.75,0,0,0-1.25.82C416.49,97.54,417.89,99.82,419.22,102.11Z"/><path class="cls-2" d="M410.5,88.82a.77.77,0,0,0,.61.31.73.73,0,0,0,.44-.15.75.75,0,0,0,.16-1c-1.59-2.15-3.25-4.28-4.95-6.33a.75.75,0,0,0-1.16,1C407.29,84.59,408.93,86.7,410.5,88.82Z"/><path class="cls-2" d="M426.39,116.28a.75.75,0,0,0,.69.45.66.66,0,0,0,.3-.07.75.75,0,0,0,.39-1c-1.07-2.45-2.23-4.89-3.43-7.26a.75.75,0,0,0-1.34.67C424.19,111.44,425.33,113.86,426.39,116.28Z"/><path class="cls-2" d="M420.93,242.93a.81.81,0,0,0,.36.1.75.75,0,0,0,.66-.39c1.29-2.34,2.53-4.75,3.69-7.16a.75.75,0,1,0-1.35-.65c-1.15,2.38-2.37,4.77-3.65,7.08A.75.75,0,0,0,420.93,242.93Z"/><path class="cls-2" d="M309.67,31.65c2.63.25,5.29.58,7.89,1h.12a.75.75,0,0,0,.11-1.49c-2.63-.4-5.32-.73-8-1a.75.75,0,0,0-.14,1.5Z"/><path class="cls-2" d="M153,175.51a.75.75,0,0,0,.74-.76v-1.48c0-2.16,0-4.33.14-6.47a.75.75,0,0,0-.72-.79.79.79,0,0,0-.78.72c-.1,2.16-.14,4.36-.14,6.54v1.5a.75.75,0,0,0,.75.74Z"/><path class="cls-2" d="M166.08,113.4a.71.71,0,0,0,.32.07.76.76,0,0,0,.68-.43c1.12-2.41,2.33-4.8,3.57-7.12a.76.76,0,0,0-.3-1,.77.77,0,0,0-1,.31c-1.26,2.34-2.47,4.76-3.61,7.19A.74.74,0,0,0,166.08,113.4Z"/><path class="cls-2" d="M156,198.49a.75.75,0,1,0-1.47.26c.47,2.62,1,5.27,1.63,7.87a.77.77,0,0,0,.73.58l.18,0a.75.75,0,0,0,.55-.91C157,203.7,156.43,201.08,156,198.49Z"/><path class="cls-2" d="M153.63,159.53h.08a.76.76,0,0,0,.75-.68c.26-2.63.6-5.29,1-7.88a.75.75,0,0,0-1.48-.24c-.41,2.63-.76,5.31-1,8A.75.75,0,0,0,153.63,159.53Z"/><path class="cls-2" d="M156,143.73l.16,0a.75.75,0,0,0,.73-.6c.55-2.57,1.19-5.17,1.89-7.72a.75.75,0,0,0-1.44-.4c-.71,2.58-1.36,5.2-1.92,7.81A.75.75,0,0,0,156,143.73Z"/><path class="cls-2" d="M160.2,128.29a.67.67,0,0,0,.24,0,.75.75,0,0,0,.71-.51c.84-2.5,1.77-5,2.75-7.47a.75.75,0,1,0-1.39-.56c-1,2.48-1.93,5-2.79,7.55A.75.75,0,0,0,160.2,128.29Z"/><path class="cls-2" d="M154.78,190.62c-.32-2.63-.57-5.29-.74-7.92a.75.75,0,1,0-1.49.1c.17,2.65.42,5.35.74,8a.76.76,0,0,0,.75.66h.09A.74.74,0,0,0,154.78,190.62Z"/><path class="cls-2" d="M180.63,256.52a.75.75,0,0,0-1.22.88c1.57,2.16,3.21,4.31,4.89,6.38a.76.76,0,0,0,1,.11.76.76,0,0,0,.11-1.06C183.8,260.78,182.18,258.66,180.63,256.52Z"/><path class="cls-2" d="M159.64,214a.75.75,0,1,0-1.44.43c.76,2.55,1.61,5.12,2.51,7.63a.75.75,0,0,0,.71.5.74.74,0,0,0,.25-.05.75.75,0,0,0,.45-1C161.23,219,160.39,216.49,159.64,214Z"/><path class="cls-2" d="M177.74,91.49c-1.52,2.2-3,4.47-4.4,6.74a.75.75,0,0,0,.25,1,.7.7,0,0,0,.39.11.73.73,0,0,0,.64-.35c1.38-2.26,2.85-4.5,4.35-6.67a.75.75,0,1,0-1.23-.86Z"/><path class="cls-2" d="M172.05,243.14a.74.74,0,0,0-1-.28.75.75,0,0,0-.29,1c1.31,2.32,2.71,4.63,4.15,6.88a.74.74,0,0,0,.63.34.71.71,0,0,0,.4-.11.76.76,0,0,0,.23-1C174.73,247.73,173.35,245.44,172.05,243.14Z"/><path class="cls-2" d="M165,228.9a.77.77,0,0,0-1-.4.76.76,0,0,0-.4,1c1.05,2.45,2.18,4.91,3.35,7.29a.75.75,0,0,0,.68.42.67.67,0,0,0,.33-.08.75.75,0,0,0,.34-1C167.17,233.76,166.06,231.33,165,228.9Z"/><path class="cls-2" d="M205.39,63.36a.72.72,0,0,0,.47-.17c2-1.66,4.15-3.3,6.29-4.86a.76.76,0,0,0,.16-1,.75.75,0,0,0-1.05-.17c-2.16,1.58-4.29,3.24-6.35,4.92a.75.75,0,0,0-.1,1.06A.73.73,0,0,0,205.39,63.36Z"/><path class="cls-2" d="M232.15,46a.64.64,0,0,0,.33-.08c2.35-1.17,4.78-2.3,7.2-3.35a.74.74,0,0,0,.4-1,.76.76,0,0,0-1-.4c-2.45,1.06-4.9,2.2-7.28,3.39a.75.75,0,0,0-.33,1A.74.74,0,0,0,232.15,46Z"/><path class="cls-2" d="M183.09,86.22a.78.78,0,0,0,.6-.28c1.62-2.09,3.32-4.15,5.06-6.15a.75.75,0,0,0-1.13-1c-1.76,2-3.48,4.1-5.12,6.2a.77.77,0,0,0,.13,1.06A.79.79,0,0,0,183.09,86.22Z"/><path class="cls-2" d="M227.29,299.58c2.35,1.28,4.76,2.5,7.17,3.65a.71.71,0,0,0,.32.07.76.76,0,0,0,.68-.43.75.75,0,0,0-.36-1c-2.38-1.13-4.77-2.34-7.1-3.61a.73.73,0,0,0-1,.3A.75.75,0,0,0,227.29,299.58Z"/><path class="cls-2" d="M246.8,39.69a.8.8,0,0,0,.26,0c2.48-.9,5-1.75,7.54-2.52a.75.75,0,0,0-.43-1.44c-2.56.78-5.12,1.64-7.63,2.55a.75.75,0,0,0,.26,1.46Z"/><path class="cls-2" d="M218.29,53.94a.72.72,0,0,0,.4-.12c2.22-1.44,4.5-2.83,6.79-4.14a.75.75,0,0,0,.28-1,.74.74,0,0,0-1-.28c-2.32,1.32-4.62,2.73-6.86,4.18a.75.75,0,0,0,.41,1.38Z"/><path class="cls-2" d="M262.1,35a.5.5,0,0,0,.17,0c2.57-.62,5.19-1.18,7.78-1.66a.75.75,0,1,0-.27-1.47c-2.62.48-5.26,1-7.86,1.68a.74.74,0,0,0-.55.9A.75.75,0,0,0,262.1,35Z"/><path class="cls-2" d="M245.06,306.13c-.89-.35-1.79-.69-2.67-1.05a.74.74,0,0,0-1,.42.73.73,0,0,0,0,.63Z"/><path class="cls-2" d="M193.61,74.17a.7.7,0,0,0,.53-.23c1.85-1.88,3.77-3.75,5.71-5.53a.75.75,0,0,0-1-1.11c-2,1.81-3.91,3.69-5.77,5.6a.75.75,0,0,0,0,1.06A.77.77,0,0,0,193.61,74.17Z"/><path class="cls-2" d="M195.1,275.67a.75.75,0,1,0,1.05-1.06c-1.88-1.86-3.73-3.79-5.51-5.74a.75.75,0,1,0-1.11,1C191.33,271.85,193.2,273.8,195.1,275.67Z"/><path class="cls-2" d="M220.33,295.53a.73.73,0,0,0,.4.11.76.76,0,0,0,.64-.35.77.77,0,0,0-.25-1c-2.24-1.39-4.48-2.86-6.64-4.38a.75.75,0,1,0-.86,1.23C215.81,292.63,218.07,294.12,220.33,295.53Z"/><path class="cls-2" d="M207.16,286.3a.74.74,0,0,0,.46.16.77.77,0,0,0,.59-.28.76.76,0,0,0-.12-1.06C206,283.49,204,281.78,202,280a.75.75,0,1,0-1,1.12C203,282.92,205.06,284.65,207.16,286.3Z"/><path class="cls-2" d="M277.82,32.15h.09c2.63-.33,5.29-.6,7.92-.78a.75.75,0,0,0,.69-.8.74.74,0,0,0-.8-.7c-2.65.19-5.34.45-8,.79a.75.75,0,0,0-.65.84A.76.76,0,0,0,277.82,32.15Z"/><path class="cls-2" d="M296,306a.76.76,0,0,1-.75-.75v-8a.75.75,0,0,1,1.5,0v8A.76.76,0,0,1,296,306Zm0-16a.76.76,0,0,1-.75-.75v-8a.75.75,0,0,1,1.5,0v8A.76.76,0,0,1,296,290Zm0-16a.76.76,0,0,1-.75-.75v-8a.75.75,0,0,1,1.5,0v8A.76.76,0,0,1,296,274Zm0-16a.76.76,0,0,1-.75-.75v-8a.75.75,0,1,1,1.5,0v8A.76.76,0,0,1,296,258Zm0-16a.76.76,0,0,1-.75-.75v-8a.75.75,0,1,1,1.5,0v8A.76.76,0,0,1,296,242Zm0-16a.76.76,0,0,1-.75-.75v-8a.75.75,0,1,1,1.5,0v8A.76.76,0,0,1,296,226Zm0-16a.76.76,0,0,1-.75-.75v-8a.75.75,0,1,1,1.5,0v8A.76.76,0,0,1,296,210Zm0-16a.76.76,0,0,1-.75-.75v-8a.75.75,0,1,1,1.5,0v8A.76.76,0,0,1,296,194Zm0-16a.76.76,0,0,1-.75-.75v-8a.75.75,0,1,1,1.5,0v8A.76.76,0,0,1,296,178Zm0-16a.76.76,0,0,1-.75-.75v-8a.75.75,0,1,1,1.5,0v8A.76.76,0,0,1,296,162Zm0-16a.76.76,0,0,1-.75-.75v-8a.75.75,0,1,1,1.5,0v8A.76.76,0,0,1,296,146Zm0-16a.76.76,0,0,1-.75-.75v-8a.75.75,0,1,1,1.5,0v8A.76.76,0,0,1,296,130Zm0-16a.76.76,0,0,1-.75-.75v-8a.75.75,0,1,1,1.5,0v8A.76.76,0,0,1,296,114Zm0-16a.76.76,0,0,1-.75-.75v-8a.75.75,0,1,1,1.5,0v8A.76.76,0,0,1,296,98Zm0-16a.76.76,0,0,1-.75-.75v-8a.75.75,0,1,1,1.5,0v8A.76.76,0,0,1,296,82Zm0-16a.76.76,0,0,1-.75-.75v-8a.75.75,0,1,1,1.5,0v8A.76.76,0,0,1,296,66Zm0-16a.76.76,0,0,1-.75-.75v-8a.75.75,0,1,1,1.5,0v8A.76.76,0,0,1,296,50Zm0-16a.76.76,0,0,1-.75-.75v-8a.75.75,0,1,1,1.5,0v8A.76.76,0,0,1,296,34Zm0-16a.76.76,0,0,1-.75-.75v-8a.75.75,0,1,1,1.5,0v8A.76.76,0,0,1,296,18Z"/><path class="cls-2" d="M440,174h-4a.75.75,0,0,1,0-1.5h4a.75.75,0,0,1,0,1.5Zm-12,0h-8a.75.75,0,0,1,0-1.5h8a.75.75,0,0,1,0,1.5Zm-16,0h-8a.75.75,0,0,1,0-1.5h8a.75.75,0,0,1,0,1.5Zm-16,0h-8a.75.75,0,0,1,0-1.5h8a.75.75,0,0,1,0,1.5Zm-16,0h-8a.75.75,0,0,1,0-1.5h8a.75.75,0,0,1,0,1.5Zm-16,0h-8a.75.75,0,0,1,0-1.5h8a.75.75,0,0,1,0,1.5Zm-16,0h-8a.75.75,0,0,1,0-1.5h8a.75.75,0,0,1,0,1.5Zm-16,0h-8a.75.75,0,0,1,0-1.5h8a.75.75,0,0,1,0,1.5Zm-16,0h-8a.75.75,0,0,1,0-1.5h8a.75.75,0,0,1,0,1.5Zm-16,0h-8a.75.75,0,0,1,0-1.5h8a.75.75,0,0,1,0,1.5Zm-16,0h-8a.75.75,0,0,1,0-1.5h8a.75.75,0,0,1,0,1.5Zm-16,0h-8a.75.75,0,0,1,0-1.5h8a.75.75,0,0,1,0,1.5Zm-16,0h-8a.75.75,0,0,1,0-1.5h8a.75.75,0,0,1,0,1.5Zm-16,0h-8a.75.75,0,0,1,0-1.5h8a.75.75,0,0,1,0,1.5Zm-16,0h-8a.75.75,0,0,1,0-1.5h8a.75.75,0,0,1,0,1.5Zm-16,0h-8a.75.75,0,0,1,0-1.5h8a.75.75,0,0,1,0,1.5Zm-16,0h-8a.75.75,0,0,1,0-1.5h8a.75.75,0,0,1,0,1.5Zm-16,0h-8a.75.75,0,0,1,0-1.5h8a.75.75,0,0,1,0,1.5Zm-16,0h-8a.75.75,0,0,1,0-1.5h8a.75.75,0,0,1,0,1.5Zm-16,0h-8a.75.75,0,0,1,0-1.5h8a.75.75,0,0,1,0,1.5Z"/><path class="cls-2" d="M180,290a.74.74,0,0,1-.53-.22.75.75,0,0,1,0-1.06l5.66-5.66a.75.75,0,0,1,1.06,1.06l-5.66,5.66A.71.71,0,0,1,180,290Zm11.32-11.31a.77.77,0,0,1-.53-.22.74.74,0,0,1,0-1.06l5.65-5.66a.77.77,0,0,1,1.07,0,.75.75,0,0,1,0,1.06l-5.66,5.66A.79.79,0,0,1,191.35,278.67Zm11.31-11.32a.74.74,0,0,1-.53-.22.75.75,0,0,1,0-1.06l5.66-5.65a.74.74,0,0,1,1.06,0,.75.75,0,0,1,0,1.06l-5.66,5.65A.73.73,0,0,1,202.66,267.35ZM214,256a.71.71,0,0,1-.53-.22.74.74,0,0,1,0-1.06l5.65-5.66a.75.75,0,0,1,1.06,0,.74.74,0,0,1,0,1.06l-5.65,5.66A.74.74,0,0,1,214,256Zm11.31-11.31a.79.79,0,0,1-.53-.22.77.77,0,0,1,0-1.07l5.66-5.65a.74.74,0,0,1,1.06,0,.75.75,0,0,1,0,1.06l-5.66,5.66A.79.79,0,0,1,225.29,244.73Zm11.31-11.32a.74.74,0,0,1-.53-.22.75.75,0,0,1,0-1.06l5.66-5.66a.75.75,0,0,1,1.06,1.06l-5.66,5.66A.73.73,0,0,1,236.6,233.41Zm11.32-11.31a.71.71,0,0,1-.53-.22.74.74,0,0,1,0-1.06l5.65-5.66a.75.75,0,0,1,1.06,0,.74.74,0,0,1,0,1.06l-5.65,5.66A.74.74,0,0,1,247.92,222.1Zm11.31-11.32a.74.74,0,0,1-.53-.22.75.75,0,0,1,0-1.06l5.66-5.65a.74.74,0,0,1,1.06,0,.75.75,0,0,1,0,1.06l-5.66,5.65A.74.74,0,0,1,259.23,210.78Zm11.31-11.31a.74.74,0,0,1-.53-.22.75.75,0,0,1,0-1.06l5.66-5.66a.75.75,0,1,1,1.06,1.06l-5.66,5.66A.71.71,0,0,1,270.54,199.47Zm11.32-11.31a.77.77,0,0,1-.53-.22.75.75,0,0,1,0-1.06l5.65-5.66a.75.75,0,0,1,1.06,0,.74.74,0,0,1,0,1.06l-5.65,5.66A.79.79,0,0,1,281.86,188.16Zm11.31-11.32a.74.74,0,0,1-.53-.22.75.75,0,0,1,0-1.06l5.66-5.65a.74.74,0,0,1,1.06,0,.75.75,0,0,1,0,1.06l-5.66,5.65A.73.73,0,0,1,293.17,176.84Zm11.32-11.31a.71.71,0,0,1-.53-.22.74.74,0,0,1,0-1.06l5.65-5.66a.75.75,0,0,1,1.06,0,.74.74,0,0,1,0,1.06L305,165.31A.74.74,0,0,1,304.49,165.53Zm11.31-11.31a.77.77,0,0,1-.53-.22.75.75,0,0,1,0-1.06l5.66-5.66a.75.75,0,1,1,1.06,1.06L316.33,154A.79.79,0,0,1,315.8,154.22Zm11.31-11.32a.74.74,0,0,1-.53-.22.75.75,0,0,1,0-1.06l5.66-5.66a.75.75,0,0,1,1.06,0,.77.77,0,0,1,0,1.07l-5.66,5.65A.71.71,0,0,1,327.11,142.9Zm11.32-11.31a.71.71,0,0,1-.53-.22.74.74,0,0,1,0-1.06l5.65-5.66a.75.75,0,0,1,1.06,0,.74.74,0,0,1,0,1.06L339,131.37A.74.74,0,0,1,338.43,131.59Zm11.31-11.31a.79.79,0,0,1-.53-.22.77.77,0,0,1,0-1.07l5.66-5.65a.74.74,0,0,1,1.06,0,.75.75,0,0,1,0,1.06l-5.66,5.66A.79.79,0,0,1,349.74,120.28ZM361.05,109a.74.74,0,0,1-.53-.22.75.75,0,0,1,0-1.06l5.66-5.66a.75.75,0,1,1,1.06,1.06l-5.66,5.66A.71.71,0,0,1,361.05,109Zm11.32-11.31a.77.77,0,0,1-.53-.22.74.74,0,0,1,0-1.06l5.65-5.66a.75.75,0,0,1,1.06,0,.74.74,0,0,1,0,1.06l-5.65,5.66A.79.79,0,0,1,372.37,97.65Zm11.31-11.32a.74.74,0,0,1-.53-.22.75.75,0,0,1,0-1.06l5.66-5.65a.74.74,0,0,1,1.06,0,.75.75,0,0,1,0,1.06l-5.66,5.65A.73.73,0,0,1,383.68,86.33ZM395,75a.75.75,0,0,1-.54-1.28l5.66-5.66a.75.75,0,0,1,1.06,0,.74.74,0,0,1,0,1.06l-5.65,5.66A.74.74,0,0,1,395,75Zm11.31-11.31a.77.77,0,0,1-.53-.22.75.75,0,0,1,0-1.06l5.66-5.66a.75.75,0,1,1,1.06,1.06l-5.66,5.66A.79.79,0,0,1,406.31,63.71Z"/><path class="cls-2" d="M412,290a.71.71,0,0,1-.53-.22l-5.66-5.66a.75.75,0,0,1,1.06-1.06l5.66,5.66a.75.75,0,0,1,0,1.06A.74.74,0,0,1,412,290Zm-11.32-11.31a.79.79,0,0,1-.53-.22l-5.66-5.66a.75.75,0,0,1,0-1.06.77.77,0,0,1,1.07,0l5.65,5.66a.74.74,0,0,1,0,1.06A.77.77,0,0,1,400.65,278.67Zm-11.31-11.32a.73.73,0,0,1-.53-.22l-5.66-5.65a.75.75,0,0,1,0-1.06.74.74,0,0,1,1.06,0l5.66,5.65a.75.75,0,0,1,0,1.06A.74.74,0,0,1,389.34,267.35ZM378,256a.74.74,0,0,1-.53-.22l-5.65-5.66a.74.74,0,0,1,0-1.06.75.75,0,0,1,1.06,0l5.65,5.66a.74.74,0,0,1,0,1.06A.71.71,0,0,1,378,256Zm-11.31-11.31a.79.79,0,0,1-.53-.22l-5.66-5.66a.75.75,0,0,1,0-1.06.74.74,0,0,1,1.06,0l5.66,5.65a.77.77,0,0,1,0,1.07A.79.79,0,0,1,366.71,244.73ZM355.4,233.41a.73.73,0,0,1-.53-.22l-5.66-5.66a.75.75,0,0,1,1.06-1.06l5.66,5.66a.75.75,0,0,1,0,1.06A.74.74,0,0,1,355.4,233.41ZM344.08,222.1a.74.74,0,0,1-.53-.22l-5.65-5.66a.74.74,0,0,1,0-1.06.75.75,0,0,1,1.06,0l5.65,5.66a.74.74,0,0,1,0,1.06A.71.71,0,0,1,344.08,222.1Zm-11.31-11.32a.74.74,0,0,1-.53-.22l-5.66-5.65a.75.75,0,0,1,0-1.06.74.74,0,0,1,1.06,0l5.66,5.65a.75.75,0,0,1,0,1.06A.74.74,0,0,1,332.77,210.78Zm-11.31-11.31a.71.71,0,0,1-.53-.22l-5.66-5.66a.75.75,0,1,1,1.06-1.06l5.66,5.66a.75.75,0,0,1,0,1.06A.74.74,0,0,1,321.46,199.47Zm-11.32-11.31a.79.79,0,0,1-.53-.22L304,182.28a.74.74,0,0,1,0-1.06.75.75,0,0,1,1.06,0l5.65,5.66a.75.75,0,0,1,0,1.06A.77.77,0,0,1,310.14,188.16Zm-11.31-11.32a.73.73,0,0,1-.53-.22L292.64,171a.75.75,0,0,1,0-1.06.74.74,0,0,1,1.06,0l5.66,5.65a.75.75,0,0,1,0,1.06A.74.74,0,0,1,298.83,176.84Zm-11.32-11.31a.74.74,0,0,1-.53-.22l-5.65-5.66a.74.74,0,0,1,0-1.06.75.75,0,0,1,1.06,0l5.65,5.66a.74.74,0,0,1,0,1.06A.71.71,0,0,1,287.51,165.53ZM276.2,154.22a.79.79,0,0,1-.53-.22L270,148.34a.75.75,0,1,1,1.06-1.06l5.66,5.66a.75.75,0,0,1,0,1.06A.79.79,0,0,1,276.2,154.22ZM264.89,142.9a.71.71,0,0,1-.53-.22L258.7,137a.77.77,0,0,1,0-1.07.75.75,0,0,1,1.06,0l5.66,5.66a.75.75,0,0,1,0,1.06A.74.74,0,0,1,264.89,142.9Zm-11.32-11.31a.74.74,0,0,1-.53-.22l-5.65-5.66a.74.74,0,0,1,0-1.06.75.75,0,0,1,1.06,0l5.65,5.66a.74.74,0,0,1,0,1.06A.71.71,0,0,1,253.57,131.59Zm-11.31-11.31a.79.79,0,0,1-.53-.22l-5.66-5.66a.75.75,0,0,1,0-1.06.74.74,0,0,1,1.06,0l5.66,5.65a.77.77,0,0,1,0,1.07A.79.79,0,0,1,242.26,120.28ZM231,109a.71.71,0,0,1-.53-.22l-5.66-5.66a.75.75,0,0,1,1.06-1.06l5.66,5.66a.75.75,0,0,1,0,1.06A.74.74,0,0,1,231,109ZM219.63,97.65a.79.79,0,0,1-.53-.22l-5.65-5.66a.74.74,0,0,1,0-1.06.75.75,0,0,1,1.06,0l5.65,5.66a.74.74,0,0,1,0,1.06A.77.77,0,0,1,219.63,97.65ZM208.32,86.33a.73.73,0,0,1-.53-.22l-5.66-5.65a.75.75,0,0,1,0-1.06.74.74,0,0,1,1.06,0l5.66,5.65a.75.75,0,0,1,0,1.06A.74.74,0,0,1,208.32,86.33ZM197,75a.74.74,0,0,1-.53-.22l-5.65-5.66a.74.74,0,0,1,0-1.06.75.75,0,0,1,1.06,0l5.66,5.66A.75.75,0,0,1,197,75ZM185.69,63.71a.79.79,0,0,1-.53-.22l-5.66-5.66a.75.75,0,1,1,1.06-1.06l5.66,5.66a.75.75,0,0,1,0,1.06A.77.77,0,0,1,185.69,63.71Z"/><path class="cls-2" d="M145.32,238.76a.75.75,0,0,1-.3-1.44l7.35-3.16a.75.75,0,1,1,.6,1.38l-7.35,3.16A.8.8,0,0,1,145.32,238.76Zm14.7-6.32a.75.75,0,0,1-.29-1.44l7.35-3.16a.75.75,0,0,1,1,.4.75.75,0,0,1-.39,1l-7.35,3.16A.8.8,0,0,1,160,232.44Zm14.7-6.31a.75.75,0,0,1-.29-1.44l7.35-3.16a.75.75,0,0,1,1,.39.76.76,0,0,1-.39,1L175,226.07A.8.8,0,0,1,174.72,226.13Zm14.7-6.32a.75.75,0,0,1-.29-1.44l7.35-3.16a.75.75,0,0,1,.59,1.38l-7.35,3.16A.8.8,0,0,1,189.42,219.81Zm14.7-6.32a.75.75,0,0,1-.29-1.44l7.35-3.15a.75.75,0,0,1,1,.39.74.74,0,0,1-.39,1l-7.35,3.16A.8.8,0,0,1,204.12,213.49Zm14.7-6.31a.75.75,0,0,1-.29-1.44l7.35-3.16a.75.75,0,0,1,.59,1.38l-7.35,3.16A.8.8,0,0,1,218.82,207.18Zm14.7-6.32a.75.75,0,0,1-.29-1.44l7.35-3.16a.75.75,0,0,1,.59,1.38l-7.35,3.16A.8.8,0,0,1,233.52,200.86Zm14.7-6.32a.75.75,0,0,1-.29-1.44l7.35-3.16a.76.76,0,0,1,1,.4.74.74,0,0,1-.39,1l-7.35,3.16A.8.8,0,0,1,248.22,194.54Zm14.7-6.31a.75.75,0,0,1-.29-1.44l7.35-3.16a.75.75,0,0,1,.59,1.38l-7.35,3.16A.8.8,0,0,1,262.92,188.23Zm14.7-6.32a.74.74,0,0,1-.68-.45.75.75,0,0,1,.39-1l7.35-3.16a.75.75,0,0,1,.59,1.38l-7.35,3.16A.8.8,0,0,1,277.62,181.91Zm14.71-6.32a.75.75,0,0,1-.3-1.44l7.35-3.15a.75.75,0,1,1,.59,1.37l-7.35,3.16A.79.79,0,0,1,292.33,175.59Zm14.7-6.31a.75.75,0,0,1-.69-.46.74.74,0,0,1,.39-1l7.35-3.16a.75.75,0,1,1,.59,1.38l-7.35,3.16A.79.79,0,0,1,307,169.28Zm14.7-6.32a.75.75,0,0,1-.3-1.44l7.35-3.16a.76.76,0,0,1,1,.4.75.75,0,0,1-.4,1L322,162.9A.79.79,0,0,1,321.73,163Zm14.7-6.32a.75.75,0,0,1-.3-1.44l7.35-3.15a.75.75,0,1,1,.59,1.38l-7.35,3.15A.72.72,0,0,1,336.43,156.64Zm14.7-6.31a.75.75,0,0,1-.69-.46.74.74,0,0,1,.39-1l7.35-3.16a.75.75,0,1,1,.59,1.38l-7.35,3.16A.72.72,0,0,1,351.13,150.33Zm14.7-6.32a.75.75,0,0,1-.3-1.44l7.35-3.16a.76.76,0,0,1,1,.4.75.75,0,0,1-.4,1L366.12,144A.72.72,0,0,1,365.83,144Zm14.7-6.32a.75.75,0,0,1-.3-1.43l7.35-3.16a.75.75,0,1,1,.59,1.38l-7.35,3.15A.58.58,0,0,1,380.53,137.69Zm14.7-6.31a.75.75,0,0,1-.3-1.44l7.35-3.16a.75.75,0,1,1,.59,1.38l-7.35,3.16A.72.72,0,0,1,395.23,131.38Zm14.7-6.32a.75.75,0,0,1-.69-.45.76.76,0,0,1,.39-1l7.35-3.16a.76.76,0,0,1,1,.4.75.75,0,0,1-.39,1L410.22,125A.72.72,0,0,1,409.93,125.06Zm14.7-6.31a.75.75,0,0,1-.3-1.44l7.35-3.16a.75.75,0,0,1,.6,1.38l-7.36,3.16A.72.72,0,0,1,424.63,118.75Zm14.7-6.32A.75.75,0,0,1,439,111l7.35-3.16a.75.75,0,0,1,.6,1.38l-7.36,3.16A.72.72,0,0,1,439.33,112.43Z"/><path class="cls-2" d="M348.11,295.29a.75.75,0,0,1-.69-.45l-3.16-7.35a.76.76,0,0,1,.4-1,.75.75,0,0,1,1,.4l3.16,7.35a.75.75,0,0,1-.39,1A.8.8,0,0,1,348.11,295.29Zm-6.32-14.7a.76.76,0,0,1-.69-.45L338,272.79a.75.75,0,0,1,.39-1,.76.76,0,0,1,1,.4l3.15,7.35a.74.74,0,0,1-.39,1A.8.8,0,0,1,341.79,280.59Zm-6.31-14.7a.75.75,0,0,1-.69-.45l-3.16-7.35a.75.75,0,1,1,1.38-.59l3.16,7.35a.75.75,0,0,1-.4,1A.72.72,0,0,1,335.48,265.89Zm-6.32-14.7a.75.75,0,0,1-.69-.45l-3.16-7.35a.76.76,0,0,1,.4-1,.74.74,0,0,1,1,.4l3.16,7.35a.75.75,0,0,1-.39,1A.8.8,0,0,1,329.16,251.19Zm-6.32-14.7a.74.74,0,0,1-.68-.45L319,228.69a.75.75,0,1,1,1.38-.59l3.15,7.35a.74.74,0,0,1-.39,1A.8.8,0,0,1,322.84,236.49Zm-6.31-14.7a.75.75,0,0,1-.69-.45L312.68,214a.75.75,0,1,1,1.38-.59l3.16,7.35a.74.74,0,0,1-.4,1A.72.72,0,0,1,316.53,221.79Zm-6.32-14.7a.75.75,0,0,1-.69-.45l-3.16-7.35a.76.76,0,0,1,.4-1,.75.75,0,0,1,1,.39l3.16,7.36a.75.75,0,0,1-.39,1A.8.8,0,0,1,310.21,207.09Zm-6.31-14.7a.75.75,0,0,1-.69-.45l-3.16-7.35a.75.75,0,0,1,.39-1,.76.76,0,0,1,1,.39l3.15,7.35a.75.75,0,0,1-.68,1Zm-6.32-14.7a.75.75,0,0,1-.69-.45l-3.16-7.35a.75.75,0,1,1,1.38-.6l3.16,7.35a.75.75,0,0,1-.4,1A.72.72,0,0,1,297.58,177.69ZM291.26,163a.76.76,0,0,1-.69-.45l-3.16-7.35a.76.76,0,0,1,.4-1,.75.75,0,0,1,1,.39l3.16,7.35a.75.75,0,0,1-.39,1A.8.8,0,0,1,291.26,163ZM285,148.29a.75.75,0,0,1-.69-.45l-3.16-7.35a.75.75,0,1,1,1.38-.6l3.16,7.35a.76.76,0,0,1-.4,1A.75.75,0,0,1,285,148.29Zm-6.32-14.7a.75.75,0,0,1-.69-.46l-3.16-7.35a.75.75,0,0,1,1.38-.59l3.16,7.35a.76.76,0,0,1-.39,1A.8.8,0,0,1,278.63,133.59Zm-6.32-14.7a.76.76,0,0,1-.69-.46l-3.15-7.35a.74.74,0,0,1,.39-1,.75.75,0,0,1,1,.39l3.16,7.35a.75.75,0,0,1-.39,1A.8.8,0,0,1,272.31,118.89ZM266,104.19a.75.75,0,0,1-.69-.46l-3.16-7.35a.75.75,0,0,1,.39-1,.76.76,0,0,1,1,.39l3.16,7.35a.76.76,0,0,1-.4,1A.72.72,0,0,1,266,104.19Zm-6.32-14.7A.75.75,0,0,1,259,89l-3.16-7.35a.75.75,0,0,1,1.38-.59l3.16,7.35a.76.76,0,0,1-.39,1A.8.8,0,0,1,259.68,89.49Zm-6.32-14.7a.76.76,0,0,1-.69-.46L249.52,67a.74.74,0,0,1,.39-1,.76.76,0,0,1,1,.39l3.15,7.35a.75.75,0,0,1-.39,1A.8.8,0,0,1,253.36,74.79Zm-6.31-14.7a.75.75,0,0,1-.69-.46l-3.16-7.35a.75.75,0,0,1,.39-1,.76.76,0,0,1,1,.39L247.74,59a.76.76,0,0,1-.4,1A.72.72,0,0,1,247.05,60.09Zm-6.32-14.7a.75.75,0,0,1-.69-.46l-3.16-7.35a.75.75,0,0,1,1.38-.59l3.16,7.35a.76.76,0,0,1-.39,1A.8.8,0,0,1,240.73,45.39Zm-6.32-14.7a.73.73,0,0,1-.68-.46l-3.16-7.35a.74.74,0,0,1,.39-1,.76.76,0,0,1,1,.39l3.15,7.35a.75.75,0,0,1-.39,1A.8.8,0,0,1,234.41,30.69Z"/><path class="cls-3" d="M211.51,135.35c0,8.85-7.18,10.78-16,10.78s-16-1.93-16-10.78,7.67-13.11,16-16C207,115.3,211.51,126.49,211.51,135.35Z"/><path class="cls-4" d="M208.76,131.27c0,8.85-7.18,10.78-16,10.78s-16-1.93-16-10.78,7.67-13.11,16-16C204.23,111.21,208.76,122.41,208.76,131.27Z"/><path class="cls-5" d="M180.41,204.28c-3.17-5.64-2.24-9.19,2.14-13.95s11.25-8.21,13.73-3.26c2.89,5.78,8.52,4.17,4.43,11.24C196.25,206,184.13,210.89,180.41,204.28Z"/><path class="cls-6" d="M177.27,202.65c-3.17-5.63-2.24-9.19,2.14-13.94s11.25-8.22,13.72-3.27c2.9,5.78,8.53,4.18,4.44,11.24C193.11,204.38,181,209.27,177.27,202.65Z"/><path class="cls-7" d="M460,306.13H0c85,0,99.48-30.31,161.91-59.73S292.8,213.22,339.35,120.09,460,7.13,460,7.13Z"/><path class="cls-8" d="M282.28,60.93c0,6.41-5.19,7.81-11.6,7.81s-11.61-1.4-11.61-7.81,5.55-9.49,11.61-11.61C279,46.4,282.28,54.52,282.28,60.93Z"/><path class="cls-9" d="M283.12,57.56c0,6.42-5.2,7.82-11.61,7.82S259.9,64,259.9,57.56s5.56-9.49,11.61-11.6C279.84,43,283.12,51.15,283.12,57.56Z"/><path class="cls-10" d="M224.94,84.13c-3.17-5.63-2.24-9.19,2.14-13.94S238.32,62,240.8,66.92c2.89,5.78-5.48,5.3-3.48,14S228.66,90.75,224.94,84.13Z"/><path class="cls-11" d="M223.06,82.63c-3.17-5.63-2.24-9.19,2.14-13.94s11.25-8.22,13.73-3.27c2.89,5.78-5.48,5.3-3.48,14S226.78,89.25,223.06,82.63Z"/><path class="cls-12" d="M323.11,52.46c8.29-1,12.05,1.93,15.52,9.51s4.15,17.48-3,18c-8.32.55-3.56-9.17-14.87-11.12S313.39,53.58,323.11,52.46Z"/><path class="cls-13" d="M325.83,51c8.29-.95,12.05,1.93,15.52,9.51s4.15,17.48-3,18c-8.31.55-3.56-9.17-14.87-11.12S316.11,52.1,325.83,51Z"/><polygon class="cls-14" points="413.01 8.93 411.13 16.75 376.13 162.47 374.94 167.43 366.97 177.92 364.36 165.05 365.29 160.19 394.75 5.34 397.53 5.89 410.23 8.38 413.01 8.93"/><polygon class="cls-15" points="411.4 16.2 417.31 17.22 418.05 13.46 412.25 12.38 411.4 16.2"/><polygon class="cls-15" points="408.55 58.38 406.69 57.98 415.54 16.4 417.41 16.8 408.55 58.38"/><ellipse class="cls-16" cx="403.88" cy="7.14" rx="7.04" ry="9.3" transform="translate(318.97 402.05) rotate(-78.88)"/><ellipse class="cls-15" cx="403.88" cy="7.14" rx="4.9" ry="6.47" transform="translate(318.97 402.05) rotate(-78.88)"/><path class="cls-15" d="M404,20.33a12.49,12.49,0,0,1-2.42-.24,11.33,11.33,0,0,1-6.38-3.53,7,7,0,0,1-1.81-6,.47.47,0,1,1,.92.18,6.08,6.08,0,0,0,1.6,5.2,11,11,0,0,0,12.49,2.46,6.09,6.09,0,0,0,3.45-4.21.48.48,0,0,1,.55-.37.47.47,0,0,1,.37.55,7,7,0,0,1-4,4.87A10.79,10.79,0,0,1,404,20.33Z"/><path class="cls-15" d="M376.13,162.47l-1.19,5-4.56,6a2.55,2.55,0,0,1-4.53-1l-1.49-7.35.93-4.86C365.72,164.88,374,166.41,376.13,162.47Z"/><path class="cls-17" d="M372.72,160.73a10.61,10.61,0,0,1-2-.19c-3.11-.63-5.25-2.54-5.47-4.87a.51.51,0,0,1,.46-.55.52.52,0,0,1,.54.46c.21,2.28,2.64,3.57,4.67,4,2.29.46,5.24.05,6.3-1.93a.49.49,0,0,1,.67-.2.49.49,0,0,1,.21.67C377.13,160,374.93,160.73,372.72,160.73Z"/><path class="cls-17" d="M373.2,158.43a9.82,9.82,0,0,1-2-.2c-3.11-.63-5.25-2.54-5.47-4.87a.5.5,0,0,1,.45-.54.51.51,0,0,1,.55.45c.21,2.29,2.64,3.57,4.67,4,2.29.46,5.24.06,6.3-1.92a.49.49,0,0,1,.67-.21.5.5,0,0,1,.21.68C377.61,157.67,375.41,158.43,373.2,158.43Z"/><polygon class="cls-18" points="354.89 17.95 354.86 24.2 354.34 140.57 354.32 144.53 350.16 153.88 345.9 144.61 345.74 140.78 340.45 18.49 342.65 18.41 352.69 18.03 354.89 17.95"/><polygon class="cls-15" points="354.82 23.76 359.61 23.45 359.5 20.47 354.93 20.69 354.82 23.76"/><polygon class="cls-15" points="360.32 56.12 358.84 56.15 358.13 23.15 359.61 23.11 360.32 56.12"/><ellipse class="cls-3" cx="347.67" cy="18.22" rx="7.22" ry="5.46" transform="translate(-0.44 12.92) rotate(-2.13)"/><ellipse class="cls-15" cx="347.67" cy="18.22" rx="5.03" ry="3.8" transform="translate(-0.44 12.92) rotate(-2.13)"/><path class="cls-15" d="M347.83,28.43a8.75,8.75,0,0,1-5.08-1.54,5.43,5.43,0,0,1-2.43-4.21.35.35,0,0,1,.35-.37h0a.36.36,0,0,1,.36.35,4.72,4.72,0,0,0,2.14,3.64,8.5,8.5,0,0,0,9.88-.37,4.72,4.72,0,0,0,1.86-3.79.37.37,0,0,1,.35-.38h0a.36.36,0,0,1,.36.35,5.43,5.43,0,0,1-2.12,4.38,8.85,8.85,0,0,1-5.32,1.94Z"/><path class="cls-19" d="M354.34,140.57l0,4-2.38,5.35a2,2,0,0,1-3.61,0l-2.43-5.29-.16-3.83C346.9,144.24,353.45,143.92,354.34,140.57Z"/><path class="cls-19" d="M342.65,18.41s-.25-11.28,5-11.28,5,11,5,11Z"/><path class="cls-20" d="M417.73,244.92l-.64-1A1.21,1.21,0,0,0,417.73,244.92Z"/><path class="cls-20" d="M408.69,238.35a1.23,1.23,0,1,0,.64,1.62A1.23,1.23,0,0,0,408.69,238.35Z"/><path class="cls-20" d="M423.49,259.39a1.22,1.22,0,0,0,1.07-.07c-.23-.75-.5-1.51-.78-2.26a1.3,1.3,0,0,0-.93.71A1.24,1.24,0,0,0,423.49,259.39Z"/><circle class="cls-20" cx="413.91" cy="253.9" r="1.23"/><path class="cls-20" d="M404.34,248.42A1.23,1.23,0,1,0,405,250,1.23,1.23,0,0,0,404.34,248.42Z"/><path class="cls-20" d="M420.11,267.2a1.23,1.23,0,1,0,.64,1.61A1.23,1.23,0,0,0,420.11,267.2Z"/><path class="cls-20" d="M410.05,262.84a1.23,1.23,0,1,0,.64,1.62A1.23,1.23,0,0,0,410.05,262.84Z"/><path class="cls-20" d="M400,258.49a1.23,1.23,0,1,0,.64,1.61A1.23,1.23,0,0,0,400,258.49Z"/><path class="cls-20" d="M398.63,234a1.23,1.23,0,1,0,.64,1.62A1.23,1.23,0,0,0,398.63,234Z"/><circle class="cls-20" cx="388.05" cy="230.76" r="1.23"/><circle class="cls-20" cx="377.99" cy="226.41" r="1.23"/><path class="cls-20" d="M368.41,220.92a1.24,1.24,0,0,0-1.62.65,1.23,1.23,0,1,0,1.62-.65Z"/><path class="cls-20" d="M358.34,216.57a1.23,1.23,0,1,0,.65,1.62A1.24,1.24,0,0,0,358.34,216.57Z"/><path class="cls-20" d="M394.27,244.06a1.23,1.23,0,1,0,.64,1.62A1.23,1.23,0,0,0,394.27,244.06Z"/><circle class="cls-20" cx="383.7" cy="240.83" r="1.23"/><circle class="cls-20" cx="373.63" cy="236.47" r="1.23"/><path class="cls-20" d="M364.05,231a1.23,1.23,0,1,0,.65,1.62A1.24,1.24,0,0,0,364.05,231Z"/><path class="cls-20" d="M354,226.63a1.24,1.24,0,0,0-1.62.65,1.23,1.23,0,1,0,1.62-.65Z"/><path class="cls-20" d="M389.91,254.13a1.23,1.23,0,1,0,.65,1.62A1.23,1.23,0,0,0,389.91,254.13Z"/><path class="cls-20" d="M379.83,249.77a1.23,1.23,0,1,0,.64,1.61A1.23,1.23,0,0,0,379.83,249.77Z"/><path class="cls-20" d="M369.76,245.41a1.23,1.23,0,1,0,.65,1.62A1.23,1.23,0,0,0,369.76,245.41Z"/><path class="cls-20" d="M359.7,241.06a1.23,1.23,0,1,0,.64,1.61A1.23,1.23,0,0,0,359.7,241.06Z"/><path class="cls-20" d="M349.63,236.7a1.23,1.23,0,1,0,.64,1.62A1.23,1.23,0,0,0,349.63,236.7Z"/><path class="cls-20" d="M424.84,283.88a1.23,1.23,0,1,0-.64-1.62A1.23,1.23,0,0,0,424.84,283.88Z"/><path class="cls-20" d="M415.76,277.26a1.23,1.23,0,1,0,.64,1.62A1.23,1.23,0,0,0,415.76,277.26Z"/><path class="cls-20" d="M405.69,272.91a1.23,1.23,0,1,0,.64,1.61A1.23,1.23,0,0,0,405.69,272.91Z"/><path class="cls-20" d="M395.62,268.55a1.23,1.23,0,1,0,.65,1.62A1.23,1.23,0,0,0,395.62,268.55Z"/><path class="cls-20" d="M421.46,291.7a1.23,1.23,0,1,0,.64,1.62A1.23,1.23,0,0,0,421.46,291.7Z"/><circle class="cls-20" cx="410.9" cy="288.48" r="1.23"/><circle class="cls-20" cx="400.84" cy="284.12" r="1.23"/><path class="cls-20" d="M391.26,278.64a1.23,1.23,0,1,0,.64,1.61A1.23,1.23,0,0,0,391.26,278.64Z"/><path class="cls-20" d="M417.1,301.77a1.23,1.23,0,1,0,.64,1.61A1.23,1.23,0,0,0,417.1,301.77Z"/><circle class="cls-20" cx="406.55" cy="298.54" r="1.23"/><circle class="cls-20" cx="396.48" cy="294.19" r="1.23"/><path class="cls-20" d="M386.91,288.7a1.23,1.23,0,1,0,.64,1.62A1.23,1.23,0,0,0,386.91,288.7Z"/><path class="cls-20" d="M412.75,311.83a1.23,1.23,0,1,0,.64,1.62A1.23,1.23,0,0,0,412.75,311.83Z"/><path class="cls-20" d="M402.68,307.48a1.23,1.23,0,1,0,.64,1.61A1.23,1.23,0,0,0,402.68,307.48Z"/><path class="cls-20" d="M392.62,303.12a1.23,1.23,0,1,0,.64,1.62A1.23,1.23,0,0,0,392.62,303.12Z"/><path class="cls-20" d="M382.55,298.77a1.23,1.23,0,1,0,.64,1.61A1.23,1.23,0,0,0,382.55,298.77Z"/><path class="cls-20" d="M406.79,322.55a1.19,1.19,0,0,0,.57,1.56c.52-.56,1-1.15,1.53-1.65a1.23,1.23,0,0,0-.53-.48A1.21,1.21,0,0,0,406.79,322.55Z"/><path class="cls-20" d="M398.33,317.54a1.23,1.23,0,1,0,.64,1.62A1.23,1.23,0,0,0,398.33,317.54Z"/><path class="cls-20" d="M388.26,313.19a1.23,1.23,0,1,0,.64,1.62A1.23,1.23,0,0,0,388.26,313.19Z"/><path class="cls-20" d="M378.2,308.83a1.23,1.23,0,1,0,.64,1.62A1.23,1.23,0,0,0,378.2,308.83Z"/><circle class="cls-20" cx="393.48" cy="328.74" r="1.23"/><circle class="cls-20" cx="383.42" cy="324.38" r="1.23"/><path class="cls-20" d="M373.84,318.9a1.23,1.23,0,1,0,.64,1.62A1.23,1.23,0,0,0,373.84,318.9Z"/><path class="cls-20" d="M385.56,264.2a1.23,1.23,0,1,0,.64,1.61A1.23,1.23,0,0,0,385.56,264.2Z"/><path class="cls-20" d="M375.47,259.83a1.23,1.23,0,1,0,.65,1.62A1.23,1.23,0,0,0,375.47,259.83Z"/><path class="cls-20" d="M365.41,255.48a1.23,1.23,0,1,0,.64,1.61A1.23,1.23,0,0,0,365.41,255.48Z"/><path class="cls-20" d="M355.34,251.12a1.23,1.23,0,1,0,.64,1.62A1.23,1.23,0,0,0,355.34,251.12Z"/><path class="cls-20" d="M345.28,246.77a1.23,1.23,0,1,0,.64,1.61A1.23,1.23,0,0,0,345.28,246.77Z"/><path class="cls-20" d="M381.2,274.28a1.23,1.23,0,1,0,.64,1.62A1.23,1.23,0,0,0,381.2,274.28Z"/><circle class="cls-20" cx="370.62" cy="271.05" r="1.23"/><circle class="cls-20" cx="360.56" cy="266.69" r="1.23"/><path class="cls-20" d="M351,261.21a1.23,1.23,0,1,0,.64,1.61A1.23,1.23,0,0,0,351,261.21Z"/><path class="cls-20" d="M340.91,256.85a1.23,1.23,0,1,0,.65,1.62A1.23,1.23,0,0,0,340.91,256.85Z"/><path class="cls-20" d="M376.84,284.35a1.23,1.23,0,1,0,.64,1.61A1.23,1.23,0,0,0,376.84,284.35Z"/><circle class="cls-20" cx="366.27" cy="281.11" r="1.23"/><circle class="cls-20" cx="356.2" cy="276.76" r="1.23"/><path class="cls-20" d="M346.62,271.27a1.23,1.23,0,1,0,.65,1.62A1.23,1.23,0,0,0,346.62,271.27Z"/><path class="cls-20" d="M336.56,266.92a1.23,1.23,0,1,0,.64,1.61A1.23,1.23,0,0,0,336.56,266.92Z"/><path class="cls-20" d="M372.48,294.41a1.23,1.23,0,1,0,.65,1.62A1.23,1.23,0,0,0,372.48,294.41Z"/><path class="cls-20" d="M362.4,290.05a1.23,1.23,0,1,0,.64,1.62A1.23,1.23,0,0,0,362.4,290.05Z"/><path class="cls-20" d="M352.33,285.69a1.23,1.23,0,1,0,.65,1.62A1.23,1.23,0,0,0,352.33,285.69Z"/><path class="cls-20" d="M342.27,281.34a1.23,1.23,0,1,0,.64,1.61A1.23,1.23,0,0,0,342.27,281.34Z"/><path class="cls-20" d="M332.2,277a1.23,1.23,0,1,0,.64,1.62A1.23,1.23,0,0,0,332.2,277Z"/><path class="cls-20" d="M368.13,304.48a1.23,1.23,0,1,0,.64,1.61A1.23,1.23,0,0,0,368.13,304.48Z"/><path class="cls-20" d="M358,300.11a1.23,1.23,0,1,0,.65,1.62A1.23,1.23,0,0,0,358,300.11Z"/><path class="cls-20" d="M348,295.76a1.23,1.23,0,1,0,.64,1.62A1.23,1.23,0,0,0,348,295.76Z"/><path class="cls-20" d="M337.91,291.4a1.23,1.23,0,1,0,.64,1.62A1.23,1.23,0,0,0,337.91,291.4Z"/><path class="cls-20" d="M327.85,287.05a1.23,1.23,0,1,0,.64,1.61A1.23,1.23,0,0,0,327.85,287.05Z"/><path class="cls-20" d="M363.77,314.54a1.23,1.23,0,1,0,.64,1.62A1.23,1.23,0,0,0,363.77,314.54Z"/><circle class="cls-20" cx="353.2" cy="311.31" r="1.23"/><circle class="cls-20" cx="343.14" cy="306.95" r="1.23"/><path class="cls-20" d="M333.56,301.47a1.23,1.23,0,1,0,.64,1.62A1.23,1.23,0,0,0,333.56,301.47Z"/><circle class="cls-20" cx="343.44" cy="223.41" r="1.23"/><circle class="cls-20" cx="333.37" cy="219.05" r="1.23"/><path class="cls-20" d="M339.57,232.35a1.23,1.23,0,1,0,.64,1.61A1.23,1.23,0,0,0,339.57,232.35Z"/><path class="cls-20" d="M329.5,228a1.23,1.23,0,1,0,.64,1.62A1.23,1.23,0,0,0,329.5,228Z"/><path class="cls-20" d="M319.42,223.63a1.23,1.23,0,1,0,.64,1.61A1.23,1.23,0,0,0,319.42,223.63Z"/><path class="cls-20" d="M335.21,242.41a1.23,1.23,0,1,0,.64,1.62A1.23,1.23,0,0,0,335.21,242.41Z"/><path class="cls-20" d="M325.15,238.06a1.23,1.23,0,1,0,.64,1.61A1.23,1.23,0,0,0,325.15,238.06Z"/><path class="cls-20" d="M315.06,233.69a1.23,1.23,0,1,0,.64,1.62A1.22,1.22,0,0,0,315.06,233.69Z"/><path class="cls-20" d="M305,229.34a1.23,1.23,0,1,0,.64,1.61A1.23,1.23,0,0,0,305,229.34Z"/><path class="cls-20" d="M294.93,225a1.23,1.23,0,1,0,.64,1.62A1.24,1.24,0,0,0,294.93,225Z"/><circle class="cls-20" cx="330.36" cy="253.62" r="1.23"/><circle class="cls-20" cx="320.3" cy="249.27" r="1.23"/><path class="cls-20" d="M310.7,243.78a1.23,1.23,0,1,0,.64,1.61A1.23,1.23,0,0,0,310.7,243.78Z"/><path class="cls-20" d="M300.63,239.42a1.23,1.23,0,1,0,.64,1.62A1.23,1.23,0,0,0,300.63,239.42Z"/><circle class="cls-20" cx="290.08" cy="236.19" r="1.23"/><circle class="cls-20" cx="326.01" cy="263.69" r="1.23"/><circle class="cls-20" cx="315.94" cy="259.33" r="1.23"/><path class="cls-20" d="M306.34,253.84a1.23,1.23,0,1,0,.64,1.62A1.23,1.23,0,0,0,306.34,253.84Z"/><path class="cls-20" d="M296.28,249.49a1.23,1.23,0,1,0,.64,1.61A1.23,1.23,0,0,0,296.28,249.49Z"/><circle class="cls-20" cx="285.72" cy="246.26" r="1.23"/><path class="cls-20" d="M322.14,272.63a1.23,1.23,0,1,0,.64,1.61A1.23,1.23,0,0,0,322.14,272.63Z"/><path class="cls-20" d="M312.07,268.27a1.23,1.23,0,1,0,.64,1.62A1.23,1.23,0,0,0,312.07,268.27Z"/><path class="cls-20" d="M302,263.91a1.23,1.23,0,1,0,.64,1.61A1.23,1.23,0,0,0,302,263.91Z"/><path class="cls-20" d="M291.92,259.55a1.23,1.23,0,1,0,.64,1.62A1.23,1.23,0,0,0,291.92,259.55Z"/><path class="cls-20" d="M281.86,255.2a1.23,1.23,0,1,0,.64,1.61A1.23,1.23,0,0,0,281.86,255.2Z"/><path class="cls-20" d="M317.78,282.69a1.23,1.23,0,1,0,.64,1.62A1.23,1.23,0,0,0,317.78,282.69Z"/><path class="cls-20" d="M307.72,278.34a1.23,1.23,0,1,0,.64,1.61A1.23,1.23,0,0,0,307.72,278.34Z"/><path class="cls-20" d="M297.63,274a1.23,1.23,0,1,0,.64,1.62A1.23,1.23,0,0,0,297.63,274Z"/><path class="cls-20" d="M287.57,269.62a1.23,1.23,0,1,0,.64,1.61A1.23,1.23,0,0,0,287.57,269.62Z"/><path class="cls-20" d="M277.5,265.26a1.23,1.23,0,1,0,.64,1.62A1.24,1.24,0,0,0,277.5,265.26Z"/><circle class="cls-20" cx="312.94" cy="293.89" r="1.23"/><circle class="cls-20" cx="302.87" cy="289.53" r="1.23"/><path class="cls-20" d="M293.28,284a1.23,1.23,0,1,0,.64,1.62A1.23,1.23,0,0,0,293.28,284Z"/><path class="cls-20" d="M283.21,279.68a1.23,1.23,0,1,0,.64,1.62A1.24,1.24,0,0,0,283.21,279.68Z"/><circle class="cls-20" cx="272.66" cy="276.46" r="1.23"/><circle class="cls-20" cx="280.01" cy="231.84" r="1.23"/><path class="cls-20" d="M270.44,226.35a1.23,1.23,0,1,0,.64,1.62A1.23,1.23,0,0,0,270.44,226.35Z"/><circle class="cls-20" cx="275.66" cy="241.9" r="1.23"/><path class="cls-20" d="M266.08,236.42a1.23,1.23,0,1,0,.64,1.62A1.24,1.24,0,0,0,266.08,236.42Z"/><path class="cls-20" d="M256,232.06a1.23,1.23,0,1,0,.64,1.61A1.23,1.23,0,0,0,256,232.06Z"/><circle class="cls-20" cx="245.44" cy="228.83" r="1.23"/><path class="cls-20" d="M271.79,250.84a1.23,1.23,0,1,0,.64,1.62A1.24,1.24,0,0,0,271.79,250.84Z"/><path class="cls-20" d="M261.73,246.49a1.23,1.23,0,1,0,.64,1.61A1.23,1.23,0,0,0,261.73,246.49Z"/><path class="cls-20" d="M251.64,242.12a1.23,1.23,0,1,0,.64,1.62A1.24,1.24,0,0,0,251.64,242.12Z"/><path class="cls-20" d="M241.58,237.77a1.23,1.23,0,1,0,.64,1.61A1.23,1.23,0,0,0,241.58,237.77Z"/><path class="cls-20" d="M231.51,233.41a1.23,1.23,0,1,0,.64,1.62A1.24,1.24,0,0,0,231.51,233.41Z"/><path class="cls-20" d="M267.44,260.91a1.23,1.23,0,1,0,.64,1.61A1.23,1.23,0,0,0,267.44,260.91Z"/><path class="cls-20" d="M257.37,256.55a1.23,1.23,0,1,0,.64,1.62A1.24,1.24,0,0,0,257.37,256.55Z"/><path class="cls-20" d="M247.29,252.19a1.23,1.23,0,1,0,.64,1.62A1.23,1.23,0,0,0,247.29,252.19Z"/><path class="cls-20" d="M237.22,247.83a1.23,1.23,0,1,0,.64,1.62A1.24,1.24,0,0,0,237.22,247.83Z"/><path class="cls-20" d="M227.16,243.48a1.23,1.23,0,1,0,.64,1.61A1.23,1.23,0,0,0,227.16,243.48Z"/><circle class="cls-20" cx="262.59" cy="272.1" r="1.23"/><path class="cls-20" d="M253,266.62a1.23,1.23,0,1,0,.64,1.61A1.23,1.23,0,0,0,253,266.62Z"/><path class="cls-20" d="M242.93,262.25a1.23,1.23,0,1,0,.64,1.62A1.24,1.24,0,0,0,242.93,262.25Z"/><circle class="cls-20" cx="232.38" cy="259.03" r="1.23"/><circle class="cls-20" cx="222.31" cy="254.67" r="1.23"/><path class="cls-20" d="M217.09,239.12h0a1.18,1.18,0,0,0-.72-.05c-.33.4-.67.86-1,1.3a1.23,1.23,0,1,0,1.7-1.25Z"/><path class="cls-20" d="M212.74,249.19a1.23,1.23,0,0,0-1,2.26,1.24,1.24,0,0,0,1.62-.65A1.23,1.23,0,0,0,212.74,249.19Z"/><path class="cls-20" d="M388,338.31a1.13,1.13,0,0,0,0,.79c.67-.37,1.36-.75,2-1.15a1,1,0,0,0-.41-.18A1.22,1.22,0,0,0,388,338.31Z"/><circle class="cls-20" cx="379.05" cy="334.47" r="1.23"/><path class="cls-20" d="M369.48,329a1.23,1.23,0,1,0,.64,1.62A1.23,1.23,0,0,0,369.48,329Z"/><path class="cls-20" d="M375.19,343.4a1.22,1.22,0,0,0-1.14,2.15l1.8-.68A1.21,1.21,0,0,0,375.19,343.4Z"/><path class="cls-20" d="M365.12,339.05a1.23,1.23,0,1,0,.64,1.62A1.23,1.23,0,0,0,365.12,339.05Z"/><path class="cls-20" d="M359.44,349.3a1.11,1.11,0,0,0-.28.43v0l1.94-.43A1.17,1.17,0,0,0,359.44,349.3Z"/><path class="cls-20" d="M359.41,324.63a1.23,1.23,0,1,0,.64,1.61A1.23,1.23,0,0,0,359.41,324.63Z"/><circle class="cls-20" cx="348.84" cy="321.39" r="1.23"/><circle class="cls-20" cx="338.77" cy="317.04" r="1.23"/><path class="cls-20" d="M329.2,311.55a1.23,1.23,0,1,0,.64,1.62A1.23,1.23,0,0,0,329.2,311.55Z"/><path class="cls-20" d="M323.49,297.11a1.23,1.23,0,1,0,.64,1.62A1.23,1.23,0,0,0,323.49,297.11Z"/><path class="cls-20" d="M319.13,307.2a1.23,1.23,0,1,0,.64,1.61A1.23,1.23,0,0,0,319.13,307.2Z"/><path class="cls-20" d="M355.06,334.69a1.23,1.23,0,1,0,.64,1.62A1.23,1.23,0,0,0,355.06,334.69Z"/><path class="cls-20" d="M345,330.33a1.23,1.23,0,1,0,.64,1.62A1.24,1.24,0,0,0,345,330.33Z"/><path class="cls-20" d="M334.91,326a1.23,1.23,0,1,0,.64,1.62A1.23,1.23,0,0,0,334.91,326Z"/><path class="cls-20" d="M324.84,321.62a1.23,1.23,0,1,0,.64,1.62A1.23,1.23,0,0,0,324.84,321.62Z"/><path class="cls-20" d="M314.77,317.26a1.23,1.23,0,1,0,.64,1.62A1.23,1.23,0,0,0,314.77,317.26Z"/><path class="cls-20" d="M350.7,344.76a1.23,1.23,0,1,0,.64,1.62A1.23,1.23,0,0,0,350.7,344.76Z"/><path class="cls-20" d="M340.62,340.39a1.23,1.23,0,1,0,.64,1.62A1.23,1.23,0,0,0,340.62,340.39Z"/><path class="cls-20" d="M330.55,336a1.23,1.23,0,1,0,.64,1.62A1.24,1.24,0,0,0,330.55,336Z"/><path class="cls-20" d="M320.48,331.68a1.23,1.23,0,1,0,.64,1.62A1.23,1.23,0,0,0,320.48,331.68Z"/><path class="cls-20" d="M310.42,327.33a1.23,1.23,0,1,0,.64,1.62A1.23,1.23,0,0,0,310.42,327.33Z"/><path class="cls-20" d="M336.3,350.48a1.23,1.23,0,0,0-1.6.65,1.19,1.19,0,0,0-.05.81H337A1.21,1.21,0,0,0,336.3,350.48Z"/><circle class="cls-20" cx="325.71" cy="347.23" r="1.23"/><path class="cls-20" d="M316.13,341.75a1.23,1.23,0,1,0,.64,1.62A1.24,1.24,0,0,0,316.13,341.75Z"/><path class="cls-20" d="M306.06,337.39a1.23,1.23,0,1,0,.64,1.62A1.23,1.23,0,0,0,306.06,337.39Z"/><circle class="cls-20" cx="308.58" cy="303.97" r="1.23"/><circle class="cls-20" cx="298.51" cy="299.62" r="1.23"/><path class="cls-20" d="M288.91,294.12a1.23,1.23,0,1,0,.64,1.62A1.23,1.23,0,0,0,288.91,294.12Z"/><path class="cls-20" d="M278.85,289.77a1.23,1.23,0,1,0,.64,1.61A1.23,1.23,0,0,0,278.85,289.77Z"/><circle class="cls-20" cx="268.29" cy="286.54" r="1.23"/><path class="cls-20" d="M304.71,312.91a1.23,1.23,0,1,0,.64,1.61A1.23,1.23,0,0,0,304.71,312.91Z"/><path class="cls-20" d="M294.64,308.55a1.23,1.23,0,1,0,.64,1.62A1.23,1.23,0,0,0,294.64,308.55Z"/><path class="cls-20" d="M284.56,304.19a1.23,1.23,0,1,0,.64,1.62A1.23,1.23,0,0,0,284.56,304.19Z"/><path class="cls-20" d="M274.49,299.83a1.23,1.23,0,1,0,.64,1.62A1.23,1.23,0,0,0,274.49,299.83Z"/><path class="cls-20" d="M264.43,295.48a1.23,1.23,0,1,0,.64,1.62A1.23,1.23,0,0,0,264.43,295.48Z"/><path class="cls-20" d="M300.35,323a1.23,1.23,0,1,0,.64,1.62A1.23,1.23,0,0,0,300.35,323Z"/><path class="cls-20" d="M290.29,318.62a1.23,1.23,0,1,0,.64,1.61A1.23,1.23,0,0,0,290.29,318.62Z"/><path class="cls-20" d="M280.2,314.25a1.23,1.23,0,1,0,.64,1.62A1.23,1.23,0,0,0,280.2,314.25Z"/><path class="cls-20" d="M270.14,309.9a1.23,1.23,0,1,0,.64,1.62A1.23,1.23,0,0,0,270.14,309.9Z"/><path class="cls-20" d="M260.07,305.54a1.23,1.23,0,1,0,.64,1.62A1.24,1.24,0,0,0,260.07,305.54Z"/><circle class="cls-20" cx="295.51" cy="334.17" r="1.23"/><circle class="cls-20" cx="285.44" cy="329.81" r="1.23"/><path class="cls-20" d="M275.85,324.32a1.23,1.23,0,1,0,.64,1.62A1.23,1.23,0,0,0,275.85,324.32Z"/><path class="cls-20" d="M265.78,320a1.23,1.23,0,1,0,.64,1.62A1.24,1.24,0,0,0,265.78,320Z"/><circle class="cls-20" cx="255.23" cy="316.74" r="1.23"/><circle class="cls-20" cx="258.23" cy="282.19" r="1.23"/><path class="cls-20" d="M248.65,276.7a1.23,1.23,0,1,0,.64,1.62A1.24,1.24,0,0,0,248.65,276.7Z"/><path class="cls-20" d="M238.57,272.34a1.23,1.23,0,1,0,.64,1.62A1.23,1.23,0,0,0,238.57,272.34Z"/><circle class="cls-20" cx="228.01" cy="269.11" r="1.23"/><circle class="cls-20" cx="217.95" cy="264.76" r="1.23"/><path class="cls-20" d="M254.36,291.12a1.23,1.23,0,1,0,.64,1.62A1.24,1.24,0,0,0,254.36,291.12Z"/><path class="cls-20" d="M244.3,286.77a1.23,1.23,0,1,0,.64,1.61A1.23,1.23,0,0,0,244.3,286.77Z"/><path class="cls-20" d="M234.21,282.4a1.23,1.23,0,1,0,.64,1.62A1.24,1.24,0,0,0,234.21,282.4Z"/><path class="cls-20" d="M224.15,278.05a1.23,1.23,0,1,0,.64,1.62A1.23,1.23,0,0,0,224.15,278.05Z"/><path class="cls-20" d="M214.08,273.69a1.23,1.23,0,1,0,.64,1.62A1.24,1.24,0,0,0,214.08,273.69Z"/><path class="cls-20" d="M250,301.19a1.23,1.23,0,1,0,.64,1.62A1.23,1.23,0,0,0,250,301.19Z"/><path class="cls-20" d="M239.94,296.83a1.23,1.23,0,1,0,.64,1.62A1.24,1.24,0,0,0,239.94,296.83Z"/><path class="cls-20" d="M229.86,292.47a1.23,1.23,0,1,0,.64,1.62A1.23,1.23,0,0,0,229.86,292.47Z"/><path class="cls-20" d="M219.79,288.11a1.23,1.23,0,1,0,.64,1.62A1.24,1.24,0,0,0,219.79,288.11Z"/><circle class="cls-20" cx="245.16" cy="312.38" r="1.23"/><path class="cls-20" d="M235.59,306.9a1.23,1.23,0,1,0,.64,1.62A1.23,1.23,0,0,0,235.59,306.9Z"/><path class="cls-20" d="M208.37,259.27c-.12.76-.2,1.53-.28,2.31a1.2,1.2,0,0,0,.93-.71A1.23,1.23,0,0,0,208.37,259.27Z"/><path class="cls-21" d="M292.47,107.23l-24.42,10.84a1.19,1.19,0,0,1-1.63-.79l-4.9-18.37a1.2,1.2,0,0,1,.66-1.4l19-8.42a1.19,1.19,0,0,1,1.48.44l10.34,16A1.19,1.19,0,0,1,292.47,107.23Z"/><rect class="cls-21" x="264.02" y="72.99" width="7.25" height="22.5" rx="3.62" ry="3.62" transform="translate(-11.16 115.85) rotate(-23.94)"/><rect class="cls-21" x="263.13" y="90.77" width="17.25" height="5.13" rx="2.56" ry="2.56" transform="translate(-14.49 118.3) rotate(-23.94)"/><path class="cls-22" d="M268.05,118.07l22.26,193.66a3.31,3.31,0,0,0,4.63,2.65h0l-4.5-206.25Z"/><polygon class="cls-22" points="294.87 313.47 295.57 323.94 292.91 313.5 294.87 313.47"/><path class="cls-22" d="M292.47,107.23l128.71,146.4a3.31,3.31,0,0,1-1.14,5.21h0l-152-140.77Z"/><polygon class="cls-22" points="419.42 258.18 426.72 265.72 420.76 256.74 419.42 258.18"/><path class="cls-7" d="M312.18,130l-40.44,18a1.16,1.16,0,0,1-1.64-.9L268,126.48a1.17,1.17,0,0,1,.71-1.19l28.69-12.74a1.18,1.18,0,0,1,1.36.27l13.87,15.39A1.15,1.15,0,0,1,312.18,130Z"/><path class="cls-7" d="M310.62,128.31a28.93,28.93,0,0,1-39.11,17.36Z"/><circle class="cls-23" cx="290.49" cy="135.68" r="3.63"/></svg>