<svg id="Layer_1" data-name="Layer 1" xmlns="http://www.w3.org/2000/svg" xmlns:xlink="http://www.w3.org/1999/xlink" viewBox="0 0 372.52 336.29"><defs><style>.cls-1{fill:url(#linear-gradient);}.cls-2{fill:#ff7748;}.cls-3{fill:url(#linear-gradient-2);}.cls-4{fill:#39c2ff;}.cls-5{fill:url(#linear-gradient-3);}.cls-6{fill:#186dea;}.cls-7{fill:url(#linear-gradient-4);}.cls-8{fill:#f0f9fd;}.cls-9{fill:url(#linear-gradient-5);}.cls-10{fill:#0052e0;}.cls-11{fill:url(#linear-gradient-6);}.cls-12{fill:#d4e8ff;}.cls-13{fill:#9dbefa;}.cls-14{fill:#387dff;}.cls-15{fill:#0051e4;}.cls-16,.cls-27{fill:#1b2a47;}.cls-17{fill:#353f5b;}.cls-18{fill:url(#linear-gradient-7);}.cls-19{fill:#f17c69;}.cls-20{fill:#f26555;}.cls-21{fill:#7681a6;}.cls-22{fill:url(#linear-gradient-8);}.cls-23{fill:#363f5a;}.cls-24{fill:#29b8ff;}.cls-25{fill:url(#linear-gradient-9);}.cls-26{fill:url(#linear-gradient-10);}.cls-27{opacity:0.46;}.cls-28{opacity:0.36;}.cls-29{fill:url(#linear-gradient-11);}.cls-30{fill:#6be986;}</style><linearGradient id="linear-gradient" x1="117.58" y1="152.52" x2="32.87" y2="246.32" gradientUnits="userSpaceOnUse"><stop offset="0" stop-color="#ffa31a"/><stop offset="1" stop-color="#ff747a"/></linearGradient><linearGradient id="linear-gradient-2" x1="62.33" y1="156.95" x2="28.97" y2="245.06" gradientUnits="userSpaceOnUse"><stop offset="0" stop-color="#58f1ff"/><stop offset="1" stop-color="#47b3ff"/></linearGradient><linearGradient id="linear-gradient-3" x1="65.16" y1="230.69" x2="141.43" y2="230.69" gradientUnits="userSpaceOnUse"><stop offset="0" stop-color="#5690ff"/><stop offset="1" stop-color="#387dff"/></linearGradient><linearGradient id="linear-gradient-4" x1="116.75" y1="200.22" x2="47.35" y2="258.94" gradientUnits="userSpaceOnUse"><stop offset="0" stop-color="#545f7e"/><stop offset="1" stop-color="#252e48"/></linearGradient><linearGradient id="linear-gradient-5" x1="36.2" y1="159.03" x2="18.69" y2="243.51" gradientUnits="userSpaceOnUse"><stop offset="0" stop-color="#58f17b"/><stop offset="1" stop-color="#16cd6f"/></linearGradient><linearGradient id="linear-gradient-6" x1="230.41" y1="52.25" x2="151.35" y2="139.12" xlink:href="#linear-gradient-3"/><linearGradient id="linear-gradient-7" x1="519.97" y1="108.29" x2="536.48" y2="108.29" gradientTransform="translate(-184.71 -63.28) rotate(10.95)" gradientUnits="userSpaceOnUse"><stop offset="0" stop-color="#fda130"/><stop offset="1" stop-color="#ee7379"/></linearGradient><linearGradient id="linear-gradient-8" x1="340.09" y1="176.37" x2="331.76" y2="171.71" gradientUnits="userSpaceOnUse"><stop offset="0" stop-color="#47b3ff"/><stop offset="1" stop-color="#58f1ff"/></linearGradient><linearGradient id="linear-gradient-9" x1="322.48" y1="188.41" x2="370.7" y2="188.41" gradientUnits="userSpaceOnUse"><stop offset="0" stop-color="#ee7379"/><stop offset="1" stop-color="#fda130"/></linearGradient><linearGradient id="linear-gradient-10" x1="313.09" y1="213.8" x2="327.98" y2="213.8" xlink:href="#linear-gradient-5"/><linearGradient id="linear-gradient-11" x1="214.17" y1="219.28" x2="250.1" y2="219.28" gradientTransform="matrix(1, 0, 0, 1, 0, 0)" xlink:href="#linear-gradient-7"/></defs><title>website_home_left</title><path class="cls-1" d="M27.38,250l29.36,0,55.56-66.85a3.47,3.47,0,0,0-.44-4.88L89,159.08a3.47,3.47,0,0,0-5.12.73L27.3,244.36a3.43,3.43,0,0,0-.52,2.61Z"/><path class="cls-2" d="M35.71,250l48.76-73.6a3.47,3.47,0,0,0-1.13-4.91l-2.68-1.58A3.48,3.48,0,0,0,76,171l-48.05,73.9a3.45,3.45,0,0,0-.54,1.45L26.93,250Z"/><path class="cls-3" d="M8.32,250l25.73,0,45-80.61a3.46,3.46,0,0,0-1.47-4.79l-25.87-13A3.46,3.46,0,0,0,47,153.31L7.64,244.6a3.53,3.53,0,0,0-.16,2.29Z"/><path class="cls-4" d="M32.61,250l25.84-81a3.47,3.47,0,0,0-2.28-4.37L27.74,155.8a3.48,3.48,0,0,0-4.45,2.73L7.6,249.78c0,.06,0,.12,0,.18Z"/><path class="cls-5" d="M128.48,250.08l11-5.38a3.47,3.47,0,0,0,1.6-4.63l-13-26.81a3.47,3.47,0,0,0-5-1.39l-1.42.94L65.16,250Z"/><path class="cls-6" d="M92.52,250.05,122,232.43a3.47,3.47,0,0,0,1.2-4.75l-5-8.42a3.46,3.46,0,0,0-4.9-1.12L65.05,250Z"/><path class="cls-7" d="M83.46,250l38-29.69a3.48,3.48,0,0,0,.64-4.82l-18-24a3.48,3.48,0,0,0-5.13-.47L34.91,250Z"/><rect class="cls-8" x="30.79" y="168.29" width="1.15" height="29.08" transform="translate(-153.89 173.35) rotate(-77.34)"/><rect class="cls-8" x="88.13" y="209.25" width="1.15" height="28.04" transform="translate(-117.44 99.89) rotate(-37.43)"/><path class="cls-9" d="M32.18,250l22.73-90.37a3.47,3.47,0,0,0-2.5-4.21l-29-7.43a3.47,3.47,0,0,0-4.29,2.79L2.5,250Z"/><path class="cls-10" d="M238.81,143.53a2.74,2.74,0,0,1-.32-3.72,63.48,63.48,0,0,0-93.74-85.15,2.75,2.75,0,0,1-3.74,0l-4.57-4.15a2.76,2.76,0,0,0-3.9.18l-13.1,14.42a2.76,2.76,0,0,0,.19,3.9l106.94,97.15a2.76,2.76,0,0,0,3.9-.19l13.1-14.42a2.76,2.76,0,0,0-.19-3.9Zm-23-72.92a40.55,40.55,0,0,1,5.92,53.25,2.74,2.74,0,0,1-4.09.42L162.2,73.94a2.74,2.74,0,0,1,0-4.11A40.56,40.56,0,0,1,215.79,70.61Z"/><path class="cls-11" d="M239.15,140.78a2.74,2.74,0,0,1-.32-3.72,63.48,63.48,0,0,0-93.74-85.15,2.75,2.75,0,0,1-3.74,0l-4.57-4.15a2.76,2.76,0,0,0-3.9.18l-13.1,14.42a2.76,2.76,0,0,0,.19,3.9l106.94,97.15a2.76,2.76,0,0,0,3.9-.19l13.1-14.42a2.76,2.76,0,0,0-.19-3.9Zm-23-72.92a40.56,40.56,0,0,1,5.91,53.25,2.74,2.74,0,0,1-4.09.42L162.54,71.19a2.74,2.74,0,0,1,0-4.11A40.57,40.57,0,0,1,216.14,67.86Z"/><path class="cls-12" d="M39.15,93.15,237,273.68l41.06-45.11L64.31,33.7,35.62,65.19C28.82,72.65,30.4,85.17,39.15,93.15Z"/><path class="cls-13" d="M304.49,335.86a.74.74,0,0,1-.5-.2l-5.92-5.38a.75.75,0,1,1,1-1.11l5.92,5.38a.77.77,0,0,1,.05,1.06A.75.75,0,0,1,304.49,335.86Zm-11.83-10.77a.78.78,0,0,1-.51-.2l-5.91-5.38a.75.75,0,1,1,1-1.11l5.91,5.38a.75.75,0,0,1-.5,1.31Zm-11.83-10.77a.78.78,0,0,1-.51-.2l-5.91-5.38a.75.75,0,1,1,1-1.11l5.91,5.38a.75.75,0,0,1,.05,1.06A.76.76,0,0,1,280.83,314.32ZM269,303.55a.76.76,0,0,1-.51-.2L262.57,298a.77.77,0,0,1-.05-1.06.75.75,0,0,1,1.06-.05l5.92,5.38a.75.75,0,0,1,.05,1.06A.76.76,0,0,1,269,303.55Zm-11.84-10.77a.74.74,0,0,1-.5-.2l-5.92-5.38a.76.76,0,0,1-.05-1.06.75.75,0,0,1,1.06-.05l5.92,5.38a.76.76,0,0,1,.05,1.06A.77.77,0,0,1,257.16,292.78ZM245.33,282a.74.74,0,0,1-.5-.2l-5.92-5.38a.75.75,0,0,1,1-1.11l5.92,5.38a.76.76,0,0,1,0,1.06A.78.78,0,0,1,245.33,282ZM233.5,271.24a.78.78,0,0,1-.51-.2l-5.91-5.39a.73.73,0,0,1-.05-1,.75.75,0,0,1,1.06-.05l5.91,5.38a.75.75,0,0,1-.5,1.31Zm-11.83-10.77a.78.78,0,0,1-.51-.2l-5.91-5.39a.75.75,0,0,1-.05-1.06.75.75,0,0,1,1.06,0l5.91,5.38a.75.75,0,0,1,.05,1.06A.76.76,0,0,1,221.67,260.47Zm-11.83-10.78a.74.74,0,0,1-.51-.19l-5.92-5.39a.75.75,0,1,1,1-1.11l5.92,5.39a.75.75,0,0,1-.5,1.3ZM198,238.92a.73.73,0,0,1-.5-.19l-5.92-5.39a.76.76,0,0,1-.05-1.06.77.77,0,0,1,1.06-.05l5.92,5.39a.75.75,0,0,1-.51,1.3Zm-11.83-10.77a.73.73,0,0,1-.5-.19l-5.92-5.39a.75.75,0,0,1-.05-1.06.76.76,0,0,1,1.06,0l5.92,5.39a.76.76,0,0,1,0,1.06A.77.77,0,0,1,186.17,228.15Zm-11.83-10.77a.77.77,0,0,1-.51-.19l-5.91-5.39a.75.75,0,0,1,0-1.06.76.76,0,0,1,1.06-.05l5.91,5.39a.75.75,0,0,1,0,1.06A.74.74,0,0,1,174.34,217.38Zm-11.83-10.77a.77.77,0,0,1-.51-.19L156.09,201A.75.75,0,0,1,156,200a.76.76,0,0,1,1.06-.05l5.91,5.39a.75.75,0,0,1-.5,1.3Zm-11.84-10.77a.73.73,0,0,1-.5-.19l-5.92-5.39a.75.75,0,0,1,1-1.11l5.92,5.39a.75.75,0,0,1,0,1.06A.76.76,0,0,1,150.67,195.84Zm-11.83-10.77a.73.73,0,0,1-.5-.19l-5.92-5.39a.75.75,0,1,1,1-1.11l5.92,5.39a.75.75,0,0,1-.51,1.3ZM127,174.3a.73.73,0,0,1-.5-.19l-5.92-5.39a.75.75,0,0,1,0-1.06.76.76,0,0,1,1.06,0l5.92,5.39a.76.76,0,0,1,0,1.06A.77.77,0,0,1,127,174.3Zm-11.83-10.77a.77.77,0,0,1-.51-.19L108.76,158a.75.75,0,0,1-.05-1.06.76.76,0,0,1,1.06,0l5.91,5.39a.75.75,0,0,1,0,1.06A.74.74,0,0,1,115.18,163.53Zm-11.83-10.77a.75.75,0,0,1-.51-.19l-5.91-5.39a.75.75,0,0,1-.05-1.06.75.75,0,0,1,1.06-.05l5.91,5.39a.75.75,0,0,1-.5,1.3ZM91.51,142a.69.69,0,0,1-.5-.2l-5.92-5.38a.75.75,0,0,1,1-1.11L92,140.69a.75.75,0,0,1-.51,1.3ZM79.68,131.22a.74.74,0,0,1-.5-.2l-5.92-5.38a.76.76,0,0,1-.05-1.06.75.75,0,0,1,1.06,0l5.92,5.38a.76.76,0,0,1,0,1.06A.73.73,0,0,1,79.68,131.22ZM67.85,120.45a.74.74,0,0,1-.5-.2l-5.92-5.38a.75.75,0,1,1,1-1.11l5.92,5.38a.76.76,0,0,1,0,1.06A.71.71,0,0,1,67.85,120.45ZM56,109.68a.78.78,0,0,1-.51-.2L49.6,104.1a.75.75,0,0,1,1-1.11l5.91,5.38a.75.75,0,0,1,0,1.06A.73.73,0,0,1,56,109.68ZM44.19,98.91a.76.76,0,0,1-.51-.2l-5.92-5.38a.77.77,0,0,1,0-1.06.75.75,0,0,1,1.06,0l5.92,5.38a.75.75,0,0,1,.05,1.06A.73.73,0,0,1,44.19,98.91ZM32.35,88.14a.74.74,0,0,1-.5-.2l-3.63-3.3a.75.75,0,1,1,1-1.11l3.63,3.3a.76.76,0,0,1,0,1.06A.73.73,0,0,1,32.35,88.14Z"/><path class="cls-13" d="M293.22,336.29a.39.39,0,0,1-.25-.1L17.2,85.16a.38.38,0,1,1,.51-.55l275.76,251a.37.37,0,0,1,0,.53A.35.35,0,0,1,293.22,336.29Z"/><circle class="cls-14" cx="322.89" cy="197.78" r="36"/><circle class="cls-10" cx="322.89" cy="197.78" r="27.75"/><path class="cls-15" d="M322.89,231.9A34.13,34.13,0,1,1,357,197.78,34.16,34.16,0,0,1,322.89,231.9Zm0-67.25A33.13,33.13,0,1,0,356,197.78,33.16,33.16,0,0,0,322.89,164.65Z"/><circle class="cls-16" cx="322.89" cy="197.78" r="15"/><path class="cls-17" d="M314.39,159.78c1,4.73,4.4,10.35,5.7,18.62s-.62,16.85-1.07,18.92-2.63,2.07-3.63.59-4.5-12-4.83-18.54,1.33-17.22,0-19.59S314.39,159.78,314.39,159.78Z"/><path class="cls-18" d="M303.78,150.36c0,3.41.64,5.78,2.08,7.32a7.61,7.61,0,0,0,4.36,2.21,8.42,8.42,0,0,0,8.17-3,6.65,6.65,0,0,0,1.36-3.47c.75-8.1-7.43-14.13-7.44-26.74,0-2.68-3,3.84-5.45,11C305.21,142.53,303.82,147.64,303.78,150.36Z"/><path class="cls-19" d="M305.86,157.68a7.39,7.39,0,0,0,4.15,2.51,9,9,0,0,0,8.38-3.27,1.88,1.88,0,0,0,.33-1c-.15-.8-2.52,1.9-3.88,1.86s3.58-5.45,2.43-5.9-3,4.87-4.26,5-.69-3.21-2-3-.41,3.71-1.48,4-3.12-1.11-3.61-.39A.38.38,0,0,0,305.86,157.68Z"/><path class="cls-20" d="M306.86,137.69a2.49,2.49,0,0,0,.57,1.14c.76.54-2.79,9.61-.6,9.42s2.33-12,3.16-12-.26,7.32,2,7.61-1-10.5.36-17.15C312.31,124,309.3,130.55,306.86,137.69Z"/><path class="cls-21" d="M314.35,181.89c-2.2,0-4.22-.77-4.72-2.44a.51.51,0,0,1,.34-.62.5.5,0,0,1,.62.34c.5,1.67,3.62,2.08,6.11,1.4,1.74-.47,3.47-1.55,3.07-3.17a.5.5,0,0,1,.36-.61.51.51,0,0,1,.61.37c.47,1.94-1,3.62-3.78,4.38A10,10,0,0,1,314.35,181.89Z"/><path class="cls-21" d="M313.52,178.57c-1.8,0-3.45-.63-3.86-2.24a.46.46,0,0,1,.34-.56.45.45,0,0,1,.56.33c.39,1.51,2.67,1.81,4.71,1.33s4.19-1.88,3.79-3.75a.47.47,0,0,1,.36-.55.45.45,0,0,1,.55.35c.54,2.48-2,4.26-4.48,4.85A8.3,8.3,0,0,1,313.52,178.57Z"/><polygon class="cls-22" points="347.32 147.53 319.58 194.54 320.54 198.96 324.89 197.78 357.18 152.41 347.32 147.53"/><ellipse class="cls-4" cx="352.25" cy="149.97" rx="3.94" ry="5.5" transform="translate(61.57 399.13) rotate(-63.66)"/><ellipse class="cls-23" cx="352.25" cy="149.97" rx="2.86" ry="3.99" transform="translate(61.57 399.13) rotate(-63.66)"/><path class="cls-24" d="M323.8,198.1a4.75,4.75,0,0,1-2.07-.51c-1.81-.9-2.76-2.68-2.12-4a.27.27,0,0,1,.35-.12.26.26,0,0,1,.11.34c-.52,1,.33,2.53,1.88,3.3a4,4,0,0,0,2.32.42,1.8,1.8,0,0,0,1.44-.92.27.27,0,0,1,.35-.12.26.26,0,0,1,.11.35,2.34,2.34,0,0,1-1.83,1.2A4.73,4.73,0,0,1,323.8,198.1Z"/><path class="cls-24" d="M324.45,196.85a4.61,4.61,0,0,1-2.06-.51,4.45,4.45,0,0,1-2-1.79,2.33,2.33,0,0,1-.16-2.19.26.26,0,0,1,.35-.11.25.25,0,0,1,.11.34,1.83,1.83,0,0,0,.15,1.71,4.24,4.24,0,0,0,4.05,2,1.8,1.8,0,0,0,1.44-.92.26.26,0,0,1,.35-.11.25.25,0,0,1,.11.34,2.34,2.34,0,0,1-1.83,1.2A3.24,3.24,0,0,1,324.45,196.85Z"/><path class="cls-23" d="M348.67,148.2s3.47-8.09,7.47-6.09-.31,9.64-.31,9.64Z"/><polygon class="cls-25" points="366.46 173.72 324.64 198.96 322.48 202.28 326.14 203.11 370.7 182.49 366.46 173.72"/><path class="cls-20" d="M327.43,202.83a2.85,2.85,0,0,1-2.56-1.73,2.75,2.75,0,0,1,1.28-3.66.27.27,0,0,1,.35.14.26.26,0,0,1-.14.35,2.31,2.31,0,0,0,1.85,4.21.26.26,0,0,1,.35.13.26.26,0,0,1-.13.35A2.4,2.4,0,0,1,327.43,202.83Z"/><polygon class="cls-17" points="367.15 184.11 368.58 186.9 370.39 186.03 369.02 183.26 367.15 184.11"/><rect class="cls-17" x="355.24" y="188.82" width="14" height="1" transform="translate(-46.07 170.92) rotate(-25.01)"/><ellipse class="cls-20" cx="368.58" cy="178.1" rx="3.69" ry="4.88" transform="translate(-40.78 178.15) rotate(-25.8)"/><ellipse class="cls-17" cx="368.58" cy="178.1" rx="2.56" ry="3.39" transform="translate(-40.78 178.15) rotate(-25.8)"/><path class="cls-17" d="M366.88,184.42a4.15,4.15,0,0,1-1.83-.45,5.91,5.91,0,0,1-2.63-2.77c-1.24-2.57-.61-5.45,1.41-6.43a.24.24,0,0,1,.33.12.23.23,0,0,1-.12.32c-1.77.86-2.31,3.45-1.18,5.78a5.47,5.47,0,0,0,2.41,2.54,3.23,3.23,0,0,0,2.85.12.25.25,0,0,1,.33.11.24.24,0,0,1-.12.33A3.28,3.28,0,0,1,366.88,184.42Z"/><path class="cls-26" d="M324.69,210.72h0a4.32,4.32,0,0,0-8.15-.32h0l-3.42,9.54H328Z"/><path class="cls-17" d="M314.29,216.32a.53.53,0,0,1-.24-.06.51.51,0,0,1-.2-.68,7.61,7.61,0,0,1,13.37,0,.5.5,0,0,1-.88.48,6.6,6.6,0,0,0-11.61,0A.51.51,0,0,1,314.29,216.32Z"/><rect class="cls-17" x="317.41" y="232.69" width="5.64" height="4.57"/><path class="cls-13" d="M155.34,269.06a.76.76,0,0,1-.51-.2.75.75,0,0,1,0-1.06l5.11-5.51a.75.75,0,1,1,1.1,1l-5.11,5.51A.75.75,0,0,1,155.34,269.06Zm10.55-11.37a.76.76,0,0,1-.51-.2.75.75,0,0,1,0-1.06l5.44-5.87a.75.75,0,1,1,1.1,1l-5.44,5.87A.75.75,0,0,1,165.89,257.69ZM176.77,246a.78.78,0,0,1-.51-.2.76.76,0,0,1,0-1.06l5.44-5.86a.74.74,0,0,1,1.06,0,.75.75,0,0,1,0,1.06l-5.44,5.86A.75.75,0,0,1,176.77,246Zm10.88-11.73a.78.78,0,0,1-.51-.2.76.76,0,0,1,0-1.06l5.45-5.86a.74.74,0,0,1,1.06,0,.75.75,0,0,1,0,1.06L188.2,234A.74.74,0,0,1,187.65,234.23Zm10.89-11.73a.7.7,0,0,1-.51-.2.74.74,0,0,1,0-1.06l5.44-5.86a.75.75,0,0,1,1.06,0,.75.75,0,0,1,0,1.06l-5.44,5.86A.75.75,0,0,1,198.54,222.5Zm10.88-11.73a.72.72,0,0,1-.51-.2.75.75,0,0,1,0-1.06l5.44-5.86a.75.75,0,0,1,1.06,0,.75.75,0,0,1,0,1.06L210,210.53A.75.75,0,0,1,209.42,210.77ZM220.3,199a.73.73,0,0,1-.51-.2.75.75,0,0,1,0-1.06l5.44-5.86a.76.76,0,0,1,1.06,0,.75.75,0,0,1,0,1.06l-5.44,5.86A.75.75,0,0,1,220.3,199Zm10.88-11.72a.76.76,0,0,1-.55-1.26l5.45-5.87a.75.75,0,0,1,1.1,1l-5.45,5.86A.73.73,0,0,1,231.18,187.32Zm10.89-11.73a.75.75,0,0,1-.55-1.26l5.44-5.87a.75.75,0,0,1,1.1,1l-5.44,5.87A.79.79,0,0,1,242.07,175.59ZM253,163.86a.75.75,0,0,1-.55-1.26l5.44-5.87a.75.75,0,0,1,1.1,1l-5.44,5.87A.75.75,0,0,1,253,163.86Zm10.88-11.73a.78.78,0,0,1-.51-.2.76.76,0,0,1,0-1.06l5.44-5.87a.76.76,0,0,1,1.06,0,.74.74,0,0,1,0,1.06l-5.44,5.87A.75.75,0,0,1,263.83,152.13Zm10.88-11.73a.78.78,0,0,1-.51-.2.75.75,0,0,1,0-1.06l5.44-5.86a.75.75,0,0,1,1.1,1l-5.45,5.87A.72.72,0,0,1,274.71,140.4Zm10.89-11.73a.75.75,0,0,1-.55-1.26l5.44-5.86a.75.75,0,0,1,1.06,0,.75.75,0,0,1,0,1.06l-5.44,5.86A.75.75,0,0,1,285.6,128.67Zm10.88-11.73a.76.76,0,0,1-.51-.2.75.75,0,0,1,0-1.06l5.44-5.86a.75.75,0,0,1,1.1,1L297,116.7A.75.75,0,0,1,296.48,116.94Z"/><path class="cls-13" d="M50.31,96.41a19.38,19.38,0,0,1,0-38.75.38.38,0,1,1,0,.75,18.63,18.63,0,0,0,0,37.25.38.38,0,1,1,0,.75Z"/><path class="cls-13" d="M.57,78.17A.58.58,0,0,1,0,77.6.56.56,0,0,1,.56,77l4-.08a.59.59,0,0,1,.59.57.57.57,0,0,1-.57.58l-4,.08Zm8-.15A.57.57,0,0,1,8,77.46a.58.58,0,0,1,.56-.59l4-.07a.56.56,0,0,1,.59.56.59.59,0,0,1-.57.59l-4,.07Zm8-.14a.57.57,0,0,1-.57-.57.56.56,0,0,1,.56-.58l4-.08a.57.57,0,0,1,.58.57.56.56,0,0,1-.56.58l-4,.08Zm8-.15a.58.58,0,0,1,0-1.15l4-.07a.58.58,0,0,1,.58.56.57.57,0,0,1-.56.59l-4,.07Zm8-.14A.58.58,0,0,1,32,77a.58.58,0,0,1,.57-.58l4-.07h0a.57.57,0,0,1,.57.56.56.56,0,0,1-.56.58l-4,.08Zm8-.15a.58.58,0,0,1-.58-.56.59.59,0,0,1,.57-.59l4-.07a.58.58,0,0,1,0,1.15l-4,.07Zm8-.14a.58.58,0,1,1,0-1.15l4-.07a.56.56,0,0,1,.58.56.58.58,0,0,1-.56.59l-4,.07Zm8-.15a.58.58,0,0,1,0-1.15l4-.07a.58.58,0,1,1,0,1.15l-4,.07Z"/><path class="cls-13" d="M287.29,237.53c-20.4-21-47.52-25.13-76.23-29.49-27.19-4.13-55.31-8.4-77.67-28.18C109.73,159,102.46,130,95.43,102,88.88,75.85,82.7,51.19,64.05,34l.51-.55c18.81,17.37,25,42.14,31.6,68.36,7,27.9,14.24,56.76,37.72,77.52,22.21,19.63,50.21,23.88,77.29,28,28.84,4.38,56.08,8.52,76.66,29.7Z"/><path class="cls-27" d="M252.25,218.39a18,18,0,0,0-23.78-14.93,17,17,0,0,0-5.54,3.12A18.1,18.1,0,0,0,218,227.89a13.5,13.5,0,0,0,1.16,2.15,18.11,18.11,0,0,0,14,8.31l2.59,22.59a3.53,3.53,0,0,0,3.15,3.18,3.41,3.41,0,0,0,3.64-3.79l-2.62-22.79A18,18,0,0,0,252.25,218.39Zm-15,15.72a14,14,0,0,1-16.71-15.6,12.89,12.89,0,0,1,1.07-3.75,14,14,0,0,1,11.2-8.2,17.24,17.24,0,0,1,1.75-.09,14,14,0,0,1,2.69,27.64Z"/><path class="cls-17" d="M232.29,235.61h6.81a0,0,0,0,1,0,0v24A3.41,3.41,0,0,1,235.7,263h0a3.41,3.41,0,0,1-3.41-3.41v-24A0,0,0,0,1,232.29,235.61Z" transform="translate(-26.89 28.5) rotate(-6.55)"/><g class="cls-28"><circle class="cls-8" cx="232.14" cy="219.28" r="15.97"/></g><path class="cls-29" d="M231.91,237.25a18,18,0,1,1,18.08-20h0a18,18,0,0,1-15.8,19.9A17.6,17.6,0,0,1,231.91,237.25Zm.39-31.94a15,15,0,0,0-1.76.1,14,14,0,0,0,3.19,27.75A14,14,0,0,0,246,217.69h0A14,14,0,0,0,232.3,205.31Z"/><rect class="cls-21" x="231.04" y="241.13" width="7.77" height="2.28" rx="1.14" ry="1.14" transform="translate(-26.09 28.36) rotate(-6.55)"/><rect class="cls-21" x="231.4" y="244.77" width="7.77" height="1.3" rx="0.65" ry="0.65" transform="translate(-26.45 28.42) rotate(-6.55)"/><path class="cls-20" d="M232,235.31a16,16,0,1,1,16.21-15.85A16,16,0,0,1,232,235.31Zm.33-30.17a14.14,14.14,0,1,0,14,14.29A14.16,14.16,0,0,0,232.29,205.14Z"/><path class="cls-13" d="M6.89,159.48a.73.73,0,0,1-.51-.2.75.75,0,0,1,0-1.06l5.11-5.5a.75.75,0,1,1,1.1,1l-5.11,5.5A.74.74,0,0,1,6.89,159.48Zm10.55-11.37a.78.78,0,0,1-.51-.2.76.76,0,0,1,0-1.06L22.34,141a.75.75,0,0,1,1.06,0,.75.75,0,0,1,0,1.06L18,147.87A.72.72,0,0,1,17.44,148.11Zm10.89-11.73a.7.7,0,0,1-.51-.2.75.75,0,0,1,0-1.06l5.44-5.86a.75.75,0,0,1,1.06,0,.75.75,0,0,1,0,1.06l-5.44,5.86A.75.75,0,0,1,28.33,136.38Zm10.88-11.73a.72.72,0,0,1-.51-.2.75.75,0,0,1,0-1.06l5.44-5.86a.75.75,0,1,1,1.1,1l-5.44,5.86A.75.75,0,0,1,39.21,124.65Zm10.88-11.73a.73.73,0,0,1-.51-.2.75.75,0,0,1,0-1.06L55,105.8a.76.76,0,0,1,1.06,0,.75.75,0,0,1,0,1.06l-5.44,5.86A.75.75,0,0,1,50.09,112.92ZM61,101.2a.78.78,0,0,1-.51-.2.76.76,0,0,1,0-1.06l5.45-5.87a.75.75,0,1,1,1.1,1L61.52,101A.76.76,0,0,1,61,101.2ZM71.86,89.47a.75.75,0,0,1-.55-1.26l5.44-5.87a.75.75,0,1,1,1.1,1l-5.44,5.87A.75.75,0,0,1,71.86,89.47ZM82.74,77.74a.76.76,0,0,1-.51-.2.76.76,0,0,1,0-1.06l5.44-5.87a.76.76,0,0,1,1.06,0,.75.75,0,0,1,0,1.06L83.29,77.5A.75.75,0,0,1,82.74,77.74ZM93.62,66a.78.78,0,0,1-.51-.2.76.76,0,0,1,0-1.06l5.44-5.87a.76.76,0,0,1,1.06,0,.74.74,0,0,1,0,1.06l-5.44,5.87A.75.75,0,0,1,93.62,66ZM104.5,54.28a.78.78,0,0,1-.51-.2A.75.75,0,0,1,104,53l5.44-5.86a.74.74,0,0,1,1.06,0,.75.75,0,0,1,0,1.06L105.05,54A.72.72,0,0,1,104.5,54.28Zm10.89-11.73a.76.76,0,0,1-.51-.2.75.75,0,0,1,0-1.06l5.44-5.86a.75.75,0,0,1,1.06,0,.75.75,0,0,1,0,1.06l-5.44,5.86A.75.75,0,0,1,115.39,42.55Zm10.88-11.73a.72.72,0,0,1-.51-.2.75.75,0,0,1,0-1.06l5.44-5.86a.75.75,0,1,1,1.1,1l-5.44,5.86A.75.75,0,0,1,126.27,30.82Zm10.88-11.73a.73.73,0,0,1-.51-.2.75.75,0,0,1,0-1.06L142,12a.75.75,0,0,1,1.06,0,.74.74,0,0,1,0,1.06l-5.44,5.86A.75.75,0,0,1,137.15,19.09ZM148,7.36a.7.7,0,0,1-.51-.2.74.74,0,0,1,0-1.06L152.93.24a.75.75,0,1,1,1.1,1l-5.44,5.86A.75.75,0,0,1,148,7.36Z"/><path class="cls-13" d="M345.55,290.75a.74.74,0,0,1-.5-.2l-5.88-5.34a.75.75,0,0,1,1-1.11l5.88,5.34a.76.76,0,0,1,.05,1.06A.73.73,0,0,1,345.55,290.75ZM333.75,280a.74.74,0,0,1-.5-.2l-5.92-5.38a.75.75,0,0,1-.05-1.06.76.76,0,0,1,1.06-.05l5.92,5.38a.76.76,0,0,1,.05,1.06A.73.73,0,0,1,333.75,280Zm-11.83-10.77a.75.75,0,0,1-.51-.19l-5.92-5.38a.76.76,0,0,1-.05-1.06.75.75,0,0,1,1.06-.05l5.92,5.38a.75.75,0,0,1-.5,1.3Zm-11.84-10.76a.73.73,0,0,1-.51-.2l-5.92-5.38a.75.75,0,0,1,1-1.11l5.92,5.39a.73.73,0,0,1,.05,1.05A.73.73,0,0,1,310.08,258.49Zm-11.84-10.76a.74.74,0,0,1-.5-.2l-5.92-5.38a.75.75,0,1,1,1-1.11l5.91,5.38a.76.76,0,0,1,.06,1.06A.78.78,0,0,1,298.24,247.73ZM286.4,237a.73.73,0,0,1-.5-.19L280,231.38a.75.75,0,0,1-.05-1.06.75.75,0,0,1,1.06,0l5.92,5.38a.75.75,0,0,1-.51,1.3ZM274.57,226.2a.74.74,0,0,1-.51-.2l-5.92-5.38a.75.75,0,1,1,1-1.11l5.92,5.38a.75.75,0,0,1,.05,1.06A.76.76,0,0,1,274.57,226.2Zm-11.84-10.77a.77.77,0,0,1-.51-.19l-5.92-5.38a.77.77,0,0,1-.05-1.06.75.75,0,0,1,1.06-.05l5.92,5.38a.75.75,0,0,1-.5,1.3Zm-11.84-10.76a.74.74,0,0,1-.5-.2l-5.92-5.38a.75.75,0,0,1-.05-1.06.76.76,0,0,1,1.06-.05l5.91,5.38a.75.75,0,0,1,.05,1.06A.71.71,0,0,1,250.89,204.67ZM239.05,193.9a.73.73,0,0,1-.5-.19l-5.92-5.38a.75.75,0,0,1,1-1.11l5.92,5.38a.75.75,0,0,1-.51,1.3Zm-11.84-10.76a.69.69,0,0,1-.5-.2l-5.92-5.38a.75.75,0,0,1,0-1.06.77.77,0,0,1,1.06-.05l5.92,5.39a.75.75,0,0,1,.05,1.06A.76.76,0,0,1,227.21,183.14Zm-11.83-10.76a.78.78,0,0,1-.51-.2L209,166.8a.76.76,0,0,1,0-1.06.75.75,0,0,1,1.06-.05l5.92,5.38a.75.75,0,0,1,.05,1.06A.76.76,0,0,1,215.38,172.38Zm-11.84-10.77a.73.73,0,0,1-.5-.19L197.12,156a.75.75,0,0,1-.05-1.06.76.76,0,0,1,1.06-.05l5.91,5.39a.75.75,0,0,1,.05,1.06A.74.74,0,0,1,203.54,161.61ZM191.7,150.85a.74.74,0,0,1-.5-.2l-5.92-5.38a.75.75,0,1,1,1-1.11l5.92,5.38a.76.76,0,0,1,0,1.06A.77.77,0,0,1,191.7,150.85Zm-11.84-10.77a.73.73,0,0,1-.5-.19l-5.92-5.38a.75.75,0,0,1,1-1.11l5.92,5.38a.75.75,0,0,1,0,1.06A.76.76,0,0,1,179.86,140.08ZM168,129.32a.78.78,0,0,1-.51-.2l-5.92-5.38a.75.75,0,1,1,1-1.11l5.92,5.38a.75.75,0,0,1,.05,1.06A.73.73,0,0,1,168,129.32Zm-11.84-10.77a.77.77,0,0,1-.51-.19L149.77,113a.75.75,0,0,1-.05-1.06.73.73,0,0,1,1.05,0l5.92,5.38a.75.75,0,0,1,.05,1.06A.74.74,0,0,1,156.19,118.55Zm-11.84-10.76a.69.69,0,0,1-.5-.2l-5.92-5.38a.75.75,0,0,1-.05-1.06.76.76,0,0,1,1.06-.05l5.92,5.39a.75.75,0,0,1-.51,1.3ZM132.51,97a.74.74,0,0,1-.5-.2l-5.92-5.38a.75.75,0,1,1,1-1.11L133,95.72a.76.76,0,0,1,0,1.06A.77.77,0,0,1,132.51,97ZM120.68,86.26a.77.77,0,0,1-.51-.19l-5.92-5.39a.75.75,0,0,1,0-1.06.77.77,0,0,1,1.06-.05L121.18,85a.75.75,0,0,1-.5,1.3ZM108.84,75.5a.78.78,0,0,1-.51-.2l-5.91-5.38a.75.75,0,1,1,1-1.11l5.92,5.38a.75.75,0,0,1-.5,1.31ZM97,64.73a.73.73,0,0,1-.5-.19l-5.92-5.39a.73.73,0,0,1,0-1,.75.75,0,0,1,1.06-.05l5.91,5.38a.76.76,0,0,1,.06,1.06A.77.77,0,0,1,97,64.73ZM85.16,54a.74.74,0,0,1-.5-.2l-5.92-5.38a.75.75,0,0,1,0-1.06.76.76,0,0,1,1.06,0l5.92,5.38a.76.76,0,0,1,0,1.06A.73.73,0,0,1,85.16,54ZM73.33,43.2a.75.75,0,0,1-.51-.19L66.9,37.63a.76.76,0,0,1-.05-1.06.75.75,0,0,1,1.06,0l5.92,5.38a.75.75,0,0,1-.5,1.3ZM61.49,32.44a.73.73,0,0,1-.51-.2l-5.92-5.38A.76.76,0,0,1,55,25.8a.76.76,0,0,1,1.06-.05L62,31.14a.73.73,0,0,1,0,1A.73.73,0,0,1,61.49,32.44ZM49.65,21.68a.74.74,0,0,1-.5-.2L43.23,16.1a.75.75,0,1,1,1-1.11l5.91,5.38a.75.75,0,0,1-.5,1.31ZM37.81,10.91a.73.73,0,0,1-.5-.19L31.39,5.33a.75.75,0,0,1-.05-1.06.76.76,0,0,1,1.06,0l5.92,5.39a.75.75,0,0,1-.51,1.3Z"/><path class="cls-13" d="M94.91,47.59,52.53,9.21a.57.57,0,0,1,0-.81.58.58,0,0,1,.81,0L94.83,46,132.44,4.44a.56.56,0,0,1,.81,0,.58.58,0,0,1,0,.81Z"/><circle class="cls-30" cx="320.54" cy="224.61" r="8.79"/><circle class="cls-17" cx="320.54" cy="224.61" r="6.81"/></svg>